<?xml version="1.0" standalone="no"?>
<!DOCTYPE svg PUBLIC "-//W3C//DTD SVG 20010904//EN"
 "http://www.w3.org/TR/2001/REC-SVG-20010904/DTD/svg10.dtd">
<svg version="1.0" xmlns="http://www.w3.org/2000/svg"
 width="1146.000000pt" height="878.000000pt" viewBox="0 0 1146.000000 878.000000"
 preserveAspectRatio="xMidYMid meet">

<g transform="translate(0.000000,878.000000) scale(0.100000,-0.100000)"
fill="#000000" stroke="none">
<path d="M5120 7263 c-764 -19 -1960 -143 -2610 -269 -102 -19 -281 -52 -397
-72 -117 -20 -213 -40 -213 -45 0 -4 3 -6 8 -4 4 3 54 8 112 12 58 3 123 8
145 10 22 2 78 6 125 10 47 3 103 8 125 10 246 25 286 27 300 15 8 -7 15 -9
15 -4 0 5 19 10 43 10 62 2 238 15 267 20 14 2 66 6 115 9 50 3 117 8 150 11
33 3 75 6 93 8 21 2 32 -2 32 -11 0 -14 0 -14 -70 -19 -25 -1 -58 -6 -75 -9
-16 -4 -57 -8 -90 -9 -34 -1 -67 -6 -75 -11 -15 -10 -35 -15 -57 -17 -7 -1
-13 -6 -13 -11 0 -5 -12 -6 -26 -3 -17 5 -32 2 -43 -7 -9 -8 -31 -14 -48 -15
-18 0 -34 -1 -35 -2 -2 -1 -12 -3 -23 -5 -57 -9 -121 -19 -130 -20 -5 -1 -25
-5 -43 -9 -19 -4 -44 -9 -58 -11 -13 -1 -29 -7 -36 -12 -7 -6 -38 -16 -68 -23
-30 -7 -59 -16 -65 -20 -10 -8 -56 -20 -90 -25 -11 -2 -36 -6 -55 -10 -19 -4
-46 -8 -60 -10 -14 -1 -36 -7 -50 -13 -14 -5 -29 -7 -33 -3 -11 11 -99 1 -115
-12 -13 -11 -17 -11 -142 -21 -41 -4 -86 -11 -100 -18 -14 -6 -34 -15 -45 -19
-11 -5 -37 -8 -57 -6 -25 2 -39 -1 -43 -11 -4 -11 -15 -12 -43 -7 -20 4 -34 3
-30 -1 11 -10 -43 -36 -64 -31 -10 3 -18 1 -18 -5 0 -5 -9 -7 -19 -3 -13 4
-23 0 -29 -11 -9 -17 -12 -17 -35 -1 -13 9 -28 13 -32 9 -3 -4 -32 -12 -63
-20 -31 -7 -68 -15 -82 -18 -14 -4 -47 -8 -75 -10 -27 -3 -70 -6 -95 -8 -25
-3 -48 -5 -52 -5 -12 -1 -10 -39 2 -46 6 -3 10 -14 10 -23 0 -10 38 -55 85
-101 47 -47 85 -91 85 -99 0 -7 13 -27 29 -43 16 -16 31 -33 33 -38 3 -11 95
-116 150 -173 21 -21 35 -38 32 -38 -3 0 14 -18 36 -40 23 -22 45 -38 51 -35
5 3 6 0 3 -8 -3 -8 12 -29 36 -50 22 -20 40 -41 40 -47 0 -5 8 -10 17 -10 9 0
13 -3 10 -6 -4 -4 10 -24 31 -45 20 -21 62 -65 92 -99 100 -112 128 -140 141
-140 7 0 9 -3 6 -6 -4 -4 14 -27 38 -52 25 -24 45 -49 45 -53 0 -5 8 -9 17 -9
9 0 14 -3 10 -6 -7 -7 18 -36 113 -134 41 -42 84 -88 95 -103 11 -15 26 -27
34 -27 8 0 12 -3 8 -6 -3 -3 14 -26 39 -50 24 -24 42 -44 40 -44 -2 0 15 -19
38 -43 23 -23 55 -60 73 -80 20 -25 33 -33 36 -25 3 7 6 3 6 -10 1 -14 10 -26
24 -32 12 -5 19 -9 14 -9 -4 -1 4 -13 17 -28 14 -16 33 -38 44 -50 11 -13 28
-23 38 -24 11 0 14 -3 7 -5 -15 -6 15 -44 35 -44 7 0 11 -4 8 -8 -3 -5 4 -15
15 -22 10 -8 19 -20 19 -27 0 -7 5 -13 11 -13 11 0 39 -24 39 -34 0 -11 109
-116 121 -116 7 0 10 -3 6 -6 -9 -9 35 -54 46 -47 6 3 7 1 3 -5 -4 -7 -2 -12
3 -12 6 0 11 -5 11 -10 0 -16 121 -135 134 -132 6 2 8 1 4 -3 -9 -10 33 -55
45 -48 6 3 7 1 4 -4 -4 -6 36 -55 87 -109 l95 -99 30 23 c17 12 36 22 44 22 8
0 28 16 46 35 17 19 37 35 44 35 8 0 7 4 -3 10 -10 6 -11 10 -2 10 17 0 15 29
-3 36 -8 4 -15 11 -15 16 0 13 -56 68 -69 68 -6 0 -11 7 -11 15 0 8 -7 15 -15
15 -8 0 -14 4 -12 9 1 5 -33 43 -75 85 -42 42 -74 76 -70 76 3 0 -4 9 -16 20
-12 11 -26 20 -32 20 -5 0 -10 5 -10 11 0 6 -58 70 -130 141 -71 72 -130 134
-130 138 0 3 -11 13 -25 20 -14 7 -25 17 -25 22 0 13 -26 38 -39 38 -6 0 -11
4 -11 10 0 5 -22 32 -48 59 -27 27 -59 63 -73 80 -13 17 -30 31 -36 31 -7 0
-13 4 -13 8 0 5 -37 47 -82 95 -46 48 -110 115 -143 150 -33 35 -118 126 -190
202 -71 75 -146 154 -165 175 -166 179 -324 339 -331 334 -5 -3 -9 0 -9 6 0
20 -93 103 -169 150 -42 26 -69 50 -67 57 4 8 -3 12 -18 11 -14 -1 -44 14 -74
37 -50 38 -60 62 -20 49 13 -4 18 -2 14 4 -3 5 4 10 17 10 30 0 110 21 121 32
5 5 23 7 40 4 24 -4 28 -3 16 5 -12 9 -10 11 10 9 14 0 52 2 85 6 33 4 82 9
109 12 27 2 55 9 62 15 11 9 14 8 14 -2 0 -11 2 -11 10 1 7 11 10 11 10 2 0
-7 5 -10 11 -7 6 4 41 11 77 16 101 14 108 15 118 22 5 3 54 8 109 11 223 13
293 22 311 37 8 7 14 7 18 0 4 -6 13 -8 20 -5 7 3 16 -2 20 -12 5 -14 9 -14
22 -3 18 15 45 16 89 5 22 -6 32 -3 42 10 12 17 13 17 13 -2 1 -16 2 -17 13
-4 12 15 60 23 51 8 -3 -4 2 -8 10 -8 9 0 16 5 16 10 0 6 9 10 20 10 11 0 20
6 20 13 0 8 3 9 8 1 9 -15 60 -24 65 -11 2 8 23 12 110 21 16 1 30 -1 33 -6 3
-4 19 -5 37 -2 18 3 52 7 76 9 24 2 48 10 53 17 6 11 10 10 17 -1 5 -7 14 -10
21 -6 9 6 9 9 -1 16 -21 13 18 12 42 -2 17 -8 24 -7 36 8 8 10 12 13 9 6 -10
-19 13 -25 31 -8 12 13 18 14 24 4 6 -10 12 -10 27 4 10 9 26 17 36 17 9 0 25
4 34 9 10 5 47 11 83 14 37 2 70 6 75 9 5 2 54 5 110 7 l101 2 15 -33 c19 -39
29 -128 16 -128 -5 0 -6 -4 -3 -10 3 -5 -7 -12 -22 -16 -15 -4 -33 -11 -40
-16 -7 -5 -21 -7 -31 -4 -11 4 -42 2 -68 -5 -81 -18 -84 -18 -84 -7 0 6 -12 8
-32 4 -18 -4 -48 -6 -67 -6 -18 0 -39 -4 -47 -11 -8 -6 -14 -7 -14 -2 0 5 -50
9 -115 9 -63 -1 -115 -5 -115 -9 0 -5 -4 -6 -9 -3 -5 3 -12 -2 -15 -11 -5 -12
-9 -14 -18 -5 -13 13 -48 16 -48 5 0 -5 -25 -9 -55 -10 -31 0 -62 -7 -70 -13
-8 -7 -27 -10 -42 -7 -17 3 -31 0 -38 -9 -6 -8 -33 -15 -70 -16 -33 -2 -63 -7
-67 -13 -5 -6 -12 -4 -18 5 -5 8 -10 10 -10 5 0 -6 -20 -10 -44 -10 -25 1 -42
-3 -39 -8 3 -5 -8 -7 -23 -6 -16 2 -35 0 -42 -4 -6 -5 -12 -5 -12 0 0 4 -5 1
-10 -7 -5 -8 -10 -10 -10 -5 0 6 -9 11 -20 12 -11 1 -20 -3 -20 -9 0 -6 -11
-8 -25 -6 -14 3 -28 1 -31 -3 -3 -5 -14 -9 -25 -9 -10 0 -27 -4 -37 -9 -16 -9
-174 -37 -252 -45 -32 -4 -54 -8 -119 -21 -14 -2 -61 -9 -105 -16 -45 -6 -83
-15 -84 -20 -2 -5 -9 -6 -15 -2 -18 11 -37 12 -37 2 0 -5 -18 -9 -40 -9 -22 0
-40 -4 -40 -9 0 -5 -25 -13 -55 -16 -30 -4 -58 -11 -60 -15 -9 -15 214 -140
249 -140 27 0 159 17 266 35 14 2 57 9 95 15 39 6 81 13 95 15 14 2 48 7 75
10 28 4 79 11 115 17 36 5 81 12 100 15 19 2 112 15 205 28 94 13 199 26 235
30 36 4 76 9 90 11 47 6 145 17 190 20 25 2 79 6 120 10 41 3 108 6 148 6 39
1 72 5 72 9 0 4 15 7 33 7 17 0 58 6 89 13 49 10 58 10 72 -4 9 -8 16 -22 16
-29 0 -7 4 -19 9 -27 7 -11 13 -9 32 9 17 16 19 21 7 17 -26 -9 -32 10 -7 23
15 8 19 9 15 1 -4 -6 -2 -11 5 -11 6 0 9 -8 6 -20 -3 -11 -1 -20 4 -20 5 0 9
5 9 10 0 6 19 9 43 9 39 -1 40 -2 12 -9 l-30 -8 28 -2 c15 -2 33 -3 40 -4 6
-1 20 -9 29 -19 9 -11 23 -17 30 -14 11 4 11 6 0 6 -7 1 -10 6 -7 11 3 6 -1
10 -9 10 -9 0 -16 4 -16 9 0 5 10 7 23 4 22 -5 22 -5 2 10 -20 16 -20 16 5 18
57 4 69 7 86 23 9 10 23 15 30 12 8 -3 14 -1 14 4 0 5 12 2 28 -6 15 -7 42
-14 60 -14 17 0 32 -4 32 -10 0 -5 9 -10 19 -10 11 0 21 -8 23 -17 3 -15 4
-15 19 0 9 9 20 13 23 9 12 -11 81 -10 88 2 5 8 8 7 8 -1 0 -7 7 -13 16 -13
14 0 14 3 4 15 -16 19 -3 20 16 1 11 -11 11 -16 1 -19 -9 -4 -8 -8 3 -16 11
-8 -4 -11 -60 -13 -41 -1 -85 -2 -97 -3 -25 -1 -44 -15 -21 -15 9 0 19 -8 23
-17 5 -15 4 -16 -6 -5 -7 6 -21 12 -32 12 -10 0 -15 5 -12 10 3 6 -1 10 -10
10 -9 0 -13 -4 -10 -10 3 -5 -1 -10 -9 -10 -9 0 -16 -8 -16 -17 0 -10 4 -14 8
-8 12 17 42 18 36 0 -8 -19 -38 -19 -54 0 -7 8 -27 15 -44 15 -23 0 -27 3 -16
10 22 14 5 23 -20 10 -12 -7 -19 -18 -16 -26 3 -8 1 -14 -4 -14 -6 0 -10 5
-10 10 0 6 -5 10 -10 10 -7 0 -7 -6 0 -20 6 -11 7 -20 2 -20 -16 0 -34 29 -28
45 3 8 1 15 -4 15 -6 0 -10 -8 -11 -17 0 -11 -3 -13 -6 -5 -2 6 -17 11 -31 11
-24 -2 -25 -2 -4 -6 12 -2 20 -9 17 -14 -4 -5 0 -9 8 -9 8 0 17 -7 21 -15 3
-8 1 -15 -4 -15 -6 0 -10 5 -10 10 0 6 -8 10 -17 10 -15 0 -16 -2 -3 -10 12
-8 11 -10 -7 -10 -13 0 -23 5 -23 11 0 8 -4 8 -14 0 -8 -7 -40 -15 -70 -18
-52 -5 -56 -4 -56 16 0 15 -6 21 -23 21 -13 0 -29 6 -36 13 -11 10 -13 8 -8
-10 3 -12 0 -27 -7 -32 -11 -9 -137 -29 -216 -35 -19 -1 -44 -7 -56 -14 -11
-6 -43 -11 -71 -10 -28 0 -60 -5 -71 -11 -10 -6 -22 -7 -26 -4 -3 3 -6 1 -6
-5 0 -7 -15 -12 -34 -12 -19 0 -38 -5 -42 -11 -3 -6 -15 -9 -25 -6 -10 3 -21
1 -24 -4 -4 -5 -20 -7 -38 -5 -18 2 -36 0 -42 -4 -14 -10 -59 -20 -126 -26
-31 -3 -117 -17 -190 -30 -74 -13 -147 -25 -164 -28 -16 -2 -50 -10 -75 -16
-25 -7 -70 -14 -100 -15 -30 -1 -66 -7 -80 -12 -14 -6 -56 -16 -95 -22 -95
-16 -156 -34 -152 -45 2 -5 45 -34 96 -63 66 -38 97 -51 104 -44 17 17 31 13
16 -5 -12 -15 -8 -16 51 -10 36 4 101 13 145 21 81 15 262 43 325 51 41 5 162
22 240 34 30 4 76 7 102 6 25 0 44 3 41 7 -3 5 15 7 41 6 25 -2 48 -1 51 3 3
3 28 3 55 0 33 -3 50 -1 50 7 0 15 77 14 84 -1 3 -9 11 -6 25 11 12 13 21 18
21 12 0 -15 30 -14 30 2 1 7 6 5 14 -6 11 -14 15 -15 19 -5 3 8 6 6 6 -6 1
-16 6 -18 49 -12 84 12 86 12 90 -9 2 -16 1 -17 -7 -6 -8 12 -12 12 -25 2 -8
-7 -20 -10 -26 -6 -13 8 -52 -4 -45 -15 3 -4 -4 -10 -15 -13 -14 -4 -20 0 -20
11 0 13 -2 13 -13 -3 -10 -12 -22 -16 -40 -13 -28 5 -37 -6 -14 -16 6 -4 -2
-4 -20 -1 -25 3 -31 1 -26 -10 3 -8 0 -15 -6 -15 -6 0 -11 4 -11 9 0 21 -31
18 -56 -6 -24 -22 -34 -25 -74 -20 -25 3 -53 1 -61 -4 -7 -5 -9 -9 -4 -9 29
-1 -25 -20 -57 -20 -20 0 -49 -5 -65 -11 -15 -6 -39 -13 -53 -14 -113 -13
-133 -20 -150 -50 -20 -37 -67 -62 -89 -48 -19 11 -54 5 -46 -8 7 -10 -15 -20
-98 -45 -32 -9 -56 -22 -54 -28 2 -6 24 -24 50 -41 26 -16 49 -38 53 -48 3 -9
10 -15 15 -12 5 4 9 1 9 -5 0 -6 5 -8 10 -5 6 3 10 -2 10 -12 0 -14 2 -15 9
-4 6 10 12 5 22 -17 7 -17 17 -28 21 -26 4 3 8 -2 8 -10 0 -9 5 -16 10 -16 6
0 10 -7 10 -16 0 -8 4 -13 9 -10 4 3 16 -10 26 -28 10 -19 31 -41 47 -50 15
-10 28 -21 28 -26 0 -5 10 -7 23 -5 19 4 20 3 6 -8 -13 -10 -14 -15 -3 -24 10
-10 14 -10 17 0 3 7 6 4 6 -5 1 -10 6 -18 12 -18 5 0 8 -3 6 -7 -3 -5 1 -13 8
-20 11 -10 15 -10 18 0 3 7 6 4 6 -6 1 -10 6 -15 11 -12 6 3 10 0 10 -8 0 -18
35 -59 44 -50 3 3 6 2 6 -4 0 -15 36 -54 44 -46 3 3 6 1 6 -5 0 -17 131 -148
144 -144 6 2 8 1 4 -3 -9 -9 61 -81 74 -77 5 1 7 -2 3 -8 -3 -6 4 -14 17 -19
13 -6 17 -10 10 -10 -10 -1 -10 -4 0 -15 7 -8 16 -12 20 -10 4 2 9 -4 13 -15
3 -11 18 -24 33 -30 15 -5 21 -10 14 -10 -8 -1 10 -25 40 -54 46 -47 56 -53
76 -44 12 6 22 17 22 24 0 8 4 12 10 8 8 -5 36 14 75 52 7 7 15 9 19 6 3 -3
15 2 26 12 21 19 21 19 -10 46 -16 15 -30 33 -30 38 0 6 -4 11 -8 11 -5 0 -30
20 -55 45 -26 25 -45 45 -42 45 3 0 -4 9 -15 20 -11 11 -25 20 -30 20 -5 0
-10 5 -10 11 0 10 -175 189 -185 189 -5 0 -37 25 -60 47 -26 25 -510 293 -522
289 -6 -3 -10 3 -9 12 3 21 177 59 581 127 715 120 1206 162 1780 152 431 -8
724 -32 1170 -98 201 -29 343 -54 350 -61 2 -1 -23 -19 -56 -38 -45 -27 -59
-41 -60 -60 -2 -22 -2 -22 -6 -4 -4 21 -7 20 -74 -20 -38 -22 -78 -45 -87 -51
-97 -55 -132 -81 -132 -100 0 -16 -2 -17 -10 -5 -9 14 -14 7 -11 -13 1 -5 -3
-6 -9 -2 -12 7 -370 -346 -370 -364 0 -6 -7 -11 -15 -11 -8 0 -15 -3 -15 -8 0
-9 -56 -72 -65 -72 -10 0 -35 -28 -35 -39 0 -6 -7 -11 -15 -11 -8 0 -15 -4
-15 -9 0 -5 -33 -40 -72 -79 -208 -200 -252 -242 -260 -242 -4 0 -8 -4 -8 -9
0 -10 -81 -90 -104 -103 -15 -8 -79 29 -135 79 -14 12 -28 20 -33 17 -4 -3 -8
0 -8 6 0 6 -4 9 -8 6 -5 -3 -32 6 -61 20 -29 14 -64 28 -79 30 -37 7 -41 11
-35 35 6 22 6 22 -26 3 -33 -19 -77 -96 -66 -114 3 -5 13 -10 21 -10 23 0 16
-19 -8 -24 -13 -3 -48 -11 -78 -17 -30 -7 -57 -14 -60 -14 -43 -9 -89 -21
-155 -42 -44 -14 -84 -26 -90 -27 -5 -1 -23 -7 -40 -13 -16 -6 -39 -15 -50
-19 -11 -4 -23 -6 -28 -6 -4 1 -24 -6 -45 -16 -20 -11 -68 -27 -107 -37 -38
-10 -77 -24 -86 -32 -8 -7 -28 -13 -43 -13 -15 0 -43 -8 -64 -19 -20 -10 -60
-26 -88 -35 -29 -9 -60 -26 -69 -36 -10 -11 -33 -22 -51 -26 -19 -3 -34 -10
-34 -14 0 -4 -19 -15 -42 -26 -24 -10 -49 -24 -56 -31 -7 -7 -25 -16 -40 -19
-15 -4 -37 -13 -49 -20 -18 -11 -23 -12 -23 -2 3 78 212 195 545 302 116 37
235 78 265 91 30 13 87 33 127 46 57 18 70 25 61 36 -14 17 -42 17 -35 -1 4
-10 0 -12 -14 -9 -23 6 -36 23 -17 23 7 0 21 7 30 14 16 12 14 13 -14 14 -17
0 -44 6 -60 13 l-30 12 32 13 c30 13 31 14 15 43 -18 36 -19 45 -3 35 7 -4 8
-3 4 4 -4 7 -15 16 -25 22 -15 8 -17 6 -14 -13 4 -20 0 -22 -49 -23 -55 -1
-141 -37 -185 -77 -13 -11 -26 -17 -30 -14 -3 4 -16 -2 -28 -13 l-22 -21 -87
86 c-47 47 -86 90 -86 95 0 6 -7 10 -15 10 -8 0 -15 7 -15 15 0 8 -7 15 -15
15 -8 0 -15 3 -15 8 0 4 -7 15 -14 25 -12 15 -18 16 -35 7 -12 -6 -21 -17 -21
-25 0 -9 -9 -15 -21 -15 -28 0 -91 -39 -83 -51 3 -5 1 -9 -3 -9 -5 0 -18 -6
-28 -14 -19 -14 -19 -15 11 -44 25 -24 35 -27 50 -19 15 8 17 7 7 -3 -6 -7 -9
-19 -6 -28 10 -25 65 -72 76 -65 6 3 7 1 3 -6 -5 -7 8 -27 33 -51 58 -57 54
-76 -26 -126 -15 -10 -42 -32 -60 -50 -17 -17 -38 -34 -46 -37 -8 -3 -44 -26
-80 -51 -62 -43 -65 -44 -88 -28 -13 9 -31 25 -39 36 -8 11 -54 60 -102 108
-48 48 -88 92 -88 98 0 5 -4 10 -10 10 -5 0 -7 -7 -4 -15 4 -11 2 -13 -9 -9
-24 9 -83 -28 -98 -61 -2 -5 -11 -11 -19 -12 -22 -3 -60 -25 -60 -35 0 -5 11
-20 25 -33 13 -14 22 -25 20 -25 -2 0 12 -18 32 -40 20 -21 41 -36 46 -33 6 3
7 1 3 -5 -4 -7 -2 -12 3 -12 6 0 11 -7 11 -15 0 -8 7 -15 15 -15 8 0 15 -7 15
-15 0 -8 4 -15 8 -15 5 0 14 -11 20 -25 13 -28 -2 -65 -25 -65 -7 0 -13 -4
-13 -10 0 -5 -4 -9 -9 -7 -5 1 -24 -11 -42 -28 -19 -16 -35 -29 -36 -27 -8 6
-21 0 -45 -22 -14 -14 -29 -22 -32 -19 -3 4 -17 -4 -31 -17 -14 -13 -32 -25
-41 -26 -9 -1 -23 -9 -33 -18 -16 -14 -19 -14 -41 1 -29 20 -62 53 -54 53 3 0
-30 36 -74 80 -44 44 -84 80 -88 80 -4 0 -16 -7 -26 -17 -10 -9 -18 -11 -18
-6 0 6 7 16 15 23 26 21 24 25 -72 128 -29 30 -53 59 -53 64 0 4 -7 8 -15 8
-8 0 -15 5 -15 11 0 7 -16 26 -35 45 -19 18 -35 36 -35 39 0 4 -32 38 -70 76
-38 38 -70 72 -70 75 0 3 -17 23 -37 43 -21 21 -74 78 -118 127 -44 49 -97
106 -117 126 -21 21 -38 40 -38 43 0 3 -15 21 -33 40 -17 18 -51 55 -75 82
-24 26 -67 74 -95 105 -29 31 -70 78 -92 104 -22 25 -56 63 -75 84 -19 20 -62
67 -95 105 -33 37 -71 80 -85 95 -14 15 -50 55 -80 90 -30 34 -66 75 -80 90
-70 78 -100 111 -155 175 -33 39 -64 75 -70 81 -5 6 -29 33 -52 60 -23 27 -54
63 -68 79 -97 112 -324 403 -394 504 -47 69 -131 238 -131 265 0 9 -4 16 -8
16 -10 0 -32 -144 -32 -211 0 -48 33 -141 78 -219 31 -55 181 -275 236 -349
23 -29 50 -66 61 -81 11 -14 40 -51 65 -81 63 -76 62 -75 90 -110 14 -17 35
-42 48 -55 13 -13 21 -24 18 -24 -3 0 5 -11 17 -24 12 -13 41 -45 64 -72 23
-27 51 -60 62 -73 12 -13 21 -28 21 -33 0 -4 8 -8 17 -8 9 0 13 -3 10 -6 -4
-4 3 -15 15 -25 11 -11 19 -19 16 -19 -2 0 15 -21 39 -46 24 -26 43 -51 43
-55 0 -5 7 -9 16 -9 8 0 13 -4 9 -9 -3 -5 4 -16 15 -24 11 -7 17 -17 13 -20
-3 -4 2 -7 12 -7 10 0 16 -3 12 -6 -5 -6 6 -20 70 -93 18 -20 33 -39 33 -43 0
-5 7 -8 16 -8 8 0 12 -4 9 -10 -3 -5 1 -10 10 -10 9 0 13 -4 10 -10 -3 -5 1
-10 10 -10 9 0 14 -4 10 -9 -3 -5 7 -22 22 -37 16 -16 27 -32 26 -36 -2 -4 5
-8 14 -8 9 0 14 -3 10 -6 -9 -9 19 -34 40 -35 10 0 13 -3 6 -5 -8 -4 -7 -11 5
-26 36 -43 88 -95 107 -106 11 -6 15 -12 8 -12 -18 0 100 -130 118 -130 6 0 8
-4 5 -8 -3 -5 4 -15 15 -22 10 -8 19 -20 19 -27 0 -7 7 -13 16 -13 8 0 12 -4
9 -10 -3 -5 -1 -10 4 -10 6 0 11 -7 11 -16 0 -8 5 -12 10 -9 6 3 10 1 10 -5 0
-14 55 -70 69 -70 7 0 9 -4 6 -10 -3 -5 -1 -10 4 -10 6 0 11 -5 11 -11 0 -6
20 -31 45 -56 25 -24 45 -47 45 -49 0 -3 10 -16 23 -29 12 -13 53 -57 91 -99
39 -41 74 -72 79 -69 6 3 7 1 3 -5 -3 -6 2 -15 11 -21 10 -6 15 -11 11 -11
-14 0 26 -40 40 -40 7 0 11 -4 8 -8 -6 -10 30 -52 45 -52 6 0 7 -5 4 -10 -3
-6 -1 -10 4 -10 6 0 11 -7 11 -15 0 -8 5 -15 11 -15 5 0 7 5 4 10 -3 5 1 10 9
10 9 0 15 -6 13 -12 -1 -7 4 -12 12 -10 14 3 31 -15 31 -33 0 -5 -5 -3 -10 5
-8 13 -10 12 -10 -3 0 -10 21 -41 48 -69 78 -83 88 -95 111 -131 l21 -34 -25
-27 c-13 -14 -28 -26 -33 -26 -5 0 -17 -9 -27 -20 -10 -11 -27 -20 -38 -20
-11 0 -17 -3 -14 -6 9 -9 -38 -44 -60 -44 -15 0 -16 -2 -3 -10 13 -8 12 -10
-2 -10 -10 0 -18 -4 -18 -10 0 -5 -7 -10 -15 -10 -8 0 -15 -3 -15 -8 0 -4 -16
-16 -35 -26 -19 -11 -35 -23 -35 -28 0 -5 -18 9 -41 32 -22 22 -45 40 -50 40
-5 0 -9 7 -9 15 0 8 -4 15 -10 15 -5 0 -10 5 -10 10 0 6 -13 24 -30 42 -17 17
-30 35 -30 39 0 5 -7 9 -16 9 -8 0 -13 4 -10 9 8 13 -21 34 -34 26 -7 -4 -10
-16 -7 -26 3 -11 1 -16 -5 -13 -5 4 -7 21 -4 40 7 34 5 39 -56 107 -16 18 -28
35 -28 39 0 5 -6 8 -13 8 -7 0 -19 11 -27 24 -15 25 -84 105 -152 178 -21 22
-38 42 -38 44 0 2 -11 17 -24 32 -14 15 -34 38 -45 52 -26 31 -96 111 -136
155 -16 18 -37 41 -45 52 -39 48 -105 129 -110 133 -3 3 -24 27 -45 54 -22 27
-49 59 -60 71 -11 11 -38 42 -60 68 -22 27 -45 53 -50 60 -6 7 -28 34 -50 62
-22 27 -49 59 -60 71 -11 11 -34 38 -51 60 -83 104 -130 161 -151 184 -13 14
-23 28 -23 32 0 3 -6 13 -13 20 -14 14 -81 100 -112 144 -11 15 -25 32 -30 38
-17 18 -126 173 -202 286 -130 196 -201 338 -241 485 l-18 68 -17 -101 c-9
-56 -17 -119 -17 -142 0 -92 71 -275 170 -435 24 -38 63 -104 87 -145 24 -41
61 -100 83 -130 22 -30 58 -81 80 -112 43 -63 64 -90 95 -123 11 -13 21 -28
23 -34 1 -7 14 -24 27 -37 14 -14 25 -28 25 -32 0 -4 15 -24 34 -44 19 -20 40
-46 46 -58 12 -23 41 -58 76 -94 11 -12 25 -29 30 -37 11 -19 57 -77 97 -121
15 -16 27 -33 27 -37 0 -3 15 -22 33 -42 17 -20 43 -50 56 -67 13 -17 28 -29
34 -25 5 3 7 1 3 -5 -6 -9 18 -44 68 -97 10 -11 25 -30 33 -42 8 -13 20 -20
26 -16 6 3 7 1 3 -6 -4 -6 0 -14 8 -17 9 -3 13 -10 10 -15 -3 -5 2 -9 10 -9 9
0 15 -3 14 -7 -3 -16 15 -43 28 -43 8 0 13 -3 12 -7 -4 -14 34 -63 49 -63 8 0
12 -4 9 -8 -3 -5 9 -25 27 -45 18 -19 48 -54 67 -77 19 -23 44 -52 55 -64 11
-13 36 -43 55 -67 19 -24 47 -57 62 -72 16 -16 28 -33 28 -38 0 -5 4 -9 8 -9
5 0 15 -11 22 -25 8 -14 25 -28 38 -32 18 -4 20 -8 10 -14 -10 -6 -10 -9 0 -9
6 0 12 -6 12 -14 0 -22 26 -26 63 -11 19 8 37 12 40 9 8 -8 -3 -34 -15 -34 -5
0 -7 4 -4 9 4 5 -5 4 -19 -2 -25 -12 -34 -27 -15 -27 6 0 10 -6 10 -14 0 -8 9
-18 21 -21 11 -4 18 -9 16 -12 -3 -2 2 -13 11 -23 31 -34 42 -49 42 -57 0 -5
9 -15 20 -23 11 -8 20 -18 20 -23 0 -5 9 -22 21 -39 12 -16 20 -31 18 -32 -2
-2 -44 -33 -94 -70 -49 -37 -102 -77 -117 -90 -14 -14 -29 -22 -32 -18 -3 3
-16 -4 -29 -15 -39 -35 -53 -34 -96 6 -23 21 -41 44 -41 50 0 6 -4 11 -8 11
-4 0 -15 12 -24 28 -38 63 -63 83 -99 79 -19 -2 -45 -9 -58 -16 -35 -19 -16 6
23 30 17 10 25 19 18 19 -7 0 -10 5 -7 11 4 6 14 8 22 4 13 -4 14 -3 3 10 -7
8 -19 15 -27 15 -8 0 -12 4 -8 9 3 6 -3 14 -12 20 -10 6 -14 11 -9 11 6 0 1 8
-10 18 -10 10 -30 34 -44 52 -14 19 -41 51 -61 72 -20 21 -34 38 -31 38 3 0
-3 8 -14 18 -10 10 -28 31 -39 46 -44 61 -108 143 -152 192 -10 12 -29 36 -43
54 -14 18 -33 42 -43 53 -9 11 -17 23 -17 27 0 3 -16 23 -35 44 -19 21 -35 42
-35 45 0 4 -16 24 -35 45 -19 21 -35 42 -35 46 0 4 -12 20 -28 36 -15 16 -39
47 -53 69 -15 22 -38 54 -53 70 -14 17 -43 55 -64 85 -20 30 -47 66 -59 80
-13 14 -23 28 -23 32 0 3 -6 13 -12 20 -19 20 -53 68 -139 198 -210 317 -337
587 -358 760 -7 53 -7 51 -31 -93 -23 -147 -23 -150 -5 -225 42 -182 156 -421
333 -697 28 -44 55 -84 59 -90 4 -5 22 -30 38 -55 17 -25 35 -50 40 -57 21
-26 31 -39 60 -83 17 -25 33 -46 38 -48 4 -2 7 -9 7 -15 0 -7 10 -23 23 -37
12 -14 38 -47 57 -75 39 -55 59 -81 78 -101 7 -8 11 -14 7 -14 -3 0 6 -11 20
-25 14 -14 25 -30 25 -36 0 -5 14 -23 30 -41 17 -17 30 -34 30 -38 0 -4 8 -16
18 -27 9 -11 28 -35 42 -53 24 -31 47 -60 70 -87 5 -7 10 -17 10 -23 0 -5 7
-10 16 -10 8 0 12 -4 9 -10 -3 -6 -1 -10 4 -10 6 0 11 -7 11 -15 0 -8 7 -15
16 -15 8 0 13 -4 10 -9 -3 -5 7 -21 22 -37 15 -16 38 -45 52 -64 23 -33 35
-47 70 -90 8 -9 26 -32 40 -50 56 -73 50 -70 97 -45 24 12 39 25 36 29 -4 4 0
4 10 0 26 -9 21 -22 -12 -29 -57 -12 -64 -56 -15 -101 12 -12 20 -25 17 -28
-4 -3 1 -6 11 -6 10 0 14 -5 11 -11 -4 -6 3 -13 15 -16 16 -4 18 -8 8 -14 -10
-7 -10 -9 0 -9 6 0 12 -7 12 -15 0 -8 5 -15 10 -15 6 0 10 -7 10 -15 0 -8 3
-15 8 -15 4 0 12 -10 17 -22 9 -21 2 -29 -78 -88 -49 -36 -96 -69 -105 -75 -8
-5 -28 -21 -43 -34 -15 -13 -39 -29 -53 -36 -26 -14 -66 -10 -66 6 0 8 -20 35
-47 64 -7 8 -13 16 -13 19 0 6 -24 36 -47 61 -7 8 -13 18 -13 23 0 5 -7 15
-15 22 -12 10 -21 10 -43 1 -26 -12 -26 -12 -9 6 9 11 17 26 17 35 0 14 -67
110 -82 116 -5 2 -8 8 -8 13 0 8 -6 17 -53 71 -9 12 -17 24 -17 28 0 3 -8 15
-19 26 -10 11 -31 40 -46 65 -16 24 -34 50 -42 57 -7 7 -13 16 -13 20 0 4 -11
20 -25 36 -14 16 -25 32 -25 36 0 3 -8 15 -18 26 -10 10 -29 37 -42 59 -13 22
-32 49 -42 59 -10 11 -20 28 -24 38 -3 10 -9 18 -14 18 -5 0 -11 8 -14 18 -4
10 -14 27 -24 38 -28 33 -62 83 -62 93 0 5 -3 11 -7 13 -21 9 -195 292 -261
423 -100 200 -192 478 -192 577 0 54 -8 27 -30 -102 -15 -84 -20 -144 -16
-184 8 -76 59 -268 91 -340 14 -31 22 -56 19 -56 -3 0 3 -17 14 -38 11 -20 30
-62 43 -92 50 -116 229 -429 251 -438 5 -2 8 -8 8 -13 0 -10 34 -60 62 -93 10
-11 18 -23 18 -27 0 -4 6 -14 14 -21 7 -8 21 -28 29 -45 9 -17 22 -37 29 -45
8 -7 29 -38 48 -68 19 -30 37 -57 40 -60 3 -3 18 -25 34 -49 29 -45 37 -56 66
-90 8 -10 16 -23 17 -29 5 -20 76 -107 85 -104 5 1 7 -2 3 -7 -3 -6 3 -19 14
-30 11 -11 17 -22 13 -25 -3 -3 0 -6 5 -6 6 0 14 6 16 13 3 7 6 5 6 -5 1 -10
6 -17 12 -15 6 1 13 -6 14 -15 2 -11 -3 -18 -12 -18 -12 0 -9 -7 10 -24 14
-13 23 -27 20 -30 -4 -3 -1 -6 6 -6 7 0 10 -4 6 -9 -3 -6 1 -13 9 -18 8 -4 16
-12 18 -18 2 -5 7 -9 12 -7 5 2 6 -4 3 -11 -3 -8 5 -30 18 -49 13 -19 25 -42
27 -50 4 -19 -53 -84 -81 -93 -12 -3 -21 -11 -21 -16 0 -5 -5 -9 -11 -9 -12 0
-101 -59 -111 -74 -4 -6 -8 -7 -8 -2 0 5 -11 -1 -25 -14 -14 -13 -25 -19 -25
-13 0 6 -11 8 -24 6 -18 -4 -26 0 -31 16 -3 12 -11 21 -16 21 -5 0 -9 7 -9 15
0 8 -4 15 -10 15 -5 0 -10 6 -10 14 0 8 -6 21 -13 28 -7 7 -22 34 -33 60 -10
27 -21 48 -24 48 -3 0 -13 -13 -24 -28 -15 -23 -24 -27 -52 -24 -22 3 -34 10
-34 20 0 8 -8 24 -17 34 -11 12 -13 22 -6 29 6 6 16 -4 28 -31 10 -22 22 -40
26 -40 5 0 23 13 40 28 28 25 30 30 16 43 -13 13 -57 82 -130 204 -7 11 -15
22 -18 25 -3 3 -12 17 -20 31 -25 46 -74 121 -92 143 -16 18 -18 18 -13 3 4
-12 2 -17 -6 -15 -7 3 -15 15 -16 27 -2 14 0 21 6 17 6 -4 8 2 5 15 -4 14 -8
17 -13 9 -12 -19 -32 0 -27 25 3 17 -1 25 -15 28 -12 4 -18 14 -18 36 0 17 -5
31 -10 31 -6 0 -19 19 -29 42 -10 24 -48 104 -84 178 -123 256 -190 494 -200
710 l-2 55 -14 -65 c-18 -89 -26 -365 -12 -486 10 -90 37 -190 89 -330 22 -58
123 -274 135 -289 5 -5 18 -29 30 -52 45 -86 139 -246 153 -260 8 -8 14 -19
14 -24 0 -9 6 -18 40 -58 8 -10 16 -24 18 -32 2 -8 9 -21 17 -29 7 -8 16 -25
19 -37 4 -13 12 -23 17 -23 5 0 9 -7 9 -15 0 -8 5 -15 11 -15 5 0 7 -4 4 -10
-3 -5 -1 -10 4 -10 6 0 11 -6 11 -14 0 -8 7 -22 16 -30 8 -9 16 -25 17 -36 1
-11 5 -20 9 -20 4 0 8 -6 8 -14 0 -8 8 -22 17 -32 9 -9 19 -26 20 -38 2 -11 8
-25 13 -30 15 -15 12 -36 -5 -36 -9 0 -26 -11 -39 -25 -21 -22 -62 -44 -78
-41 -3 0 -17 -9 -30 -21 -19 -18 -83 -43 -111 -43 -4 0 -19 12 -32 26 -31 33
-32 21 -2 -31 12 -22 39 -49 59 -60 33 -17 42 -18 85 -7 55 15 111 52 255 173
57 48 466 346 910 662 l806 576 204 -74 c240 -87 467 -157 705 -219 95 -24
176 -47 181 -50 5 -3 15 -46 22 -95 20 -142 44 -168 182 -203 l84 -20 138 26
c87 17 231 34 399 46 300 23 402 33 577 61 393 62 1315 265 1808 398 l152 42
177 -123 c98 -67 237 -163 308 -213 328 -231 503 -350 670 -455 99 -63 223
-145 275 -182 52 -37 174 -118 270 -179 96 -62 208 -140 248 -173 124 -104
143 -116 177 -116 33 0 65 27 101 85 18 29 18 29 0 15 -38 -30 -85 -29 -111 5
-12 14 -29 25 -39 25 -24 0 -97 40 -114 63 -7 9 -20 17 -28 17 -8 0 -12 7 -10
18 9 38 19 62 26 62 4 0 10 10 14 23 3 12 13 32 23 43 21 23 40 52 50 74 4 8
9 17 13 20 4 3 22 31 41 62 18 32 37 58 42 58 4 0 5 5 2 10 -3 5 -1 10 4 10 6
0 11 7 11 15 0 8 4 15 9 15 5 0 13 10 17 23 4 12 14 29 23 37 9 8 25 32 35 53
11 20 23 37 27 37 4 0 11 10 15 22 3 12 12 28 18 35 23 26 36 45 88 131 18 30
43 70 55 90 13 21 44 75 69 122 26 47 66 117 89 155 41 68 104 181 152 276 29
56 95 315 118 464 16 97 16 127 6 250 -7 77 -14 141 -15 142 -1 2 -8 -41 -14
-95 -16 -131 -64 -278 -143 -434 -16 -32 -29 -61 -28 -64 0 -4 -3 -10 -8 -13
-5 -3 -31 -49 -58 -101 -26 -52 -51 -97 -55 -100 -3 -3 -31 -49 -61 -104 -30
-54 -64 -115 -76 -135 -12 -20 -28 -47 -35 -61 -7 -14 -18 -29 -25 -33 -7 -4
-13 -15 -13 -22 0 -8 -4 -15 -10 -15 -5 0 -10 -8 -10 -19 0 -10 -7 -24 -15
-31 -9 -7 -14 -18 -12 -25 3 -6 -2 -20 -10 -30 -12 -17 -15 -18 -23 -5 -6 9
-10 10 -10 3 0 -6 -3 -19 -7 -29 -4 -11 -3 -15 5 -10 15 9 21 -5 11 -32 -10
-27 -29 -29 -22 -2 3 11 2 20 -2 20 -10 0 -35 -27 -35 -38 0 -5 -9 -19 -19
-31 -16 -19 -62 -89 -114 -176 -7 -11 -14 -22 -17 -25 -17 -17 -60 -80 -60
-88 0 -6 -3 -12 -7 -14 -13 -5 -63 -76 -63 -87 0 -6 -5 -11 -11 -11 -5 0 -7
-4 -4 -10 3 -5 0 -10 -7 -10 -8 0 -20 -16 -27 -35 -7 -19 -17 -35 -22 -35 -5
0 -9 -6 -9 -13 0 -8 -9 -24 -20 -37 -11 -13 -33 -43 -47 -66 -41 -65 -61 -69
-121 -28 -28 19 -55 34 -61 34 -8 0 -39 23 -108 80 -7 6 -16 10 -20 10 -5 0
-27 14 -50 30 -31 23 -40 35 -36 50 3 11 9 20 14 20 5 0 9 7 9 15 0 8 5 15 10
15 6 0 10 7 10 15 0 8 5 15 10 15 6 0 10 7 10 15 0 8 4 15 8 15 4 0 15 12 24
28 9 15 28 39 42 53 14 15 22 29 19 32 -3 3 4 18 16 33 11 15 21 24 21 20 0
-4 11 4 25 18 14 14 25 27 25 30 0 5 21 33 45 60 6 6 22 27 35 46 13 19 27 37
30 40 3 3 17 21 30 40 14 19 32 44 42 54 10 11 18 23 18 26 0 4 8 16 18 28 43
51 52 62 69 89 17 27 29 42 66 85 9 12 17 25 17 30 0 5 6 15 13 22 6 7 21 25
32 40 11 16 25 33 30 40 6 6 26 36 45 66 19 30 37 57 40 60 11 9 177 267 204
315 9 17 34 57 56 90 22 33 43 67 46 75 4 8 32 54 61 102 83 135 157 299 213
473 45 141 50 247 19 402 l-23 118 -8 -58 c-16 -126 -69 -289 -145 -447 -36
-75 -140 -266 -155 -285 -8 -9 -58 -87 -116 -180 -27 -43 -61 -94 -74 -110 -4
-5 -36 -53 -70 -105 -35 -52 -71 -104 -80 -114 -10 -11 -18 -23 -18 -27 0 -4
-6 -14 -13 -21 -7 -7 -30 -38 -52 -68 -22 -30 -43 -59 -48 -65 -4 -5 -31 -41
-60 -80 -28 -38 -55 -71 -59 -73 -4 -2 -8 -8 -8 -13 0 -8 -15 -29 -45 -63 -6
-6 -18 -24 -28 -39 -17 -26 -25 -37 -67 -87 -8 -9 -26 -32 -40 -50 -14 -18
-33 -42 -43 -54 -10 -11 -26 -33 -35 -49 -9 -15 -20 -27 -24 -27 -4 0 -8 -5
-8 -11 0 -6 -6 -16 -12 -23 -7 -7 -24 -28 -38 -46 -14 -19 -37 -47 -53 -64
-37 -41 -42 -64 -22 -86 17 -18 16 -19 -16 -14 -27 5 -39 1 -53 -15 -11 -12
-16 -21 -13 -21 4 0 -6 -13 -21 -29 -36 -38 -62 -70 -62 -77 0 -3 -11 -15 -25
-28 -14 -13 -25 -26 -25 -30 0 -13 -55 -57 -58 -47 -2 6 -9 11 -16 11 -7 0
-26 12 -42 26 -26 23 -82 57 -94 59 -5 0 -81 56 -90 65 -3 4 -22 19 -42 34
-25 19 -35 33 -31 44 8 24 105 152 115 152 4 0 8 6 8 13 0 7 9 19 20 27 11 8
20 18 20 23 0 5 7 15 15 23 27 27 12 52 -35 59 -3 0 -14 6 -25 13 -18 12 -18
12 10 10 17 -1 43 -11 59 -22 l28 -19 29 31 c16 17 29 35 29 39 0 5 9 15 20
23 11 8 20 18 20 23 0 4 11 18 25 31 14 13 25 27 25 32 0 5 9 16 20 24 11 8
20 20 20 27 0 7 7 13 15 13 8 0 15 4 15 10 0 9 19 35 48 65 6 8 12 17 12 22 0
5 9 15 20 23 11 8 20 19 20 24 0 5 11 19 26 32 14 13 23 24 20 24 -3 0 7 13
22 29 57 61 82 92 82 99 0 4 9 14 20 22 11 8 20 18 20 23 0 4 10 18 23 31 29
30 48 54 70 89 18 27 25 37 74 95 13 15 23 30 23 33 0 4 12 21 28 37 15 17 39
45 55 62 15 17 27 34 27 38 0 4 14 23 30 42 33 38 32 38 75 95 33 45 36 48 70
90 14 17 41 53 60 80 20 28 65 91 100 140 57 80 131 188 201 295 111 171 233
440 261 575 16 79 16 85 -7 230 l-24 150 -13 -83 c-26 -166 -163 -453 -335
-702 -21 -30 -44 -63 -51 -73 -13 -19 -141 -191 -180 -241 -12 -16 -33 -45
-47 -65 -14 -19 -34 -45 -45 -57 -11 -12 -27 -31 -35 -44 -8 -12 -22 -30 -31
-40 -8 -10 -24 -31 -35 -45 -10 -15 -34 -43 -51 -63 -18 -20 -33 -39 -33 -43
0 -4 -12 -20 -27 -37 -51 -54 -80 -88 -89 -104 -12 -19 -72 -94 -101 -124 -13
-13 -23 -26 -23 -29 0 -3 -10 -16 -22 -29 -13 -12 -34 -37 -48 -56 -14 -18
-32 -40 -40 -50 -8 -10 -26 -32 -40 -50 -14 -18 -32 -41 -40 -50 -8 -10 -29
-35 -47 -57 -18 -21 -42 -50 -55 -65 -46 -53 -58 -68 -58 -75 0 -3 -16 -21
-35 -40 -19 -19 -35 -36 -35 -39 0 -3 -9 -15 -21 -27 -12 -12 -33 -38 -48 -57
-14 -19 -37 -47 -51 -61 -35 -37 -60 -68 -60 -74 0 -3 -16 -21 -35 -39 -19
-19 -35 -39 -35 -45 0 -6 -3 -10 -8 -8 -4 1 -8 -2 -9 -6 -1 -4 -8 -14 -15 -21
-7 -7 -26 -30 -43 -51 -16 -20 -39 -46 -49 -56 -11 -11 -17 -19 -14 -19 3 0
-18 -25 -47 -55 -28 -30 -59 -55 -67 -55 -8 0 -40 16 -72 35 -32 19 -62 35
-67 35 -4 0 -11 9 -14 21 -4 11 -9 18 -13 15 -6 -7 -47 17 -82 49 -14 13 -34
25 -44 27 -11 1 -19 7 -17 11 1 4 -6 15 -15 24 -14 15 -14 17 0 25 9 5 16 16
16 23 0 8 5 15 10 15 6 0 10 4 10 10 0 5 16 26 35 46 19 20 32 41 28 47 -3 7
-3 9 2 5 7 -7 65 44 65 57 0 3 11 18 25 33 30 32 31 42 8 42 -14 0 -15 2 -4 9
7 5 21 7 30 4 10 -2 29 12 51 38 19 24 45 54 57 67 13 13 20 30 16 36 -3 6 -3
8 2 4 7 -7 65 44 65 57 0 3 16 21 35 39 19 19 35 36 35 40 0 4 14 20 30 36 19
18 28 35 24 43 -4 6 -4 9 0 5 9 -8 66 47 66 63 0 6 5 7 10 4 6 -3 10 -1 10 5
0 6 9 21 21 33 11 12 35 39 52 60 18 21 46 53 62 71 17 18 53 58 80 90 28 32
60 69 73 82 12 13 22 26 22 29 0 4 6 12 13 19 6 7 37 42 67 76 30 35 63 73 73
84 11 12 33 38 50 60 18 21 42 49 55 62 12 13 22 26 22 29 0 3 10 16 23 29 12
13 36 39 52 59 17 21 45 54 63 75 33 36 61 70 130 156 65 80 160 193 177 212
5 6 20 24 33 40 12 16 59 76 103 134 220 284 401 590 444 745 9 33 20 67 25
76 8 15 -14 170 -39 274 -8 37 -9 37 -10 10 -5 -135 -153 -421 -355 -683 -39
-51 -78 -104 -87 -118 -9 -13 -27 -36 -40 -52 -13 -15 -42 -49 -64 -77 -22
-27 -42 -52 -45 -55 -3 -3 -24 -27 -45 -55 -52 -64 -74 -91 -105 -125 -14 -15
-45 -51 -69 -80 -25 -29 -50 -58 -55 -64 -6 -6 -27 -31 -48 -56 -20 -25 -52
-62 -71 -83 -20 -21 -48 -54 -64 -74 -15 -20 -44 -53 -63 -73 -19 -21 -51 -57
-70 -80 -35 -43 -46 -54 -135 -155 -27 -31 -63 -71 -78 -88 -74 -85 -124 -142
-147 -167 -14 -16 -39 -45 -57 -66 -17 -22 -48 -58 -70 -81 -21 -23 -56 -63
-78 -89 -22 -25 -57 -64 -77 -85 -21 -21 -38 -41 -38 -44 0 -3 -16 -21 -35
-39 -19 -19 -35 -37 -35 -41 0 -3 -11 -16 -25 -29 -14 -13 -25 -26 -25 -29 0
-3 -20 -27 -45 -54 -126 -136 -155 -169 -155 -181 0 -7 -4 -11 -8 -8 -8 5 -52
-37 -52 -49 0 -3 -17 -22 -37 -43 -21 -21 -53 -57 -71 -79 -51 -64 -78 -91
-93 -95 -8 -1 -30 7 -49 18 -19 12 -45 25 -58 29 -12 3 -20 11 -17 16 4 5 -6
14 -21 19 -15 6 -39 21 -54 33 -15 12 -37 29 -50 37 -59 40 -88 71 -83 90 3
11 9 20 14 20 5 0 9 5 9 10 0 6 11 21 25 34 14 13 25 31 25 40 0 9 7 16 15 16
8 0 15 5 15 10 0 14 37 50 44 42 3 -3 6 0 6 7 0 6 11 22 25 35 24 22 35 43 16
32 -5 -3 -11 0 -14 8 -4 10 6 15 32 20 26 4 42 13 51 31 7 14 17 25 22 25 4 0
8 7 8 15 0 8 5 15 11 15 11 0 39 25 39 35 0 3 18 23 40 44 22 21 40 43 40 50
0 7 5 9 10 6 6 -3 10 -1 10 5 0 6 11 21 25 34 14 13 25 29 25 35 0 7 4 10 8 7
8 -5 42 28 42 39 0 3 23 27 50 54 28 27 50 54 50 60 0 6 7 11 15 11 8 0 15 5
15 11 0 6 20 30 45 55 25 24 45 46 45 49 0 4 16 22 35 41 19 18 35 36 35 39 0
3 18 23 40 45 24 24 38 46 34 53 -4 7 -4 9 0 5 9 -7 106 86 106 102 0 5 6 10
13 10 8 0 20 11 27 25 7 14 17 25 22 25 4 0 8 4 8 10 0 5 29 38 65 74 36 35
65 69 65 75 0 6 7 11 15 11 8 0 15 4 15 9 0 5 18 27 40 50 22 22 40 46 40 52
0 5 5 7 10 4 6 -3 10 0 10 7 0 8 9 20 20 28 11 8 20 20 20 28 0 7 5 10 10 7 6
-3 10 -1 10 5 0 7 14 25 30 40 17 15 30 33 30 40 0 6 5 8 10 5 6 -3 10 1 10
10 0 9 5 13 10 10 6 -3 10 0 10 7 0 8 9 20 20 28 11 8 20 21 20 29 0 8 3 12 6
8 7 -6 34 16 34 28 0 3 23 29 51 56 28 27 48 49 44 49 -3 0 18 25 47 54 62 65
167 179 309 337 55 61 140 160 287 335 56 66 227 301 272 374 61 98 110 197
110 223 0 11 4 15 12 11 13 -8 7 60 -19 200 l-16 89 -21 -75 c-23 -77 -47
-120 -145 -263 -59 -86 -186 -247 -265 -335 -27 -30 -61 -69 -75 -85 -106
-123 -159 -184 -181 -206 -14 -14 -70 -75 -125 -134 -103 -111 -112 -120 -255
-275 -47 -51 -114 -123 -150 -160 -36 -37 -90 -95 -120 -130 -30 -34 -82 -91
-115 -125 -130 -136 -163 -174 -158 -179 4 -3 -1 -6 -10 -6 -9 0 -17 -4 -17
-9 0 -4 -26 -35 -57 -68 -32 -33 -92 -98 -133 -143 -71 -79 -98 -108 -197
-215 -24 -25 -43 -47 -43 -50 0 -3 -22 -27 -50 -54 -27 -27 -50 -54 -50 -61 0
-6 -4 -9 -8 -6 -5 3 -22 -12 -39 -32 -17 -20 -47 -54 -67 -74 -20 -20 -36 -42
-36 -48 0 -5 -7 -10 -15 -10 -8 0 -15 -4 -15 -8 0 -5 -27 -37 -60 -72 -33 -35
-60 -65 -60 -67 0 -2 -23 -25 -50 -52 -28 -27 -50 -54 -50 -60 0 -6 -6 -11
-12 -11 -7 0 -23 -16 -36 -36 -23 -35 -23 -36 -5 -56 18 -20 18 -21 -4 -9 -33
17 -39 15 -90 -40 -27 -28 -60 -64 -75 -79 -16 -16 -28 -31 -28 -34 0 -8 -67
-73 -86 -84 -13 -7 -32 0 -78 32 -34 22 -62 44 -64 48 -2 4 -10 4 -19 1 -10
-4 -14 -2 -9 5 6 11 -9 25 -31 28 -6 1 -28 14 -47 28 -20 14 -52 37 -71 51
-31 23 -33 28 -22 47 6 11 24 34 40 50 15 16 27 36 27 45 0 9 3 13 7 10 8 -9
55 42 48 53 -3 4 2 10 10 14 8 3 15 13 16 23 0 16 1 16 9 -2 8 -19 9 -18 9 4
1 13 4 22 7 18 7 -7 34 17 34 31 0 15 -35 42 -56 42 -10 0 -26 5 -34 11 -24
17 61 0 88 -17 19 -13 26 -13 40 -2 27 21 52 50 52 61 0 6 2 8 5 5 5 -4 85 69
85 77 0 2 54 58 120 125 66 68 120 129 120 137 0 8 3 12 8 10 4 -3 41 31 82
74 41 44 121 127 178 186 56 58 102 107 102 109 0 2 27 31 60 64 33 33 60 62
60 64 0 2 48 54 108 115 187 192 272 282 272 288 0 3 11 14 25 25 14 11 25 27
25 35 0 9 3 14 6 10 9 -8 174 165 167 175 -2 5 1 7 9 6 7 -2 12 3 11 9 -2 7 3
12 10 10 6 -1 11 4 9 11 -1 6 1 11 5 10 5 -2 31 22 58 51 28 30 85 89 127 132
42 42 74 80 71 83 -4 3 -1 6 6 6 12 0 368 354 533 531 51 55 100 113 110 130
9 16 20 30 25 31 4 0 7 4 6 9 -2 5 1 9 6 9 5 0 11 9 14 21 3 12 10 18 16 14 6
-3 11 1 11 10 0 10 -5 14 -12 10 -7 -4 3 9 23 27 37 33 94 116 86 124 -5 5
-105 23 -132 24 -65 2 -85 6 -85 18 0 6 -7 12 -15 12 -8 0 -15 -6 -15 -13 0
-9 -12 -14 -30 -14 -17 0 -26 4 -19 8 7 4 -2 10 -22 15 -19 4 -37 9 -41 10 -5
1 -13 2 -19 3 -5 0 -7 6 -4 11 4 6 -10 10 -34 10 -22 0 -43 5 -47 11 -9 15
-105 4 -116 -13 -6 -10 -8 -8 -8 5 0 13 -8 17 -35 17 -24 0 -35 5 -35 15 0 9
-9 15 -22 15 -13 0 -48 7 -78 15 -41 11 -56 11 -62 2 -5 -8 -8 -7 -13 3 -3 10
-20 15 -50 16 -24 0 -50 6 -57 12 -17 14 -112 30 -143 24 -13 -2 -33 -1 -42 4
-25 11 -48 14 -131 18 -40 2 -78 9 -85 14 -7 6 -40 13 -73 16 -34 3 -68 8 -75
11 -8 2 -32 6 -54 9 -56 6 -95 17 -95 26 0 5 -15 4 -32 -1 -22 -6 -44 -5 -66
2 -18 6 -45 9 -59 6 -13 -2 -41 -1 -61 4 -20 4 -59 10 -87 13 -27 3 -77 10
-110 15 -33 5 -85 13 -115 17 -30 3 -66 8 -80 10 -14 2 -54 6 -90 9 -143 13
-170 17 -170 26 0 7 68 8 188 5 315 -9 516 -17 540 -22 12 -2 22 0 22 5 0 6
-19 12 -42 14 -24 3 67 3 202 1 135 -3 369 -6 520 -8 l275 -4 -265 38 c-592
86 -1177 143 -1720 165 -74 3 -156 8 -182 11 -53 5 -929 12 -1088 7z m1447
-209 c-3 -3 -12 -4 -19 -1 -8 3 -5 6 6 6 11 1 17 -2 13 -5z m-2987 -64 c0 -5
-2 -10 -4 -10 -3 0 -8 5 -11 10 -3 6 -1 10 4 10 6 0 11 -4 11 -10z m44 -2 c-3
-4 -11 -5 -19 -1 -21 7 -19 12 4 10 11 0 18 -5 15 -9z m2833 -174 c-3 -3 -12
-4 -19 -1 -8 3 -5 6 6 6 11 1 17 -2 13 -5z m570 -10 c-3 -3 -12 -4 -19 -1 -8
3 -5 6 6 6 11 1 17 -2 13 -5z m-40 -10 c-3 -3 -12 -4 -19 -1 -8 3 -5 6 6 6 11
1 17 -2 13 -5z m200 0 c-3 -3 -12 -4 -19 -1 -8 3 -5 6 6 6 11 1 17 -2 13 -5z
m73 -4 c0 -5 -5 -10 -11 -10 -5 0 -7 5 -4 10 3 6 8 10 11 10 2 0 4 -4 4 -10z
m-193 -6 c-3 -3 -12 -4 -19 -1 -8 3 -5 6 6 6 11 1 17 -2 13 -5z m78 -4 c3 -6
-1 -7 -9 -4 -18 7 -21 14 -7 14 6 0 13 -4 16 -10z m242 -16 c-3 -3 -12 -4 -19
-1 -8 3 -5 6 6 6 11 1 17 -2 13 -5z m1456 -81 c-7 -2 -19 -2 -25 0 -7 3 -2 5
12 5 14 0 19 -2 13 -5z m-3149 -37 c-4 -10 -16 -13 -37 -11 -32 5 -548 7 -772
4 -66 0 -127 0 -135 2 -28 6 295 15 622 17 282 2 327 0 322 -12z m306 0 c234
-12 379 -18 550 -21 191 -4 362 -12 425 -21 22 -3 67 -7 100 -9 33 -2 60 -4
60 -5 0 -1 50 -3 110 -5 111 -4 265 -13 320 -19 17 -2 62 -7 100 -10 343 -30
637 -63 900 -102 94 -13 192 -27 218 -31 26 -3 50 -9 52 -13 2 -4 -27 -24 -66
-46 -39 -21 -80 -48 -92 -59 -12 -12 -37 -31 -54 -44 -18 -12 -33 -29 -33 -37
0 -8 -3 -13 -7 -13 -20 3 -34 -2 -28 -10 3 -5 -4 -13 -16 -16 -11 -4 -147
-134 -302 -289 -421 -422 -539 -546 -533 -562 4 -9 -2 -14 -15 -14 -11 0 -44
-26 -77 -61 -31 -33 -110 -114 -174 -180 -65 -65 -118 -121 -118 -123 0 -2
-55 -60 -122 -127 -68 -68 -122 -127 -120 -131 1 -5 -5 -8 -13 -8 -8 0 -15 -4
-15 -8 0 -5 -46 -56 -102 -114 -225 -231 -278 -288 -278 -298 0 -5 -5 -10 -11
-10 -10 0 -39 -24 -39 -33 0 -3 -37 -43 -82 -89 -126 -128 -150 -158 -144
-174 3 -8 0 -14 -7 -14 -7 -1 5 -10 26 -21 20 -11 37 -24 37 -30 0 -5 -20 2
-45 16 -46 25 -75 32 -75 17 0 -5 -34 -43 -75 -85 -41 -42 -75 -80 -75 -86 0
-6 -7 -11 -15 -11 -8 0 -15 -7 -15 -15 0 -8 -7 -15 -15 -15 -8 0 -15 -4 -15
-10 0 -15 -63 0 -80 19 -19 21 -134 91 -149 91 -7 0 -10 4 -7 9 3 5 -2 12 -12
16 -33 12 -82 50 -82 63 0 7 -4 11 -9 8 -5 -3 -8 2 -7 12 1 17 8 28 34 57 6 7
12 18 12 23 0 5 11 15 25 22 14 7 25 17 25 21 0 5 30 38 66 74 36 35 63 69 60
74 -3 4 -19 14 -36 21 -16 7 -30 17 -30 22 0 5 3 8 8 6 4 -2 24 -12 46 -22
l39 -17 35 33 c66 62 91 91 85 101 -3 6 -1 7 5 3 6 -4 17 2 24 14 7 11 18 20
25 20 7 0 13 4 13 9 0 5 47 57 105 115 58 59 105 111 105 117 0 5 5 9 11 9 12
0 39 25 39 37 1 4 14 19 30 33 17 13 30 31 30 39 0 8 3 12 6 9 7 -8 84 68 84
82 0 6 5 10 11 10 14 0 69 55 69 69 0 6 5 11 11 11 10 0 39 24 39 33 0 3 51
56 113 118 61 62 111 117 109 121 -1 4 3 8 9 8 14 0 39 25 39 39 0 6 4 11 9
11 5 0 13 10 16 21 6 17 9 19 16 8 6 -10 9 -8 9 9 0 13 4 20 10 17 6 -4 10 6
11 22 0 25 1 26 9 8 8 -19 9 -19 9 3 1 13 7 22 16 22 9 0 15 10 16 28 l1 27 8
-25 c7 -23 8 -22 10 10 1 29 3 32 10 15 8 -18 9 -18 9 5 1 20 3 22 11 10 8
-12 10 -11 10 6 0 12 -6 22 -12 21 -36 -1 -59 4 -54 12 4 5 0 12 -6 14 -8 4
-7 6 4 6 9 1 20 -3 23 -9 9 -14 34 -12 50 3 20 20 2 40 -40 43 -20 2 -50 10
-67 18 -17 9 -34 14 -38 11 -4 -2 -33 2 -63 10 -31 8 -63 12 -71 9 -8 -3 -25
0 -38 7 -13 7 -34 14 -48 15 -14 1 -48 16 -76 33 -28 17 -66 33 -85 35 -19 2
-37 4 -41 5 -5 0 -8 7 -8 14 0 7 -9 18 -20 25 -12 7 -18 17 -15 22 6 10 148 6
176 -5 10 -3 20 -2 24 4 3 6 11 11 16 11 6 0 8 -3 5 -8 -2 -4 17 -7 42 -7 47
-1 192 -12 247 -19 17 -3 59 -7 95 -11 36 -3 79 -8 95 -10 88 -12 239 -16 225
-6 -12 9 -11 11 8 11 13 0 20 -4 17 -10 -3 -5 -3 -10 1 -10 11 0 204 124 204
131 0 13 -88 36 -165 43 -27 3 -50 6 -50 7 0 1 -11 3 -25 4 -14 1 -41 5 -60 8
-78 14 -277 39 -307 39 -18 0 -33 3 -33 8 0 4 -18 5 -40 3 -23 -2 -40 0 -40 6
0 6 -17 11 -37 11 -92 1 -180 7 -191 14 -7 4 -12 14 -12 22 0 23 -20 16 -30
-11 -8 -21 -13 -23 -37 -15 -52 16 -103 19 -103 7 0 -9 -2 -9 -8 -1 -4 6 -40
14 -81 18 -42 4 -80 14 -88 22 -8 8 -20 14 -26 14 -7 0 -4 -7 6 -14 16 -13 15
-14 -17 -13 -20 1 -36 5 -36 9 0 4 5 8 12 8 6 0 9 3 5 6 -3 3 -21 0 -40 -7
-31 -11 -37 -10 -52 5 -13 12 -21 14 -30 6 -9 -8 -14 -8 -17 0 -1 5 -33 11
-71 13 -52 1 -67 5 -67 17 0 13 -2 13 -9 1 -13 -20 -74 -16 -108 6 -26 17 -27
17 -20 0 7 -20 -3 -23 -21 -5 -17 17 -15 28 4 28 8 0 12 5 9 10 -3 6 0 10 8
10 7 0 14 7 14 15 0 11 -4 12 -14 3 -7 -6 -16 -8 -20 -4 -3 3 -1 6 7 6 10 0
10 3 1 14 -10 12 -8 13 11 9 22 -6 22 -5 6 13 -14 16 -14 21 -2 32 16 14 74
16 74 2 0 -5 7 -10 16 -10 8 0 12 5 9 10 -3 6 3 10 13 10 11 0 22 6 25 13 3 9
16 12 37 9 21 -3 30 -9 26 -18 -4 -10 2 -14 19 -14 14 0 25 5 25 10 0 6 5 10
11 10 5 0 7 -4 4 -10 -3 -5 -2 -10 4 -10 5 0 12 8 15 18 5 14 17 19 56 19 28
1 48 -2 45 -7 -5 -8 66 -4 97 6 10 3 18 1 18 -5 0 -5 -8 -12 -17 -14 -17 -4
30 -11 50 -8 39 7 108 8 87 2 -22 -7 -19 -9 25 -16 43 -7 46 -10 25 -16 -22
-6 -20 -7 13 -8 23 -1 36 3 32 9 -3 6 3 10 14 10 12 0 21 6 21 13 0 8 3 9 8 1
4 -6 14 -13 22 -16 10 -3 15 -18 15 -43 0 -52 21 -56 30 -6 4 22 12 44 19 50
12 10 76 11 76 1 0 -3 65 -6 144 -6 80 -1 191 -7 248 -13 57 -6 126 -13 153
-15 157 -15 272 -27 285 -31 8 -2 42 -6 75 -10 79 -7 164 -18 270 -35 104 -17
115 -14 244 58 l120 68 -47 13 c-58 16 -165 33 -402 65 -14 1 -27 4 -30 5 -3
1 -34 4 -70 7 -36 2 -86 9 -111 14 -25 5 -72 12 -105 15 -81 8 -119 13 -119
15 0 1 -13 3 -30 5 -16 2 -59 8 -94 13 -34 5 -78 9 -97 8 -19 -1 -34 2 -34 7
0 4 -29 7 -63 7 -67 0 -221 17 -247 27 -8 3 -48 7 -89 8 -55 1 -75 5 -77 16
-1 8 -6 25 -12 39 -9 24 -10 23 -16 -17 l-8 -42 -72 6 c-49 4 -76 2 -80 -6 -4
-6 -13 -11 -19 -11 -7 0 -6 4 3 10 12 8 9 10 -12 10 -20 0 -26 4 -22 15 5 11
2 13 -12 8 -13 -5 -16 -3 -11 10 7 20 3 21 -24 7 -16 -9 -19 -7 -19 10 0 11
-5 20 -11 20 -5 0 -7 -5 -4 -10 3 -6 -2 -13 -11 -17 -10 -4 -19 -2 -22 5 -2 6
-10 8 -18 5 -17 -6 -19 13 -1 21 6 3 3 5 -8 5 -34 -2 -41 1 -25 11 12 8 11 10
-7 10 -13 0 -23 -4 -23 -8 0 -4 -16 -6 -36 -4 -51 6 -34 15 38 19 68 5 78 13
77 58 -1 17 -3 23 -6 14 -2 -10 -13 -19 -25 -22 -15 -4 -19 -2 -15 12 3 15 -2
18 -32 19 -26 1 -32 -1 -21 -8 13 -8 12 -10 -3 -10 -10 0 -25 7 -34 15 -8 8
-19 13 -24 10 -5 -4 -9 2 -9 12 -1 17 -1 17 -11 -1 -7 -11 -14 -14 -18 -8 -7
12 -93 23 -216 27 -44 2 -80 4 -80 5 0 4 -91 10 -160 11 -84 1 -112 8 -79 20
19 7 60 6 274 -5z m-1270 -7 c0 -5 -31 -9 -69 -9 -38 0 -76 -3 -85 -6 -9 -3
-16 -1 -16 4 0 10 36 14 138 18 17 1 32 -3 32 -7z m-182 -4 c-8 -8 -78 -14
-78 -6 0 4 19 7 41 8 23 1 39 0 37 -2z m-421 -11 c-3 -3 -12 -4 -19 -1 -8 3
-5 6 6 6 11 1 17 -2 13 -5z m80 0 c-3 -3 -12 -4 -19 -1 -8 3 -5 6 6 6 11 1 17
-2 13 -5z m143 2 c0 -2 -7 -7 -16 -10 -8 -3 -12 -2 -9 4 6 10 25 14 25 6z m50
0 c0 -11 -19 -15 -25 -6 -3 5 1 10 9 10 9 0 16 -2 16 -4z m37 -2 c-3 -3 -12
-4 -19 -1 -8 3 -5 6 6 6 11 1 17 -2 13 -5z m450 -70 c-3 -3 -12 -4 -19 -1 -8
3 -5 6 6 6 11 1 17 -2 13 -5z m-537 -24 c0 -5 -2 -10 -4 -10 -3 0 -8 5 -11 10
-3 6 -1 10 4 10 6 0 11 -4 11 -10z m1915 -8 c-3 -3 -11 0 -18 7 -9 10 -8 11 6
5 10 -3 15 -9 12 -12z m185 8 c0 -5 -4 -10 -10 -10 -5 0 -10 5 -10 10 0 6 5
10 10 10 6 0 10 -4 10 -10z m-1727 -7 c-7 -2 -21 -2 -30 0 -10 3 -4 5 12 5 17
0 24 -2 18 -5z m1647 -3 c0 -5 -2 -10 -4 -10 -3 0 -8 5 -11 10 -3 6 -1 10 4
10 6 0 11 -4 11 -10z m-1272 -5 c-7 -7 -229 -8 -236 -1 -3 3 50 6 118 6 68 0
121 -2 118 -5z m-701 -11 c-3 -3 -12 -4 -19 -1 -8 3 -5 6 6 6 11 1 17 -2 13
-5z m260 -9 c0 -11 -4 -12 -14 -4 -7 6 -13 13 -13 15 0 2 6 4 13 4 8 0 14 -7
14 -15z m-154 -2 c-7 -2 -19 -2 -25 0 -7 3 -2 5 12 5 14 0 19 -2 13 -5z m724
-8 c0 -8 -4 -15 -9 -15 -4 0 -8 7 -8 15 0 8 4 15 8 15 5 0 9 -7 9 -15z m-820
-1 c-3 -3 -12 -4 -19 -1 -8 3 -5 6 6 6 11 1 17 -2 13 -5z m220 -10 c-3 -3 -12
-4 -19 -1 -8 3 -5 6 6 6 11 1 17 -2 13 -5z m69 -15 c19 -22 19 -22 -3 -10 -13
6 -23 16 -23 21 0 15 5 12 26 -11z m354 -9 c0 -5 -2 -10 -4 -10 -3 0 -8 5 -11
10 -3 6 -1 10 4 10 6 0 11 -4 11 -10z m-133 -6 c-3 -3 -12 -4 -19 -1 -8 3 -5
6 6 6 11 1 17 -2 13 -5z m-330 -10 c-3 -3 -12 -4 -19 -1 -8 3 -5 6 6 6 11 1
17 -2 13 -5z m79 -9 c-8 -8 -30 -14 -48 -13 l-33 1 33 4 c17 2 32 8 32 14 0 5
7 9 16 9 14 0 14 -2 0 -15z m757 8 c-7 -2 -19 -2 -25 0 -7 3 -2 5 12 5 14 0
19 -2 13 -5z m-1366 -99 c-3 -3 -12 -4 -19 -1 -8 3 -5 6 6 6 11 1 17 -2 13 -5z
m2210 -110 c-3 -3 -12 -4 -19 -1 -8 3 -5 6 6 6 11 1 17 -2 13 -5z m-2040 -10
c-3 -3 -12 -4 -19 -1 -8 3 -5 6 6 6 11 1 17 -2 13 -5z m1423 2 c0 -3 -4 -8
-10 -11 -5 -3 -10 -1 -10 4 0 6 5 11 10 11 6 0 10 -2 10 -4z m50 0 c0 -11 -19
-15 -25 -6 -3 5 1 10 9 10 9 0 16 -2 16 -4z m180 -6 c12 -8 10 -10 -8 -10 -13
0 -30 -7 -38 -15 -14 -13 -12 -15 13 -16 17 -1 21 -3 11 -6 -10 -2 -18 -9 -18
-15 0 -5 7 -8 15 -4 10 4 15 -1 15 -15 0 -15 -5 -19 -15 -15 -8 3 -15 3 -15 0
0 -8 24 -30 40 -37 10 -3 6 -6 -9 -6 -13 -1 -39 -10 -57 -22 -29 -17 -34 -18
-34 -5 0 9 6 16 14 16 7 0 19 7 26 15 15 17 7 19 -21 5 -11 -6 -19 -7 -19 -1
0 5 7 12 16 15 9 4 15 9 12 11 -10 10 -38 -7 -38 -24 -1 -14 -2 -14 -14 2 -7
9 -19 17 -27 16 -10 0 -11 -2 -1 -6 6 -2 12 -9 12 -14 0 -6 -8 -5 -20 1 -29
16 -24 28 13 33 24 3 21 4 -15 5 -27 1 -48 -2 -48 -8 0 -5 -9 -10 -20 -10 -11
0 -20 5 -20 11 0 7 -17 10 -45 7 -25 -2 -45 0 -45 4 0 5 5 8 10 8 6 0 10 6 10
14 0 9 14 15 40 18 38 3 55 -5 28 -14 -9 -3 -8 -9 4 -21 22 -22 31 -21 23 2
-4 14 0 23 15 31 13 7 20 7 20 0 0 -5 7 -10 16 -10 8 0 12 -4 9 -10 -10 -16
75 -12 91 5 18 18 2 20 -27 5 -15 -8 -19 -8 -17 2 2 8 -4 12 -14 10 -10 -2
-18 3 -18 11 0 16 31 18 42 2 7 -9 58 12 56 24 -2 23 24 29 52 11z m160 -10
c0 -5 -14 -8 -30 -7 -44 5 -49 17 -7 17 21 0 37 -4 37 -10z m-613 -6 c-3 -3
-12 -4 -19 -1 -8 3 -5 6 6 6 11 1 17 -2 13 -5z m160 0 c-3 -3 -12 -4 -19 -1
-8 3 -5 6 6 6 11 1 17 -2 13 -5z m33 -4 c0 -5 -4 -10 -10 -10 -5 0 -10 5 -10
10 0 6 5 10 10 10 6 0 10 -4 10 -10z m1030 6 c0 -2 -8 -10 -17 -17 -16 -13
-17 -12 -4 4 13 16 21 21 21 13z m-1290 -27 c0 -5 7 -9 15 -9 8 0 15 5 15 11
0 7 7 8 18 4 9 -4 22 -8 29 -9 38 -6 15 -14 -44 -15 -47 0 -63 2 -53 9 11 7 1
10 -35 9 -37 0 -45 -3 -30 -9 19 -8 19 -9 -1 -9 -12 -1 -24 6 -27 13 -5 11 4
16 36 18 50 4 77 -1 77 -13z m-202 6 c-8 -8 -77 -9 -85 -2 -3 4 15 7 42 7 27
0 46 -2 43 -5z m49 -1 c-3 -3 -12 -4 -19 -1 -8 3 -5 6 6 6 11 1 17 -2 13 -5z
m-310 -10 c-3 -3 -12 -4 -19 -1 -8 3 -5 6 6 6 11 1 17 -2 13 -5z m158 -3 c3
-5 0 -13 -6 -17 -7 -4 -9 -3 -5 4 3 5 0 13 -6 15 -9 4 -10 6 -1 6 6 1 14 -3
18 -8z m475 -17 c0 -10 -6 -11 -24 -4 -20 7 -26 6 -29 -8 -4 -13 -5 -11 -6 5
0 12 5 23 12 26 20 6 47 -4 47 -19z m-960 -6 c0 -6 7 -8 15 -4 8 3 15 1 15 -4
0 -15 -29 -12 -46 4 -18 19 -18 27 1 20 8 -4 15 -11 15 -16z m87 16 c-3 -3
-12 -4 -19 -1 -8 3 -5 6 6 6 11 1 17 -2 13 -5z m477 -28 c-2 -26 2 -36 14 -39
12 -3 11 -5 -4 -6 -12 0 -24 6 -28 14 -3 8 -1 15 5 15 6 0 8 7 5 16 -5 14 0
34 8 34 2 0 2 -15 0 -34z m69 27 c-7 -2 -21 -2 -30 0 -10 3 -4 5 12 5 17 0 24
-2 18 -5z m-726 -9 c-3 -3 -12 -4 -19 -1 -8 3 -5 6 6 6 11 1 17 -2 13 -5z
m446 -1 c-7 -2 -19 -2 -25 0 -7 3 -2 5 12 5 14 0 19 -2 13 -5z m-398 -13 c3
-6 -4 -10 -17 -10 -18 0 -20 2 -8 10 19 12 18 12 25 0z m711 -7 c16 3 22 1 16
-5 -13 -13 -102 -20 -102 -8 0 5 9 10 21 10 13 0 18 4 13 13 -5 8 -3 8 9 -2 9
-7 29 -11 43 -8z m81 5 c5 13 23 17 23 5 -1 -24 -18 -35 -39 -24 -18 10 -21 9
-21 -9 0 -16 -6 -20 -32 -19 l-33 1 28 10 c15 5 27 16 27 23 0 18 23 25 33 11
6 -8 10 -7 14 2z m100 5 c-9 -2 -15 -9 -12 -14 4 -5 1 -9 -4 -9 -6 0 -11 5
-11 11 0 5 -4 7 -10 4 -5 -3 -10 -1 -10 4 0 6 15 10 33 10 17 -1 24 -3 14 -6z
m-870 -25 c-3 -8 -6 -5 -6 6 -1 11 2 17 5 13 3 -3 4 -12 1 -19z m970 -7 c7 7
12 5 16 -5 5 -13 -1 -16 -33 -16 -22 0 -40 4 -40 8 0 16 13 21 30 12 11 -6 21
-5 27 1z m63 -3 c0 -9 3 -9 12 0 16 16 25 15 32 -3 4 -12 -3 -15 -29 -15 -24
0 -35 5 -35 15 0 8 5 15 10 15 6 0 10 -5 10 -12z m114 -3 c4 -11 -2 -15 -22
-14 -17 1 -20 3 -9 6 9 2 17 9 17 14 0 14 7 11 14 -6z m-244 -5 c0 -5 -8 -10
-17 -10 -15 0 -16 2 -3 10 19 12 20 12 20 0z m-243 -6 c-3 -3 -12 -4 -19 -1
-8 3 -5 6 6 6 11 1 17 -2 13 -5z m360 -20 c-3 -3 -12 -4 -19 -1 -8 3 -5 6 6 6
11 1 17 -2 13 -5z m76 -1 c-7 -2 -19 -2 -25 0 -7 3 -2 5 12 5 14 0 19 -2 13
-5z m77 -3 c0 -5 -5 -10 -11 -10 -5 0 -7 5 -4 10 3 6 8 10 11 10 2 0 4 -4 4
-10z m178 -7 c-10 -2 -26 -2 -35 0 -10 3 -2 5 17 5 19 0 27 -2 18 -5z m675
-110 c-7 -2 -19 -2 -25 0 -7 3 -2 5 12 5 14 0 19 -2 13 -5z m87 -7 c0 -3 -4
-8 -10 -11 -5 -3 -10 -1 -10 4 0 6 5 11 10 11 6 0 10 -2 10 -4z m-2582 -263
c-10 -2 -26 -2 -35 0 -10 3 -2 5 17 5 19 0 27 -2 18 -5z m645 -30 c-7 -2 -19
-2 -25 0 -7 3 -2 5 12 5 14 0 19 -2 13 -5z m76 -7 c-2 -2 -20 -6 -39 -10 -25
-4 -31 -3 -20 4 14 9 69 15 59 6z m-126 -13 c-7 -2 -21 -2 -30 0 -10 3 -4 5
12 5 17 0 24 -2 18 -5z m1690 -40 c-7 -2 -19 -2 -25 0 -7 3 -2 5 12 5 14 0 19
-2 13 -5z m204 -9 c-3 -3 -12 -4 -19 -1 -8 3 -5 6 6 6 11 1 17 -2 13 -5z
m-2677 -14 c-20 -13 -53 -13 -45 0 3 6 18 10 33 10 21 0 24 -2 12 -10z m2623
3 c-7 -2 -21 -2 -30 0 -10 3 -4 5 12 5 17 0 24 -2 18 -5z m-2578 -13 c-28 -12
-37 -12 -30 0 3 6 16 10 28 9 21 0 21 -1 2 -9z m2662 4 c-3 -3 -12 -4 -19 -1
-8 3 -5 6 6 6 11 1 17 -2 13 -5z m119 -22 c-10 -2 -22 0 -28 6 -6 6 0 7 19 4
21 -5 23 -7 9 -10z m67 11 c-7 -2 -21 -2 -30 0 -10 3 -4 5 12 5 17 0 24 -2 18
-5z m-3026 -9 c-3 -3 -12 -4 -19 -1 -8 3 -5 6 6 6 11 1 17 -2 13 -5z m63 -4
c-8 -5 -24 -10 -35 -10 -27 0 -3 15 27 17 18 2 20 0 8 -7z m3095 0 c3 -6 -5
-10 -19 -10 -14 0 -28 5 -31 10 -3 6 5 10 19 10 14 0 28 -4 31 -10z m-88 -6
c-3 -3 -12 -4 -19 -1 -8 3 -5 6 6 6 11 1 17 -2 13 -5z m-3128 -20 c10 -9 -45
-3 -59 6 -11 7 -5 8 20 4 19 -4 37 -8 39 -10z m-164 -3 c-6 -5 -21 -12 -35
-15 -24 -7 -24 -6 -6 8 21 17 57 23 41 7z m79 -12 c-28 -11 -70 -11 -58 0 11
11 55 19 68 12 5 -2 1 -8 -10 -12z m3356 11 c0 -6 -11 -8 -27 -4 -40 10 -41
14 -5 14 18 0 32 -5 32 -10z m53 3 c-7 -2 -19 -2 -25 0 -7 3 -2 5 12 5 14 0
19 -2 13 -5z m82 -23 c-3 -5 -14 -10 -23 -10 -15 0 -15 2 -2 10 20 13 33 13
25 0z m-3700 -10 c-28 -12 -37 -12 -30 0 3 6 16 10 28 9 21 0 21 -1 2 -9z m68
-7 c-7 -2 -21 -2 -30 0 -10 3 -4 5 12 5 17 0 24 -2 18 -5z m-108 -23 c-3 -5
-21 -10 -38 -9 -27 0 -29 2 -12 9 28 12 57 12 50 0z m-110 -20 c-3 -5 -13 -10
-21 -10 -8 0 -12 5 -9 10 3 6 13 10 21 10 8 0 12 -4 9 -10z m3712 -142 c-3 -8
-6 -5 -6 6 -1 11 2 17 5 13 3 -3 4 -12 1 -19z m-3747 -224 c0 -8 -19 -13 -24
-6 -3 5 1 9 9 9 8 0 15 -2 15 -3z m2658 -754 c44 -27 40 -32 -8 -9 -38 18 -50
29 -32 29 4 0 22 -9 40 -20z m-1843 -80 c-3 -5 -12 -10 -18 -10 -7 0 -6 4 3
10 19 12 23 12 15 0z m871 -253 c4 -4 2 -7 -4 -7 -7 0 -12 -8 -12 -17 0 -15
-2 -16 -10 -3 -8 13 -10 12 -10 -3 0 -10 -5 -15 -10 -12 -6 4 -16 2 -23 -3 -7
-6 -34 -13 -60 -17 -26 -4 -54 -14 -62 -21 -10 -11 -15 -11 -18 -1 -4 8 -6 7
-6 -4 -1 -12 -13 -15 -60 -15 -46 1 -57 -2 -53 -13 3 -9 1 -12 -6 -7 -6 3 -13
2 -17 -3 -3 -5 -14 -8 -25 -6 -11 2 -20 0 -20 -5 0 -4 -9 -6 -20 -3 -11 3 -20
0 -20 -6 0 -6 -7 -11 -15 -11 -8 0 -15 -7 -15 -15 0 -10 -9 -14 -25 -13 -14 1
-25 6 -25 9 0 4 -2 14 -6 22 -7 19 81 57 132 57 25 0 42 7 55 21 14 16 25 19
48 14 21 -4 31 -3 31 5 0 7 8 10 20 7 11 -3 18 -2 15 3 -3 4 4 10 15 13 11 3
22 6 25 7 87 34 163 45 181 27z m-645 -193 c-16 -12 -19 -19 -11 -24 7 -5 2
-9 -14 -12 -14 -3 -26 -2 -26 3 0 9 -66 5 -100 -6 -33 -10 -23 9 13 25 41 17
83 27 127 29 l34 1 -23 -16z m-1291 -154 c0 -5 -10 -10 -22 -10 -13 0 -38 -9
-56 -20 -19 -12 -30 -16 -27 -10 20 32 105 64 105 40z m4017 -112 c-3 -8 -6
-5 -6 6 -1 11 2 17 5 13 3 -3 4 -12 1 -19z m63 7 c27 -15 20 -19 -17 -9 -13 4
-23 10 -23 15 0 12 11 11 40 -6z m-2150 -160 c0 -16 -35 -21 -44 -6 -8 12 4
21 26 21 10 0 18 -7 18 -15z m-182 -50 c-18 -21 -48 -34 -48 -21 0 2 -3 12 -6
20 -5 12 -2 15 10 10 9 -4 16 -1 16 6 0 7 7 10 15 6 8 -3 15 -1 15 5 0 6 4 8
10 4 5 -3 0 -17 -12 -30z m-2306 -75 c-41 -25 -54 -25 -23 0 13 11 31 20 40
20 9 0 3 -8 -17 -20z m1585 -57 c2 -6 -5 -13 -17 -16 -15 -4 -20 0 -20 13 0
19 31 22 37 3z m3583 -8 c39 -29 36 -31 -14 -10 -20 9 -34 20 -31 25 8 13 6
14 45 -15z m-3300 -264 c0 -20 2 -23 10 -11 7 12 10 8 10 -15 0 -23 -3 -27
-10 -15 -7 12 -10 8 -11 -15 0 -22 -2 -25 -7 -12 -7 16 -8 16 -21 -2 -11 -16
-19 -17 -40 -10 -25 9 -25 8 -7 -6 11 -8 15 -15 8 -15 -6 0 -9 -8 -6 -17 5
-16 4 -16 -6 -3 -9 11 -13 12 -17 3 -2 -7 -14 -13 -26 -14 -17 0 -13 -5 18
-20 26 -13 31 -19 15 -15 -24 5 -25 5 -5 -11 19 -15 19 -15 -7 -9 -22 5 -27 3
-25 -12 1 -20 37 -62 37 -44 0 7 4 12 9 12 6 0 9 -9 8 -20 -1 -11 -5 -20 -9
-20 -16 0 -8 -29 10 -33 9 -3 1 -4 -19 -2 -36 3 -96 -25 -82 -38 3 -4 1 -7 -5
-7 -7 0 -12 6 -12 13 0 7 -15 18 -33 25 -47 17 -53 15 -32 -8 11 -13 25 -18
37 -14 10 3 18 0 18 -6 0 -8 -9 -10 -27 -6 -16 4 -34 7 -40 8 -7 1 -13 5 -13
9 0 5 -7 6 -16 2 -11 -4 -12 -8 -4 -13 7 -5 0 -7 -16 -6 -16 1 -34 5 -41 9 -6
4 -14 1 -16 -5 -3 -7 -6 -1 -6 13 -1 15 -7 29 -15 32 -37 15 -18 77 24 77 14
0 18 5 13 18 -4 9 -10 19 -14 22 -11 8 1 51 12 44 16 -9 10 6 -11 28 l-20 22
37 18 c21 9 34 17 30 18 -5 0 -1 7 7 16 9 8 14 19 12 22 -4 7 42 13 107 16 15
0 27 5 27 9 0 5 4 6 9 3 5 -4 32 -1 60 5 38 8 55 7 73 -2 21 -11 22 -11 9 5
-12 14 -12 16 3 10 9 -3 16 -17 16 -33z m-390 -65 c0 -3 -4 -8 -10 -11 -5 -3
-10 -1 -10 4 0 6 5 11 10 11 6 0 10 -2 10 -4z m4160 -11 c-7 -8 -17 -15 -22
-15 -11 0 14 29 26 30 5 0 3 -7 -4 -15z m50 -35 l25 -21 -30 13 c-38 15 -54
28 -34 28 7 0 25 -9 39 -20z m-4245 -37 l2 -38 -14 33 c-7 18 -11 38 -7 43 10
16 17 2 19 -38z m-3114 -268 c18 -36 36 -68 41 -71 4 -3 8 -17 8 -32 -1 -26
-1 -26 -16 -7 -8 11 -12 25 -10 31 3 7 -4 20 -15 30 -10 9 -19 27 -19 40 0 13
-9 28 -20 34 -11 6 -20 17 -20 25 0 32 20 12 51 -50z m8660 -22 c-9 -16 -10
-16 -11 -1 0 9 3 25 7 35 7 16 8 17 11 1 2 -10 -1 -25 -7 -35z m-8015 14 c-5
9 -2 11 8 7 22 -8 8 -36 -15 -29 -10 3 -29 1 -41 -6 -22 -11 -22 -11 2 13 19
18 28 22 39 14 11 -8 13 -8 7 1z m7980 -96 c-9 -10 -16 -27 -16 -38 0 -11 -7
-26 -15 -33 -12 -10 -13 -7 -6 17 5 16 13 38 19 49 6 10 14 28 18 39 7 19 7
19 11 2 3 -10 -2 -26 -11 -36z m-716 -1 c0 -5 -7 -7 -15 -4 -8 4 -15 8 -15 10
0 2 7 4 15 4 8 0 15 -4 15 -10z m47 -7 c10 -10 14 -15 9 -10 -6 4 -18 7 -28 7
-10 0 -18 5 -18 10 0 15 16 12 37 -7z m-7873 -82 c-9 -10 -36 28 -29 39 6 9
12 6 21 -11 7 -13 10 -26 8 -28z m21 -60 c-10 -9 -24 21 -17 37 4 12 7 10 14
-8 5 -13 6 -25 3 -29z m8461 3 c-16 -30 -21 -17 -10 24 4 15 10 20 16 14 6 -6
4 -20 -6 -38z m-26 -48 c0 -23 -11 -46 -20 -41 -10 6 0 55 11 55 5 0 9 -6 9
-14z m-37 -60 c3 -8 -3 -26 -14 -40 -11 -13 -18 -28 -17 -33 4 -17 -14 -53
-28 -53 -8 0 -14 5 -14 11 0 5 -13 15 -30 20 -16 6 -30 15 -30 20 0 11 30 0
53 -19 9 -8 18 -13 20 -11 11 17 47 98 47 108 0 15 7 14 13 -3z"/>
<path d="M6483 6531 c0 -26 2 -27 15 -14 13 13 13 16 0 29 -13 13 -15 11 -15
-15z"/>
<path d="M6797 6511 c-4 -17 -3 -21 5 -13 5 5 8 16 6 23 -3 8 -7 3 -11 -10z"/>
<path d="M6580 6453 c8 -3 19 -11 23 -17 6 -7 7 -6 4 4 -2 8 -12 16 -23 17
-13 2 -15 1 -4 -4z"/>
<path d="M6617 6409 c7 -7 15 -10 18 -7 3 3 -2 9 -12 12 -14 6 -15 5 -6 -5z"/>
<path d="M6658 6403 c6 -2 18 -2 25 0 6 3 1 5 -13 5 -14 0 -19 -2 -12 -5z"/>
<path d="M6120 6180 c0 -5 9 -10 20 -10 11 0 20 5 20 10 0 6 -9 10 -20 10 -11
0 -20 -4 -20 -10z"/>
<path d="M6208 6133 c6 -2 18 -2 25 0 6 3 1 5 -13 5 -14 0 -19 -2 -12 -5z"/>
<path d="M6058 6123 c7 -3 16 -2 19 1 4 3 -2 6 -13 5 -11 0 -14 -3 -6 -6z"/>
<path d="M6030 6106 c0 -2 7 -7 16 -10 8 -3 12 -2 9 4 -6 10 -25 14 -25 6z"/>
<path d="M6028 6033 c12 -2 30 -2 40 0 9 3 -1 5 -23 4 -22 0 -30 -2 -17 -4z"/>
<path d="M6320 6000 c-13 -8 -12 -10 3 -10 9 0 17 5 17 10 0 12 -1 12 -20 0z"/>
<path d="M7220 5470 c-8 -5 -12 -12 -9 -15 4 -3 12 1 19 10 14 17 11 19 -10 5z"/>
<path d="M5575 6140 c-3 -5 3 -10 15 -10 12 0 18 5 15 10 -3 6 -10 10 -15 10
-5 0 -12 -4 -15 -10z"/>
<path d="M4052 2694 c-10 -11 -10 -14 0 -14 7 0 19 4 26 9 11 7 11 9 0 13 -7
3 -19 -1 -26 -8z"/>
<path d="M4158 2613 c7 -3 16 -2 19 1 4 3 -2 6 -13 5 -11 0 -14 -3 -6 -6z"/>
<path d="M3223 6436 c3 -9 20 -11 57 -7 6 1 10 5 10 9 0 4 -16 8 -35 8 -20 0
-34 -5 -32 -10z"/>
<path d="M2880 6430 c0 -6 7 -10 15 -10 8 0 15 2 15 4 0 2 -7 6 -15 10 -8 3
-15 1 -15 -4z"/>
<path d="M9651 6164 c0 -11 3 -14 6 -6 3 7 2 16 -1 19 -3 4 -6 -2 -5 -13z"/>
<path d="M4365 6110 l-40 -7 48 -2 c26 0 47 4 47 9 0 6 -3 9 -7 9 -5 -1 -26
-5 -48 -9z"/>
<path d="M9662 6100 c0 -14 2 -19 5 -12 2 6 2 18 0 25 -3 6 -5 1 -5 -13z"/>
<path d="M4215 6100 c-3 -5 -1 -10 4 -10 6 0 11 5 11 10 0 6 -2 10 -4 10 -3 0
-8 -4 -11 -10z"/>
<path d="M3970 6045 c0 -8 5 -15 10 -15 6 0 10 7 10 15 0 8 -4 15 -10 15 -5 0
-10 -7 -10 -15z"/>
<path d="M4368 6043 c7 -3 16 -2 19 1 4 3 -2 6 -13 5 -11 0 -14 -3 -6 -6z"/>
<path d="M4120 6021 c-22 -6 -23 -8 -7 -14 11 -4 24 -1 33 8 17 16 13 17 -26
6z"/>
<path d="M4066 6013 c5 -5 12 -12 16 -18 4 -6 8 -2 8 8 0 9 -7 17 -17 17 -9 0
-12 -3 -7 -7z"/>
<path d="M3123 5443 c-7 -2 -13 -11 -13 -19 0 -18 34 -18 49 -1 17 22 -4 34
-36 20z"/>
<path d="M2995 5401 c-3 -5 -1 -12 5 -16 12 -7 30 2 30 16 0 12 -27 12 -35 0z"/>
<path d="M2910 5374 c0 -9 5 -14 12 -12 18 6 21 28 4 28 -9 0 -16 -7 -16 -16z"/>
<path d="M4983 4243 c9 -2 23 -2 30 0 6 3 -1 5 -18 5 -16 0 -22 -2 -12 -5z"/>
<path d="M3545 4080 c3 -5 8 -10 11 -10 2 0 4 5 4 10 0 6 -5 10 -11 10 -5 0
-7 -4 -4 -10z"/>
<path d="M581 1744 c0 -11 3 -14 6 -6 3 7 2 16 -1 19 -3 4 -6 -2 -5 -13z"/>
<path d="M9441 1593 c-10 -26 -10 -27 4 -9 8 11 15 23 15 28 0 15 -7 8 -19
-19z"/>
</g>
</svg>
