<?xml version="1.0" standalone="no"?>
<!DOCTYPE svg PUBLIC "-//W3C//DTD SVG 20010904//EN"
 "http://www.w3.org/TR/2001/REC-SVG-20010904/DTD/svg10.dtd">
<svg version="1.0" xmlns="http://www.w3.org/2000/svg"
 width="1317.000000pt" height="1073.000000pt" viewBox="0 0 1317.000000 1073.000000"
 preserveAspectRatio="xMidYMid meet">

<g transform="translate(0.000000,1073.000000) scale(0.100000,-0.100000)"
fill="#000000" stroke="none">
<path d="M4950 8456 c-3 -2 -67 -9 -143 -15 -134 -10 -188 -24 -170 -42 12
-12 86 -13 173 -2 79 10 1565 8 1785 -3 266 -13 663 -19 673 -10 20 21 -264
48 -638 61 -211 7 -1674 17 -1680 11z"/>
<path d="M7302 8394 c4 -3 17 -7 30 -9 12 -2 43 -9 68 -14 32 -7 55 -7 80 2
l35 11 -50 7 c-63 9 -170 11 -163 3z"/>
<path d="M7620 8370 c0 -11 39 -20 56 -13 8 3 12 9 9 13 -6 11 -65 10 -65 0z"/>
<path d="M4660 8354 c-28 -12 -112 -17 -405 -25 -203 -5 -386 -14 -405 -19
-19 -6 -60 -10 -90 -10 -30 0 -82 -4 -115 -9 -33 -5 -107 -14 -165 -21 -58 -6
-172 -24 -253 -40 -116 -22 -154 -33 -173 -51 -47 -44 -9 -48 149 -15 43 9
110 18 150 21 40 2 98 9 131 14 32 6 111 13 175 17 64 3 144 12 178 20 64 14
449 13 485 -1 49 -19 3 -26 -312 -45 -350 -21 -798 -74 -902 -107 -51 -16 -54
-31 -11 -54 30 -16 38 -15 148 10 113 27 313 56 550 81 55 6 108 13 117 16 9
3 176 7 370 10 194 2 371 6 394 9 116 13 766 24 1174 20 382 -4 478 -8 537
-21 59 -14 83 -15 127 -6 62 13 275 8 656 -13 368 -21 555 -29 640 -27 40 1
92 -4 115 -9 51 -14 73 -16 220 -24 66 -3 147 -10 180 -14 33 -5 66 -5 73 -1
8 4 -33 12 -90 19 -56 6 -119 14 -138 16 -19 2 -118 11 -220 20 -102 8 -192
17 -200 20 -8 2 -76 9 -150 15 -74 7 -151 13 -170 15 -19 3 -129 9 -245 15
-280 14 -351 26 -289 51 52 20 183 22 300 5 130 -20 181 -23 454 -32 113 -3
246 -12 295 -19 50 -8 133 -17 185 -20 52 -4 133 -11 180 -16 47 -5 123 -9
170 -9 47 0 119 -5 160 -11 41 -5 136 -14 210 -18 74 -5 146 -12 160 -16 14
-3 79 -10 145 -15 66 -5 165 -16 219 -24 55 -9 123 -16 151 -16 28 0 96 -7
151 -15 54 -8 137 -15 184 -16 47 0 110 -4 140 -9 30 -5 87 -12 125 -15 39 -4
98 -13 133 -22 34 -9 65 -13 68 -10 12 12 -46 38 -93 42 -26 2 -73 11 -103 18
-66 17 -193 37 -310 47 -47 5 -136 16 -199 24 -63 9 -138 16 -165 16 -28 0
-78 7 -112 15 -33 8 -114 17 -180 20 -65 4 -136 11 -157 17 -21 5 -93 13 -160
18 -67 5 -178 14 -247 20 -294 25 -371 31 -480 41 -63 5 -169 16 -235 24 -66
7 -208 19 -315 25 -107 6 -247 16 -310 21 -134 13 -417 29 -575 33 -60 2 -247
7 -415 11 -168 5 -584 9 -925 10 -341 1 -627 4 -635 8 -8 3 -31 -1 -50 -9z
m364 -99 c36 -8 28 -16 -20 -22 -51 -5 -70 2 -54 22 7 9 20 14 29 11 9 -2 29
-7 45 -11z m305 6 c18 -12 4 -19 -44 -21 -60 -3 -70 -1 -59 9 8 8 23 12 79 19
6 1 16 -2 24 -7z m1509 -14 c17 -13 15 -34 -4 -41 -24 -9 -185 16 -181 28 9
27 154 38 185 13z m-1023 3 c3 -5 1 -10 -4 -10 -6 0 -11 5 -11 10 0 6 2 10 4
10 3 0 8 -4 11 -10z m633 -6 c64 -8 41 -22 -30 -18 -35 2 -74 4 -88 4 -38 0
-7 16 37 18 21 1 57 -1 81 -4z m152 0 c46 -10 18 -24 -47 -24 -43 0 -51 3 -47
15 7 16 41 19 94 9z m-1905 -14 c-3 -5 -17 -10 -31 -10 -13 0 -24 5 -24 10 0
6 14 10 31 10 17 0 28 -4 24 -10z"/>
<path d="M6425 8111 c-6 -5 -439 -12 -1015 -15 -553 -3 -1036 -8 -1075 -11
-38 -3 -153 -10 -255 -15 -336 -19 -900 -89 -900 -112 0 -4 11 -15 24 -24 23
-14 33 -14 128 1 270 41 641 77 938 90 80 4 215 11 300 17 85 6 420 12 745 14
500 4 602 2 672 -11 63 -12 92 -13 129 -5 54 12 649 2 884 -15 110 -8 228 -15
410 -25 180 -10 418 -27 480 -35 19 -2 71 -7 115 -10 154 -12 522 -45 715 -65
207 -21 283 -29 560 -61 96 -11 216 -24 265 -30 50 -5 162 -18 250 -29 88 -11
169 -20 180 -19 31 1 -121 37 -205 49 -184 25 -332 43 -660 80 -52 6 -135 15
-185 21 -49 6 -130 14 -180 19 -49 5 -155 15 -235 24 -138 15 -424 39 -595 51
-44 3 -120 10 -170 15 -211 22 -883 70 -1078 76 -91 3 -164 11 -189 20 -48 17
-42 16 -53 5z"/>
<path d="M8436 8061 c-3 -4 45 -14 107 -21 61 -6 153 -18 202 -26 50 -8 117
-14 150 -14 33 0 75 -4 93 -9 18 -6 85 -15 150 -21 64 -6 164 -19 222 -30 58
-10 148 -23 200 -29 286 -33 371 -44 432 -57 37 -8 85 -14 108 -14 22 0 57 -7
77 -15 19 -8 58 -15 85 -15 27 0 62 -7 77 -15 16 -8 52 -16 80 -19 28 -3 60
-10 70 -16 27 -14 62 -12 85 5 26 20 13 45 -23 45 -16 0 -51 6 -77 14 -81 23
-250 55 -409 76 -44 6 -87 13 -95 15 -41 11 -509 66 -735 85 -55 5 -165 16
-245 25 -184 20 -464 45 -512 45 -20 0 -39 -4 -42 -9z"/>
<path d="M5430 7969 c-594 -8 -1042 -21 -1295 -40 -256 -18 -399 -30 -475 -39
-41 -5 -115 -14 -165 -20 -49 -6 -107 -13 -129 -17 l-39 -5 32 -20 c29 -19 38
-19 124 -9 95 12 291 33 482 51 118 11 318 24 590 40 153 8 799 25 950 25 228
-1 1252 -18 1269 -21 12 -2 75 -6 141 -10 253 -12 924 -55 1015 -65 128 -14
232 -24 440 -43 96 -9 249 -25 340 -36 91 -11 253 -29 360 -40 107 -11 231
-24 275 -29 354 -44 442 -55 600 -77 99 -14 222 -34 273 -45 70 -14 99 -16
114 -8 11 6 18 12 16 15 -7 7 -427 72 -598 93 -192 24 -636 73 -860 96 -85 8
-216 22 -290 30 -74 8 -241 24 -370 35 -129 12 -302 28 -385 36 -504 49 -1028
83 -1450 94 -181 5 -341 11 -355 13 -14 2 -288 1 -610 -4z"/>
<path d="M10390 7946 c0 -2 9 -6 20 -9 11 -3 18 -1 14 4 -5 9 -34 13 -34 5z"/>
<path d="M4960 7829 c-343 -7 -539 -16 -910 -45 -185 -14 -531 -52 -538 -59
-2 -2 10 -11 27 -19 27 -14 45 -15 138 -6 60 6 158 15 218 20 61 5 162 14 225
20 355 32 1079 58 1684 60 109 0 202 3 206 5 12 8 768 -14 1020 -30 285 -17
494 -32 635 -45 127 -12 313 -22 300 -15 -5 2 -82 11 -170 20 -88 8 -200 20
-250 25 -628 67 -1519 91 -2585 69z"/>
<path d="M5205 7699 c-242 -4 -541 -12 -665 -18 -297 -15 -835 -63 -847 -75
-2 -2 10 -12 27 -23 25 -16 40 -18 83 -12 79 12 357 38 587 54 312 23 629 34
1132 42 368 5 458 9 462 20 3 7 -2 14 -12 15 -34 4 -335 3 -767 -3z"/>
<path d="M8023 7703 c15 -2 37 -2 50 0 12 2 0 4 -28 4 -27 0 -38 -2 -22 -4z"/>
<path d="M10342 7706 c3 -4 12 -9 20 -10 7 -2 25 -6 41 -9 62 -15 77 -17 77
-8 0 5 -6 11 -13 14 -24 9 -132 20 -125 13z"/>
<path d="M8150 7690 c30 -5 80 -8 110 -8 l55 1 -60 7 c-33 4 -82 8 -110 8
l-50 -1 55 -7z"/>
<path d="M8345 7674 c97 -15 457 -54 495 -53 l45 1 -40 8 c-22 4 -119 15 -215
25 -179 17 -339 27 -285 19z"/>
<path d="M7540 7620 c0 -5 15 -11 33 -14 45 -7 269 -27 343 -32 110 -6 625
-54 739 -70 28 -3 35 -2 25 5 -18 11 -158 27 -595 66 -93 9 -249 25 -345 35
-204 23 -200 23 -200 10z"/>
<path d="M9000 7605 c58 -7 170 -21 250 -30 80 -9 206 -25 280 -35 74 -11 154
-21 177 -24 23 -3 79 -12 125 -20 157 -28 221 -35 237 -26 13 8 11 9 -9 8 -14
0 -63 7 -110 16 -165 31 -953 127 -1025 125 -16 -1 17 -7 75 -14z"/>
<path d="M5240 7569 c-223 -4 -497 -12 -610 -18 -305 -17 -733 -52 -749 -61
-11 -6 -9 -11 11 -24 23 -15 37 -15 179 -1 418 41 871 61 1804 78 90 2 110 5
110 17 0 18 -94 19 -745 9z"/>
<path d="M7532 7487 c14 -11 71 -18 363 -43 28 -2 97 -8 155 -14 58 -6 200
-19 315 -30 116 -11 260 -27 320 -35 61 -8 169 -21 240 -30 72 -9 195 -25 275
-35 80 -10 190 -24 245 -30 115 -13 256 -34 372 -55 27 -5 40 11 16 19 -10 3
-101 17 -203 31 -102 14 -241 34 -310 45 -172 26 -823 98 -1045 115 -69 5
-258 25 -640 65 -120 13 -124 13 -103 -3z"/>
<path d="M5645 7443 c-338 -3 -967 -21 -1145 -33 -202 -13 -400 -30 -430 -36
l-25 -6 24 -19 c17 -14 34 -18 60 -15 137 19 723 52 1104 62 128 3 241 8 252
9 11 2 124 4 250 4 224 1 280 8 245 31 -8 5 -31 9 -50 8 -19 -2 -147 -4 -285
-5z"/>
<path d="M7522 7359 c3 -10 39 -17 119 -25 63 -6 168 -16 234 -23 66 -6 215
-21 330 -32 116 -11 284 -28 375 -39 91 -10 233 -26 315 -35 179 -19 317 -38
520 -70 197 -31 272 -38 279 -27 3 5 -29 15 -72 21 -92 14 -412 56 -532 70
-47 6 -158 19 -248 31 -203 25 -243 30 -797 85 -247 25 -467 48 -489 51 -30 5
-37 3 -34 -7z"/>
<path d="M9868 7353 c7 -3 16 -2 19 1 4 3 -2 6 -13 5 -11 0 -14 -3 -6 -6z"/>
<path d="M5397 7309 c-420 -7 -599 -13 -842 -29 -253 -17 -316 -23 -320 -30
-3 -4 5 -14 18 -22 17 -12 42 -13 122 -7 385 30 892 51 1485 62 95 2 115 5
115 17 0 18 5 18 -578 9z"/>
<path d="M7510 7230 c0 -5 3 -10 6 -10 3 0 87 -11 187 -24 100 -14 241 -30
312 -36 346 -29 391 -34 785 -80 41 -4 102 -11 135 -15 33 -3 105 -12 160 -20
55 -8 156 -22 225 -30 69 -9 137 -20 151 -25 14 -4 32 -4 40 0 9 6 6 10 -12
14 -25 6 -174 27 -314 45 -44 6 -147 20 -230 31 -267 35 -538 69 -615 75 -85
7 -591 60 -721 75 -105 12 -109 12 -109 0z"/>
<path d="M5560 7183 c-564 -8 -1140 -35 -1140 -53 0 -4 7 -13 15 -20 12 -10
60 -10 232 -1 120 6 299 16 398 21 99 5 311 12 470 15 334 7 435 12 442 19 3
2 2 10 -2 16 -5 8 -44 11 -129 8 -66 -1 -195 -4 -286 -5z"/>
<path d="M7544 7090 c16 -5 72 -14 125 -20 53 -6 143 -17 201 -25 58 -8 139
-17 180 -20 41 -3 109 -10 150 -15 41 -5 110 -11 153 -15 73 -5 168 -16 262
-30 22 -3 168 -21 325 -40 157 -20 311 -39 342 -43 32 -5 63 -5 69 -1 12 7
-40 17 -266 49 -333 46 -568 74 -1050 124 -137 15 -291 31 -342 36 -50 6 -111
10 -135 9 -40 -1 -41 -1 -14 -9z"/>
<path d="M5780 7058 c-473 -11 -1060 -30 -1125 -37 l-60 -6 26 -17 c27 -19 58
-18 619 12 227 12 1537 5 1735 -9 312 -23 487 -40 1045 -101 96 -10 227 -24
290 -30 63 -6 165 -17 225 -25 548 -73 650 -84 658 -76 9 9 -41 17 -298 51
-82 11 -202 26 -265 35 -159 21 -690 80 -954 105 -120 11 -223 23 -228 26 -6
4 -56 10 -111 16 -56 5 -151 13 -212 19 -198 19 -487 31 -950 42 -55 1 -233
-1 -395 -5z"/>
<path d="M5330 6920 c-516 -17 -586 -23 -517 -46 25 -9 44 -8 412 7 254 11
1456 14 1525 4 19 -2 116 -9 215 -15 99 -6 288 -22 420 -36 132 -14 308 -31
390 -39 83 -8 164 -17 180 -20 17 -2 142 -16 278 -30 137 -14 326 -36 420 -50
291 -40 367 -49 374 -42 3 4 4 9 2 11 -11 11 -562 80 -1074 136 -1038 112
-1181 122 -1830 125 -297 2 -655 -1 -795 -5z"/>
<path d="M5480 6780 c0 -5 5 -10 10 -10 6 0 10 5 10 10 0 6 -4 10 -10 10 -5 0
-10 -4 -10 -10z"/>
<path d="M5938 6783 c7 -3 16 -2 19 1 4 3 -2 6 -13 5 -11 0 -14 -3 -6 -6z"/>
<path d="M5048 6763 c7 -3 16 -2 19 1 4 3 -2 6 -13 5 -11 0 -14 -3 -6 -6z"/>
<path d="M5118 6763 c7 -3 16 -2 19 1 4 3 -2 6 -13 5 -11 0 -14 -3 -6 -6z"/>
<path d="M5465 6668 c-148 -5 -281 -11 -294 -14 l-25 -5 27 -18 c23 -15 51
-17 224 -15 109 2 277 6 373 10 255 11 838 8 1035 -5 207 -14 429 -30 470 -35
17 -2 149 -16 295 -30 146 -14 278 -28 294 -31 16 -3 133 -17 260 -31 193 -21
293 -33 550 -67 10 -1 21 3 23 9 2 7 -43 17 -124 28 -71 9 -159 21 -198 26
-38 6 -151 19 -250 30 -99 11 -214 25 -255 30 -126 17 -515 58 -690 74 -594
54 -1041 66 -1715 44z"/>
<path d="M8253 6623 c9 -2 23 -2 30 0 6 3 -1 5 -18 5 -16 0 -22 -2 -12 -5z"/>
<path d="M8430 6599 c63 -10 160 -26 215 -34 55 -9 124 -20 154 -25 30 -5 58
-7 63 -4 22 14 1 22 -84 33 -51 7 -155 21 -231 32 -185 26 -277 24 -117 -2z"/>
<path d="M5787 6563 c-3 -3 -99 -6 -214 -7 -192 -3 -243 -8 -243 -25 0 -3 22
-20 49 -37 l48 -32 264 9 c654 21 1028 6 1694 -67 378 -41 710 -96 917 -151
l97 -25 38 23 c32 20 35 24 18 27 -11 2 -24 8 -29 13 -6 5 -25 9 -43 9 -36 0
-93 24 -93 40 0 4 8 11 18 13 10 3 6 5 -11 6 -25 1 -27 -1 -17 -19 9 -18 8
-20 -15 -20 -15 0 -42 12 -61 26 -31 24 -36 25 -52 11 -15 -14 -20 -13 -56 8
-32 19 -43 21 -67 13 -23 -8 -32 -6 -46 7 -12 12 -27 16 -54 12 -22 -3 -39 -1
-41 5 -4 11 -50 18 -258 38 -58 6 -125 15 -150 20 -25 6 -97 15 -160 21 -286
25 -349 30 -580 48 -135 11 -333 22 -440 26 -372 11 -508 13 -513 8z"/>
<path d="M7430 5645 c-14 -8 -20 -14 -14 -15 5 0 19 7 30 15 24 18 16 19 -16
0z"/>
<path d="M6750 5535 c-9 -11 -15 -13 -20 -5 -5 8 -18 7 -44 -4 -21 -9 -35 -20
-31 -26 3 -5 0 -7 -7 -5 -9 4 -14 -3 -15 -16 -2 -28 -21 -48 -31 -33 -10 15
-40 13 -46 -3 -3 -7 -12 -13 -19 -13 -20 0 -47 -33 -47 -57 0 -28 -27 -51 -36
-30 -9 24 -31 28 -46 9 -12 -16 -11 -16 7 -2 19 14 19 14 6 -3 -8 -10 -20 -16
-28 -13 -8 3 -11 1 -8 -4 3 -6 1 -10 -4 -10 -6 0 -11 -8 -12 -17 0 -10 -3 -13
-5 -6 -6 13 -34 6 -34 -9 0 -5 4 -7 8 -4 11 7 7 -43 -5 -55 -7 -7 -19 -6 -38
3 -25 11 -29 10 -46 -11 -10 -12 -23 -20 -29 -16 -6 4 -10 3 -9 -2 4 -21 -2
-33 -17 -33 -11 0 -14 -5 -9 -17 24 -59 7 -78 -41 -46 -16 10 -25 13 -21 6 8
-12 -26 -28 -41 -19 -4 2 -9 -5 -9 -16 -1 -12 -8 -25 -15 -29 -7 -4 -12 -23
-13 -41 0 -35 -16 -41 -59 -23 -13 6 -17 5 -13 -2 8 -13 -17 -36 -28 -25 -5 4
-5 -1 -2 -10 4 -12 -2 -19 -25 -27 -25 -9 -29 -15 -25 -33 8 -28 -10 -50 -32
-40 -26 13 -39 9 -68 -23 -17 -18 -36 -29 -48 -28 -11 2 -14 0 -7 -3 6 -3 9
-10 6 -15 -3 -6 0 -16 6 -24 20 -24 2 -37 -41 -30 -30 5 -40 3 -45 -9 -3 -9
-10 -13 -15 -10 -5 3 -8 2 -7 -3 2 -5 -7 -19 -20 -33 -16 -18 -19 -26 -10 -32
9 -5 9 -8 1 -8 -6 0 -9 -9 -6 -20 7 -25 -15 -34 -50 -21 -18 7 -28 7 -33 -1
-5 -7 -3 -8 6 -3 9 5 11 4 6 -3 -4 -7 -12 -12 -17 -12 -6 0 -24 -13 -40 -29
-26 -27 -28 -31 -15 -55 7 -14 16 -24 19 -21 4 3 5 2 2 -2 -9 -11 -38 -13 -67
-4 -23 8 -31 4 -65 -29 -40 -41 -46 -56 -29 -78 14 -19 -12 -33 -45 -27 -20 5
-30 0 -43 -20 -9 -14 -23 -25 -31 -25 -7 0 -17 -5 -21 -12 -5 -7 -3 -8 7 -3
12 8 12 6 0 -8 -7 -9 -18 -14 -23 -11 -6 4 -5 -3 2 -15 6 -12 18 -25 26 -28 7
-3 11 -9 8 -14 -7 -12 -61 -11 -69 1 -9 15 -18 12 -38 -15 -17 -24 -17 -24 0
-19 14 5 15 4 4 -4 -8 -6 -22 -9 -32 -7 -10 2 -18 1 -17 -3 1 -4 -3 -16 -9
-27 -8 -15 -8 -24 1 -37 7 -10 16 -15 19 -11 4 3 7 2 7 -4 0 -5 -19 -10 -42
-10 -43 0 -98 -17 -98 -29 0 -3 7 -3 16 0 9 3 12 2 8 -5 -3 -6 -15 -9 -25 -6
-11 3 -17 1 -14 -4 3 -4 -3 -17 -14 -28 -13 -13 -16 -22 -9 -29 16 -16 -1 -32
-30 -30 -34 2 -55 -9 -46 -25 4 -7 4 -9 -1 -5 -11 10 -37 -11 -29 -23 3 -5 0
-8 -8 -7 -7 2 -12 -3 -10 -11 2 -11 0 -12 -11 -3 -11 9 -14 8 -14 -3 0 -8 4
-15 8 -15 10 0 8 -59 -2 -66 -5 -3 -6 1 -4 8 8 19 -36 16 -65 -5 -14 -9 -30
-17 -37 -17 -21 0 -43 -41 -33 -60 12 -22 -10 -43 -34 -34 -10 4 -26 -1 -38
-12 -14 -13 -19 -14 -13 -4 4 8 -11 -3 -33 -24 -30 -28 -38 -42 -29 -48 9 -6
9 -12 1 -25 -9 -13 -22 -17 -48 -15 -26 2 -36 -1 -34 -10 2 -7 -3 -12 -10 -10
-8 1 -11 -2 -7 -8 3 -5 -1 -10 -9 -10 -23 0 -47 -40 -36 -60 13 -23 -12 -44
-40 -35 -15 5 -26 0 -41 -19 -11 -15 -24 -24 -28 -21 -5 2 -17 -5 -27 -18 -16
-18 -16 -19 -1 -8 10 8 17 9 17 3 0 -6 -7 -15 -16 -20 -14 -8 -14 -10 0 -21
25 -21 19 -27 -26 -28 -61 -2 -61 -1 -54 -20 4 -10 4 -14 0 -10 -4 4 -19 -3
-33 -15 -14 -13 -19 -15 -12 -5 7 9 9 17 5 17 -5 0 -15 -9 -22 -21 -8 -12 -9
-18 -3 -15 5 4 9 -3 7 -17 -4 -40 -16 -49 -56 -45 -23 2 -38 -1 -37 -7 1 -5
-3 -9 -10 -8 -7 2 -10 -3 -7 -10 2 -7 -8 -24 -23 -37 -20 -18 -23 -19 -13 -5
14 18 14 19 -2 6 -16 -12 -16 -16 -3 -42 20 -38 20 -38 -23 -32 -35 5 -43 1
-76 -33 -21 -22 -35 -32 -30 -24 7 13 6 13 -9 1 -16 -13 -16 -15 -1 -32 14
-16 14 -18 -5 -28 -11 -6 -31 -11 -45 -11 -14 0 -28 -5 -31 -10 -4 -6 -10 -8
-15 -5 -5 3 -12 0 -16 -6 -4 -8 -3 -9 4 -5 7 4 12 3 12 -3 0 -5 -5 -13 -10
-16 -6 -4 -7 -11 -4 -17 4 -6 2 -8 -3 -5 -6 4 -17 0 -24 -9 -10 -13 -10 -17 2
-25 12 -8 12 -10 -1 -19 -8 -5 -29 -10 -46 -10 -17 0 -53 -12 -78 -26 -45 -25
-46 -27 -30 -45 24 -26 3 -49 -46 -49 -46 0 -69 -22 -49 -47 7 -10 9 -15 5
-11 -5 4 -16 2 -25 -5 -14 -11 -15 -10 -1 8 14 20 14 20 -7 2 -17 -15 -19 -22
-10 -41 11 -23 11 -23 74 27 34 27 60 54 57 59 -3 4 4 8 14 8 17 0 195 147
258 213 11 12 37 31 57 42 20 11 98 76 174 145 147 133 903 841 1015 950 64
62 68 64 87 49 12 -10 53 -24 93 -33 40 -9 100 -31 133 -49 55 -29 61 -36 69
-75 7 -35 6 -50 -7 -72 -34 -56 -13 -96 74 -141 40 -21 67 -24 279 -35 129 -7
334 -18 455 -24 352 -20 1028 2 1100 34 17 8 53 16 80 19 28 3 61 10 75 15 27
10 249 57 315 66 22 3 63 8 90 11 28 3 63 9 79 12 28 5 29 4 14 -11 -9 -9 -32
-19 -50 -22 -18 -3 -53 -12 -78 -20 -25 -7 -79 -18 -120 -24 -72 -10 -141 -22
-225 -40 -109 -24 171 5 345 36 341 60 619 128 894 218 l108 36 212 -197 c116
-109 271 -254 344 -322 85 -80 141 -125 155 -126 14 0 22 -6 21 -17 -2 -22 84
-104 118 -112 28 -6 40 4 45 37 2 11 -1 16 -7 12 -6 -4 -24 8 -40 26 -21 24
-37 33 -62 33 -28 1 -33 4 -33 26 0 14 -4 31 -8 38 -5 6 -6 16 -2 22 5 8 -44
41 -60 40 -3 0 -8 1 -12 1 -5 1 -24 1 -45 1 -28 -1 -40 4 -52 23 -9 14 -12 25
-7 25 6 0 14 -7 19 -16 10 -19 27 -12 42 16 8 16 5 21 -17 33 -16 7 -27 19
-26 25 2 7 -4 12 -12 12 -7 0 -18 8 -24 17 -8 15 -11 15 -26 3 -14 -11 -18
-11 -33 4 -13 12 -14 20 -6 34 12 19 8 42 -8 42 -6 0 -5 -8 3 -17 13 -16 12
-17 -3 -4 -14 10 -15 17 -7 33 8 15 8 19 -1 13 -12 -7 -42 24 -34 37 5 7 -22
4 -55 -7 -25 -8 -47 20 -32 39 9 11 8 18 -4 30 -9 9 -13 20 -10 26 3 5 -1 10
-9 10 -8 0 -21 9 -29 20 -12 17 -19 19 -42 10 -30 -12 -75 4 -83 30 -4 12 -3
13 10 3 12 -11 18 -9 33 7 10 11 15 21 12 21 -4 1 -11 2 -16 3 -16 2 -25 16
-11 16 8 0 0 15 -19 34 -30 31 -36 33 -63 24 -20 -7 -33 -7 -40 0 -6 6 -16 8
-23 6 -7 -3 -16 0 -21 7 -5 9 -2 11 8 6 9 -3 23 2 33 13 16 18 15 21 -22 60
-38 41 -52 46 -109 36 -24 -3 -37 0 -50 15 -9 10 -14 22 -9 27 4 4 10 1 12 -5
6 -17 21 -16 36 0 21 22 18 37 -8 47 -14 5 -26 14 -26 20 -1 5 -2 15 -3 22 0
6 -7 13 -15 16 -9 3 -11 0 -7 -9 4 -8 1 -7 -6 3 -9 10 -19 13 -28 8 -23 -12
-83 -6 -88 9 -3 9 2 11 17 6 20 -6 26 2 22 28 0 4 3 7 9 7 5 0 -2 12 -15 26
-14 15 -29 23 -36 18 -7 -4 -9 -3 -6 3 4 6 0 18 -7 28 -12 16 -17 17 -44 6
-18 -7 -39 -10 -48 -7 -15 6 -15 8 1 32 15 24 15 27 0 38 -9 6 -17 20 -19 31
-1 10 -9 21 -17 23 -11 3 -11 1 1 -7 8 -6 10 -11 4 -11 -11 0 -41 30 -36 37 4
6 -3 6 -25 -1 -13 -4 -23 -13 -23 -19 0 -6 -7 -1 -17 12 -12 19 -14 28 -5 42
10 15 8 21 -10 34 -13 8 -17 15 -11 15 6 0 -2 14 -19 31 -27 26 -35 29 -55 20
-32 -15 -56 -4 -48 23 17 54 16 61 -7 71 -13 6 -22 16 -21 23 2 7 -4 12 -13
12 -8 0 -13 4 -10 8 8 14 -27 10 -48 -4 -14 -9 -25 -10 -38 -3 -18 10 -18 11
1 43 l20 32 -28 17 c-15 9 -31 13 -35 10 -4 -4 -4 1 0 12 6 14 4 17 -8 13 -11
-5 -15 0 -14 14 0 12 -5 23 -13 26 -10 3 -11 -2 -6 -19 3 -13 3 -19 -2 -13 -4
6 -19 11 -33 10 -22 -1 -25 3 -22 28 2 16 0 36 -3 44 -5 14 -7 15 -16 2 -8
-11 -9 -9 -4 8 5 18 2 25 -14 29 -11 3 -19 9 -16 13 3 4 -2 14 -11 21 -14 11
-18 11 -29 -4 -15 -21 -29 -22 -45 -2 -9 11 -7 21 11 47 12 18 19 30 14 26 -8
-8 -81 60 -78 73 4 11 -36 2 -54 -12 -19 -16 -35 6 -27 37 4 15 0 26 -13 33
-10 6 -12 11 -5 11 10 0 10 5 2 20 -8 15 -8 20 1 20 25 0 -1 13 -40 20 -27 5
-42 3 -44 -4 -3 -8 -12 -7 -30 3 -25 13 -25 14 -6 34 20 22 26 43 9 32 -6 -4
-7 1 -3 11 5 14 3 16 -11 11 -9 -4 -15 -3 -12 2 3 4 -6 13 -20 20 -14 6 -23
15 -20 20 3 5 -6 9 -19 9 -20 0 -24 -4 -20 -19 4 -11 5 -19 2 -19 -10 0 -66
88 -59 94 3 4 -2 4 -12 0 -13 -5 -23 -1 -32 10 -15 22 -38 11 -31 -15 4 -14
-5 -22 -39 -35 -55 -21 -51 -30 13 -33 56 -2 5 -17 -112 -31 -38 -4 -73 -6
-77 -4 -5 3 -8 0 -8 -6 0 -8 -6 -8 -21 0 -13 7 -36 9 -62 4 -23 -5 -49 -8 -57
-9 -8 0 -21 -4 -29 -9 -7 -5 -45 -10 -85 -12 -83 -4 -76 0 73 51 l94 31 -92
-1 c-86 -1 -92 0 -89 18 2 16 11 20 43 20 75 0 96 -3 90 -13 -3 -5 -2 -10 4
-10 5 0 11 5 13 12 3 7 23 12 46 12 66 1 34 14 -53 20 -132 10 -130 10 -127
40 3 30 0 32 -18 11z m513 -152 c-7 -2 -21 -2 -30 0 -10 3 -4 5 12 5 17 0 24
-2 18 -5z m-113 -23 c-8 -5 -19 -10 -25 -10 -5 0 -3 5 5 10 8 5 20 10 25 10 6
0 3 -5 -5 -10z m-473 -35 c0 -18 -17 -24 -42 -15 -19 8 -19 8 5 18 34 14 37
14 37 -3z m346 8 c-7 -2 -19 -2 -25 0 -7 3 -2 5 12 5 14 0 19 -2 13 -5z m-313
-13 c0 -5 -2 -10 -4 -10 -3 0 -8 5 -11 10 -3 6 -1 10 4 10 6 0 11 -4 11 -10z
m234 0 c-15 -15 -92 -26 -79 -12 9 9 37 17 75 21 10 1 11 -2 4 -9z m-114 -20
c0 -5 -7 -10 -15 -10 -8 0 -15 -4 -15 -9 0 -5 39 -9 88 -9 164 1 184 0 170
-16 -10 -10 -45 -14 -135 -14 -67 0 -130 -3 -140 -6 -10 -3 -38 -8 -62 -11
-38 -6 -43 -4 -33 8 10 12 8 13 -14 9 -16 -3 -21 -7 -14 -12 6 -4 -1 -7 -17
-7 -15 0 -44 -3 -63 -7 -35 -7 -35 -7 -10 8 l25 16 -29 -6 c-19 -5 -27 -3 -23
3 4 6 33 14 64 18 61 7 142 26 183 43 33 14 40 14 40 2z m-316 -72 c-3 -4 -9
-8 -15 -8 -5 0 -9 4 -9 8 0 5 7 9 15 9 8 0 12 -4 9 -9z m300 -26 c2 -4 -4 -8
-14 -8 -10 0 -16 4 -14 8 3 4 9 8 14 8 5 0 11 -4 14 -8z m155 -103 c-12 -7
-12 -9 1 -9 19 -1 -22 -18 -63 -26 -80 -15 -473 -23 -549 -11 -16 2 -28 1 -28
-4 0 -5 -7 -6 -16 -2 -13 5 -11 9 11 21 41 21 75 23 75 3 0 -14 2 -14 10 -1 5
9 26 15 52 16 70 3 272 15 275 17 1 1 57 3 124 3 73 1 116 -2 108 -7z m131
-49 c-6 -11 -13 -20 -16 -20 -2 0 0 9 6 20 6 11 13 20 16 20 2 0 0 -9 -6 -20z
m65 0 c-3 -5 -12 -10 -18 -10 -7 0 -6 4 3 10 19 12 23 12 15 0z m-139 -26 c-4
-9 -9 -14 -13 -11 -3 4 -12 2 -20 -5 -11 -8 -12 -7 -7 6 4 10 13 15 20 12 8
-3 14 1 14 11 0 9 3 14 6 10 4 -3 4 -14 0 -23z m341 -28 c0 -8 -11 -11 -29 -8
-15 2 -28 0 -28 -4 0 -5 -21 -10 -47 -10 -26 -1 -49 -7 -51 -13 -2 -6 -8 -11
-13 -11 -6 0 -7 6 -3 13 6 9 4 9 -7 1 -19 -14 -90 -34 -121 -34 -14 0 -61 -9
-104 -20 -44 -11 -92 -20 -109 -20 -25 -1 -21 -4 25 -19 30 -10 71 -25 90 -33
19 -7 65 -13 102 -13 36 0 64 -4 61 -8 -10 -16 92 6 104 22 9 12 12 13 13 2 0
-11 3 -11 15 -1 8 7 28 10 45 8 16 -2 31 0 33 5 2 6 15 7 31 3 35 -9 30 -15
-15 -21 -19 -3 -50 -9 -69 -15 -19 -6 -73 -14 -120 -17 -102 -7 -148 -31 -73
-39 24 -3 42 -18 43 -36 0 -12 -18 -10 -25 2 -4 6 -10 8 -15 5 -5 -3 -1 -25
10 -48 10 -23 24 -57 30 -74 13 -34 24 -39 49 -24 9 6 22 6 31 1 22 -12 60 -1
60 16 0 8 6 14 14 14 18 0 15 -45 -4 -46 -8 -1 -18 -2 -22 -4 -12 -4 -20 -6
-60 -14 l-38 -8 0 -67 c0 -219 -163 -398 -390 -426 -64 -8 -165 8 -228 36 -24
10 -74 49 -111 86 -56 56 -71 79 -87 130 l-19 62 -151 -5 c-127 -3 -151 -1
-151 11 0 8 4 12 9 9 4 -3 14 -2 21 3 13 8 20 9 164 14 54 1 94 7 96 13 2 6 1
35 -1 64 -4 58 8 53 -122 54 -54 0 -91 10 -74 21 9 5 152 19 187 19 12 -1 26
17 44 56 15 31 29 61 31 66 3 4 -24 5 -59 1 -144 -16 -259 -14 -259 5 0 4 17
7 38 8 20 1 51 4 67 6 17 3 48 8 70 11 22 3 47 7 55 10 8 2 40 5 70 6 45 2 61
8 90 32 19 17 54 43 78 58 24 15 39 29 35 32 -4 3 -81 4 -170 3 -131 -2 -163
0 -163 11 0 7 3 13 8 14 4 0 18 2 32 4 14 2 79 6 145 9 66 3 158 9 205 12 47
4 103 8 125 9 22 2 74 4 115 6 41 1 89 6 105 11 17 4 50 11 74 14 25 3 49 7
53 10 5 3 27 8 51 10 49 6 82 12 82 14 0 1 13 3 29 5 15 2 30 5 31 7 10 10 72
5 72 -6z m-1137 -120 c0 -1 -6 -3 -12 -3 -7 0 -22 -4 -33 -8 -16 -5 -17 -5 -5
4 13 9 13 11 0 11 -13 0 -13 2 -1 9 13 8 51 -2 51 -13z m1781 -73 c13 -16 12
-17 -3 -4 -10 7 -18 15 -18 17 0 8 8 3 21 -13z m-606 -14 c4 -6 4 -13 0 -17
-10 -11 -115 -9 -115 2 0 5 3 6 7 3 3 -4 12 -2 20 4 7 6 22 9 33 6 11 -3 23
-1 26 4 7 12 21 11 29 -2z m80 -9 c-3 -5 -12 -10 -18 -10 -7 0 -6 4 3 10 19
12 23 12 15 0z m-15 -75 c0 -8 -7 -15 -15 -15 -26 0 -18 20 13 29 1 1 2 -6 2
-14z m-102 -20 c11 -10 9 -14 -14 -19 -23 -6 -32 -3 -46 14 -11 13 -24 20 -33
16 -10 -3 -13 -2 -9 5 8 13 84 2 102 -16z m-70 -4 c2 -1 -3 -8 -12 -16 -16
-17 -76 -21 -76 -5 0 5 7 7 15 4 9 -4 15 0 15 8 0 11 30 16 58 9z m860 -26
c-3 -3 -9 2 -12 12 -6 14 -5 15 5 6 7 -7 10 -15 7 -18z m-698 -37 c0 -6 -3 -8
-7 -5 -3 4 -13 2 -20 -5 -11 -9 -16 -9 -22 1 -6 9 -10 7 -14 -8 -4 -16 -13
-21 -36 -21 -17 0 -31 3 -31 8 0 9 20 39 20 31 0 -4 21 -1 48 6 49 13 62 11
62 -7z m778 -43 c-3 -3 -9 2 -12 12 -6 14 -5 15 5 6 7 -7 10 -15 7 -18z m-53
-5 c3 -5 1 -10 -4 -10 -6 0 -11 5 -11 10 0 6 2 10 4 10 3 0 8 -4 11 -10z
m-2095 -24 c0 -2 -7 -6 -15 -10 -8 -3 -15 -1 -15 4 0 6 7 10 15 10 8 0 15 -2
15 -4z m-690 -90 c0 -2 -8 -10 -17 -17 -16 -13 -17 -12 -4 4 13 16 21 21 21
13z m3008 -61 c-3 -3 -9 2 -12 12 -6 14 -5 15 5 6 7 -7 10 -15 7 -18z m-762
-124 c-6 -9 -73 -30 -116 -36 -85 -12 -108 -17 -159 -32 -31 -9 -64 -16 -74
-15 -10 0 -30 -3 -44 -9 -18 -7 -24 -6 -21 3 6 17 132 55 237 73 46 8 86 16
89 19 9 10 94 7 88 -3z m-1290 -30 c-10 -16 -46 -20 -46 -5 0 8 10 14 26 14
14 0 23 -4 20 -9z m-220 -24 c4 -4 -1 -8 -12 -8 -10 -1 -30 -3 -44 -4 -100 -8
-177 -8 -168 0 5 5 180 22 205 20 7 -1 16 -4 19 -8z m51 7 c-3 -3 -12 -4 -19
-1 -8 3 -5 6 6 6 11 1 17 -2 13 -5z m1026 -41 c-7 -2 -19 -2 -25 0 -7 3 -2 5
12 5 14 0 19 -2 13 -5z m1462 -23 c3 -6 -1 -7 -9 -4 -18 7 -21 14 -7 14 6 0
13 -4 16 -10z m-982 -40 c-3 -11 -13 -20 -22 -21 -49 -2 -109 -11 -135 -19
-15 -5 -32 -8 -36 -5 -4 3 -26 -2 -48 -9 -22 -8 -43 -12 -47 -8 -3 4 -9 1 -13
-5 -4 -6 -36 -20 -72 -31 -50 -15 -70 -17 -85 -9 -18 10 -16 12 20 23 25 7 47
8 57 2 13 -6 16 -5 12 5 -3 10 4 14 23 15 15 0 63 12 105 27 42 14 92 28 110
31 62 9 133 22 135 23 0 0 -1 -8 -4 -19z m-2206 -42 c-3 -7 -5 -2 -5 12 0 14
2 19 5 13 2 -7 2 -19 0 -25z m882 18 c23 -15 1 -22 -78 -24 -45 -1 -97 -4
-116 -7 -24 -3 -33 -1 -29 6 4 8 0 8 -12 2 -20 -10 -80 -10 -90 0 -20 20 294
42 325 23z m1281 -135 c0 -13 -59 -29 -127 -33 -18 -1 -33 -6 -33 -11 0 -4 -4
-6 -8 -3 -4 2 -39 -4 -77 -15 -92 -25 -128 -23 -45 3 171 53 290 77 290 59z
m-2192 -28 c5 -18 -23 -16 -39 3 -11 14 -10 15 11 12 13 -1 25 -9 28 -15z
m916 -3 c11 -11 18 -11 -154 -15 -69 -1 -154 -8 -190 -15 -36 -6 -85 -14 -110
-16 -25 -2 -54 -6 -65 -9 -19 -4 -19 -3 2 14 14 12 48 21 90 26 111 12 135 15
144 21 5 3 9 -1 9 -8 0 -10 2 -10 8 -1 5 8 42 13 102 15 115 4 151 1 164 -12z
m2596 -43 c0 -6 -9 0 -20 13 -11 13 -20 25 -20 28 0 3 9 -3 20 -13 11 -10 20
-23 20 -28z m-2755 -105 c-13 -13 -185 -22 -185 -10 0 4 6 8 13 9 6 1 36 3 66
5 30 2 56 6 58 8 2 2 15 1 29 -2 14 -2 22 -7 19 -10z m1495 -8 c-25 -8 -49
-12 -55 -10 -12 4 53 24 80 24 11 0 0 -6 -25 -14z m-3060 -38 c0 -2 -8 -10
-17 -17 -16 -13 -17 -12 -4 4 13 16 21 21 21 13z m4480 -78 c0 -5 -9 -4 -20 2
-11 6 -18 15 -14 21 6 11 34 -7 34 -23z m-2948 0 c43 1 43 -16 1 -21 -21 -3
-130 -6 -243 -6 -174 1 -202 3 -187 14 14 10 61 13 183 13 91 0 168 3 171 6 4
3 16 3 27 0 12 -4 33 -7 48 -6z m3036 -23 c-3 -3 -9 2 -12 12 -6 14 -5 15 5 6
7 -7 10 -15 7 -18z m-4708 -18 c0 -2 -10 -12 -22 -23 l-23 -19 19 23 c18 21
26 27 26 19z m4740 -77 c0 -5 -4 -10 -10 -10 -5 0 -10 5 -10 10 0 6 5 10 10
10 6 0 10 -4 10 -10z"/>
<path d="M6776 4594 c-4 -11 4 -19 29 -30 44 -18 48 -18 69 5 26 28 12 41 -44
41 -34 0 -50 -4 -54 -16z"/>
<path d="M6657 4570 c-8 -11 -17 -17 -20 -13 -4 3 -7 1 -7 -5 0 -15 17 -16 25
-2 3 6 15 10 26 10 10 0 19 7 19 15 0 22 -26 18 -43 -5z"/>
<path d="M6590 4538 c0 -4 4 -8 9 -8 6 0 12 4 15 8 3 5 -1 9 -9 9 -8 0 -15 -4
-15 -9z"/>
<path d="M6855 4441 c-3 -6 -19 -11 -35 -11 -48 0 -51 -53 -3 -65 34 -8 78 23
78 56 0 25 -28 39 -40 20z"/>
<path d="M6612 4408 c-36 -36 9 -75 63 -54 22 9 30 19 30 37 0 21 -5 24 -40
27 -23 2 -46 -3 -53 -10z"/>
<path d="M6860 5510 c0 -6 7 -10 15 -10 8 0 15 2 15 4 0 2 -7 6 -15 10 -8 3
-15 1 -15 -4z"/>
<path d="M6968 5433 c7 -3 16 -2 19 1 4 3 -2 6 -13 5 -11 0 -14 -3 -6 -6z"/>
<path d="M7605 5220 c3 -5 11 -10 16 -10 6 0 7 5 4 10 -3 6 -11 10 -16 10 -6
0 -7 -4 -4 -10z"/>
<path d="M8430 4410 c0 -5 5 -10 11 -10 5 0 7 5 4 10 -3 6 -8 10 -11 10 -2 0
-4 -4 -4 -10z"/>
<path d="M5205 4300 c-3 -5 -1 -10 4 -10 6 0 11 5 11 10 0 6 -2 10 -4 10 -3 0
-8 -4 -11 -10z"/>
<path d="M8580 4280 c0 -5 5 -10 11 -10 5 0 7 5 4 10 -3 6 -8 10 -11 10 -2 0
-4 -4 -4 -10z"/>
<path d="M9095 3780 c3 -5 8 -10 11 -10 2 0 4 5 4 10 0 6 -5 10 -11 10 -5 0
-7 -4 -4 -10z"/>
<path d="M2262 3605 c0 -11 3 -29 8 -40 11 -25 11 1 0 35 -6 20 -8 21 -8 5z"/>
<path d="M2281 3524 c0 -11 3 -14 6 -6 3 7 2 16 -1 19 -3 4 -6 -2 -5 -13z"/>
<path d="M9666 3114 c11 -30 96 -114 116 -114 22 0 43 36 26 46 -7 5 -8 3 -3
-7 8 -12 6 -12 -9 0 -13 11 -14 16 -4 22 12 8 3 13 -16 10 -5 -1 -4 4 3 13 10
12 7 15 -21 22 -18 4 -41 7 -51 5 -10 -1 -25 3 -33 10 -12 10 -13 9 -8 -7z"/>
<path d="M9795 2980 c-3 -5 13 -33 36 -60 33 -39 47 -49 62 -44 17 5 19 3 14
-16 -8 -31 213 -260 252 -260 46 0 53 13 26 45 -49 60 -56 64 -103 62 -37 -1
-48 2 -61 22 -15 23 -15 24 6 11 17 -11 23 -11 35 1 19 20 17 30 -19 68 -26
27 -39 34 -67 33 -42 -2 -50 7 -36 42 7 20 6 26 -5 26 -7 0 -17 5 -21 12 -5 7
-3 8 5 3 10 -5 10 -3 0 13 -7 11 -19 18 -26 15 -8 -3 -11 0 -8 9 4 10 -4 15
-31 16 -21 2 -41 5 -45 8 -4 2 -10 0 -14 -6z m235 -171 c0 -6 -4 -7 -10 -4 -5
3 -10 11 -10 16 0 6 5 7 10 4 6 -3 10 -11 10 -16z"/>
<path d="M10170 2582 c0 -16 219 -217 235 -216 9 1 15 -7 15 -20 0 -29 39 -66
69 -66 18 0 22 -4 18 -20 -3 -13 0 -20 9 -20 8 0 19 -10 24 -22 5 -13 53 -67
108 -121 54 -53 97 -98 96 -100 -1 -1 13 -2 32 -1 18 1 32 -2 29 -7 -3 -4 -12
-6 -20 -2 -26 9 -12 -34 28 -87 25 -33 42 -47 52 -44 8 4 15 2 15 -4 0 -6 -5
-12 -11 -14 -13 -4 66 -108 83 -108 6 0 26 9 45 21 31 20 33 22 16 35 -10 7
-30 14 -45 14 -15 0 -39 11 -54 23 l-27 24 34 8 c28 6 31 8 14 14 -19 6 -27
20 -28 48 0 7 -4 10 -9 7 -4 -3 -8 -1 -8 5 0 5 -17 11 -37 13 -31 2 -39 7 -41
27 -3 17 0 21 9 15 7 -4 3 7 -10 24 -12 18 -27 32 -32 32 -6 0 -8 3 -6 8 3 4
-13 8 -36 9 -25 2 -49 11 -61 23 l-20 20 20 0 c11 0 24 3 27 7 7 7 -33 39 -45
36 -4 -2 -5 7 -3 18 3 17 1 19 -10 9 -10 -8 -15 -8 -21 1 -5 8 -3 9 6 4 9 -5
11 -4 6 3 -4 7 -14 12 -22 12 -10 0 -12 -5 -8 -12 4 -7 -4 -2 -18 12 -25 24
-26 26 -10 44 9 11 12 16 6 13 -14 -8 -34 14 -38 40 -2 10 -7 18 -12 19 -5 0
-16 3 -24 7 -8 3 -26 7 -40 9 -20 2 -25 9 -25 31 -1 15 3 27 7 27 5 0 4 9 -2
20 -6 11 -15 18 -20 15 -5 -3 -13 2 -18 10 -5 9 -24 18 -43 19 -20 2 -44 8
-55 14 -17 10 -17 11 -2 17 25 10 4 50 -36 69 -17 9 -25 16 -17 16 25 0 1 14
-27 16 -15 0 -35 4 -44 9 -10 4 -18 3 -18 -3z m708 -668 c31 -9 28 -20 -5 -18
-16 1 -34 3 -40 3 -7 1 -13 6 -13 11 0 11 24 13 58 4z"/>
<path d="M3243 2473 c-14 -18 -29 -31 -33 -28 -4 3 -13 -2 -21 -11 -10 -13 -9
-16 9 -21 12 -3 22 -9 22 -13 0 -16 -30 -31 -57 -29 -15 2 -38 -3 -51 -9 -19
-11 -21 -16 -11 -34 6 -11 7 -18 1 -14 -12 7 -38 -22 -28 -32 4 -4 12 -7 17
-7 18 0 11 -20 -10 -31 -11 -6 -18 -14 -13 -19 4 -5 0 -4 -8 1 -22 12 -39 14
-46 3 -3 -5 -9 -7 -13 -4 -5 2 -7 -6 -6 -19 2 -14 -2 -23 -11 -23 -7 0 -10 5
-7 11 3 6 -3 3 -13 -7 -19 -18 -19 -19 4 -37 32 -26 20 -40 -33 -40 -40 0 -47
-4 -70 -37 -14 -21 -25 -41 -25 -44 0 -4 15 -12 33 -19 29 -10 30 -13 12 -19
-30 -12 -96 -21 -91 -13 2 4 -6 12 -19 18 -21 10 -23 10 -16 -10 5 -11 20 -25
34 -30 52 -19 236 100 195 125 -12 8 -5 13 14 10 8 -1 72 98 74 116 1 7 11 21
22 31 10 9 59 63 107 120 48 57 96 108 106 115 27 17 24 24 -12 29 -25 4 -35
-1 -56 -29z m27 3 c0 -3 -4 -8 -10 -11 -5 -3 -10 -1 -10 4 0 6 5 11 10 11 6 0
10 -2 10 -4z"/>
<path d="M2610 2355 c0 -5 5 -17 10 -25 5 -8 10 -10 10 -5 0 6 -5 17 -10 25
-5 8 -10 11 -10 5z"/>
<path d="M2701 2103 c11 -34 19 -42 19 -20 0 7 -7 22 -15 33 -13 17 -14 16 -4
-13z"/>
</g>
</svg>
