<?xml version="1.0" standalone="no"?>
<!DOCTYPE svg PUBLIC "-//W3C//DTD SVG 20010904//EN"
 "http://www.w3.org/TR/2001/REC-SVG-20010904/DTD/svg10.dtd">
<svg version="1.0" xmlns="http://www.w3.org/2000/svg"
 width="1276.000000pt" height="920.000000pt" viewBox="0 0 1276.000000 920.000000"
 preserveAspectRatio="xMidYMid meet">

<g transform="translate(0.000000,920.000000) scale(0.100000,-0.100000)"
fill="#000000" stroke="none">
<path d="M5973 7770 c-46 -17 -91 -20 -405 -25 -550 -9 -681 -13 -708 -19 -24
-5 -251 -17 -380 -20 -36 -1 -117 -7 -180 -14 -63 -7 -189 -19 -280 -28 -568
-53 -1101 -143 -1278 -215 -13 -5 -30 -9 -40 -9 -25 0 3 22 58 45 25 10 75 32
112 49 57 26 64 32 47 38 -41 15 -296 -51 -402 -104 -88 -44 -157 -108 -157
-145 0 -13 -4 -23 -10 -23 -15 0 -40 -68 -40 -110 0 -21 -5 -40 -11 -42 -7 -2
-12 -35 -14 -80 -1 -42 -6 -82 -10 -88 -4 -7 -4 -15 1 -19 5 -3 15 -18 23 -33
17 -33 41 -44 41 -19 0 10 7 24 15 31 8 7 15 9 15 4 0 -4 6 1 14 12 14 18 15
18 25 -9 6 -16 9 -33 5 -38 -3 -5 -1 -9 3 -9 5 0 17 26 28 58 10 31 25 64 33
72 13 13 13 13 4 -5 -14 -28 -25 -177 -14 -193 7 -11 22 -7 71 18 285 143 760
232 1641 304 605 50 1691 82 2238 66 650 -19 1339 -54 1582 -80 52 -6 181 -20
285 -31 570 -60 1214 -200 1472 -320 197 -92 271 -129 302 -153 19 -14 41 -26
48 -26 12 0 43 86 43 120 0 20 -61 79 -115 111 -73 43 -272 137 -369 173 -93
35 -443 127 -555 145 -31 6 -94 17 -141 25 -439 81 -905 131 -1595 171 -710
41 -1004 49 -1655 50 -669 0 -1053 -13 -1545 -52 -110 -8 -268 -17 -352 -18
-84 -2 -156 -5 -160 -8 -4 -2 -35 -5 -68 -6 -33 -1 -82 -4 -110 -7 -154 -14
-168 -14 -151 -1 11 8 16 23 14 42 -3 29 -1 30 47 36 35 5 53 3 60 -6 9 -10
14 -10 29 0 20 15 103 18 112 4 4 -6 13 -4 22 5 10 8 28 15 42 15 14 0 41 2
60 5 19 3 64 8 100 11 36 2 72 8 80 11 8 4 35 8 60 11 25 2 59 5 75 8 17 2 59
7 94 10 35 2 114 11 175 19 61 9 192 18 291 21 99 3 243 10 320 15 77 5 203 9
280 9 77 1 282 6 455 13 595 23 1526 -1 2355 -63 319 -23 754 -81 985 -130 80
-17 179 -37 221 -44 142 -24 289 -58 289 -67 0 -4 9 -8 20 -8 36 0 207 -74
340 -147 14 -8 50 -26 80 -40 38 -17 80 -51 139 -111 93 -96 98 -96 108 2 5
50 4 56 -23 77 -40 34 -144 143 -144 151 0 10 -104 75 -164 103 -281 129 -541
204 -921 265 -38 6 -83 15 -100 20 -16 5 -66 14 -110 19 -44 6 -141 19 -215
30 -302 45 -770 81 -1295 101 -154 6 -289 12 -300 15 -21 4 -460 17 -665 19
-101 1 -119 4 -146 23 -44 31 -72 34 -131 13z m-2718 -430 c-9 -10 -26 -18
-38 -19 -46 -2 -73 -6 -87 -16 -8 -5 -24 -11 -35 -11 -11 -1 -51 -12 -90 -24
-38 -12 -101 -28 -139 -36 -38 -8 -74 -18 -80 -23 -10 -8 -59 -23 -81 -25 -5
-1 -45 -18 -89 -39 -44 -22 -82 -35 -87 -30 -11 11 45 73 66 73 9 0 28 9 42
20 14 11 35 20 47 20 12 0 39 9 61 20 22 11 48 20 58 20 10 0 42 11 70 24 32
15 87 29 142 35 50 6 106 15 125 19 19 5 57 9 83 9 45 1 47 0 32 -17z"/>
<path d="M10310 7314 c61 -70 123 -152 132 -172 5 -14 7 -14 7 -2 2 29 -67
119 -139 185 l-44 40 44 -51z"/>
<path d="M10100 7332 c0 -16 37 -52 53 -52 10 0 14 -6 11 -13 -7 -20 21 -41
41 -30 14 8 11 13 -19 33 -19 14 -32 28 -30 32 3 5 -2 11 -10 14 -9 3 -13 10
-10 15 3 5 -4 9 -15 9 -12 0 -21 -4 -21 -8z"/>
<path d="M10210 7206 c0 -7 17 -31 38 -54 21 -23 47 -58 58 -77 24 -45 31 -44
28 4 -3 61 -58 135 -101 138 -13 1 -23 -4 -23 -11z"/>
<path d="M5616 7063 c-1 -1 -101 -3 -221 -4 -201 -2 -302 -6 -635 -23 -397
-22 -1122 -87 -1266 -115 -28 -5 -79 -13 -114 -16 -60 -5 -316 -53 -410 -76
-222 -55 -389 -115 -441 -159 l-32 -26 28 -57 c45 -90 50 -93 131 -58 217 92
593 169 1124 231 376 44 642 65 1070 85 179 8 363 17 410 20 222 13 950 17
1160 7 124 -6 342 -16 485 -22 824 -34 1331 -83 1920 -186 297 -52 761 -181
934 -260 41 -19 83 -34 95 -34 23 0 53 18 106 63 43 36 35 51 -49 94 -310 159
-841 293 -1541 387 -434 59 -1353 122 -2065 141 -239 7 -685 12 -689 8z"/>
<path d="M10439 7059 c-1 -8 0 -18 1 -24 11 -44 8 -69 -8 -81 -16 -13 -16 -13
1 -14 19 0 21 -3 8 -28 -5 -9 -17 -51 -26 -92 -10 -41 -24 -82 -31 -91 -8 -9
-11 -19 -7 -22 3 -4 -1 -7 -10 -7 -10 0 -19 -11 -23 -27 -12 -46 -51 -108 -68
-107 -10 1 -27 -18 -43 -47 -15 -28 -32 -48 -39 -45 -10 4 -22 -16 -28 -49 -1
-5 -8 -9 -15 -7 -6 1 -28 -16 -48 -38 -20 -22 -42 -40 -49 -40 -7 0 -21 -16
-30 -35 -9 -19 -21 -35 -26 -35 -6 0 -67 -58 -137 -128 -124 -127 -515 -504
-701 -678 -52 -49 -149 -141 -215 -204 -66 -63 -154 -146 -196 -185 -41 -38
-107 -99 -145 -135 -39 -36 -110 -101 -159 -145 -48 -44 -100 -91 -115 -105
-15 -14 -63 -56 -106 -95 -98 -87 -144 -133 -144 -144 0 -5 -9 -11 -20 -14
-23 -6 -27 -27 -5 -27 7 0 19 -8 24 -17 7 -11 11 -13 11 -5 0 17 62 12 68 -5
5 -17 -50 -17 -93 -2 -44 16 -74 6 -128 -43 -217 -201 -316 -286 -361 -310
-24 -13 -265 20 -308 43 -10 5 -24 9 -32 9 -9 0 -12 7 -9 20 3 11 9 20 14 20
5 0 5 7 2 17 -4 10 -2 14 4 10 5 -3 10 0 10 8 0 8 -7 15 -16 15 -14 0 -14 2
-1 10 13 8 13 10 0 10 -9 0 -2 12 18 30 18 17 28 30 21 30 -7 0 -9 3 -6 6 4 4
15 1 24 -7 10 -7 15 -9 10 -4 -8 10 21 45 38 45 6 0 24 13 40 30 16 16 30 28
33 26 8 -8 72 63 72 81 0 14 2 15 9 4 7 -11 10 -11 17 0 5 8 9 24 9 37 1 18
-4 22 -33 22 -22 0 -40 -8 -55 -23 -12 -13 -30 -27 -41 -30 -10 -4 -16 -13
-13 -22 4 -9 1 -12 -10 -8 -8 3 -19 0 -24 -8 -7 -11 -9 -11 -9 4 0 17 -24 24
-33 10 -2 -5 -2 -2 -1 5 6 21 -6 13 -15 -11 -11 -29 -44 -33 -35 -5 8 25 -13
23 -27 -3 -8 -15 -8 -19 0 -15 6 4 11 2 11 -5 0 -6 8 -18 18 -26 9 -8 11 -12
5 -8 -23 11 -53 14 -53 4 0 -5 6 -9 13 -9 8 0 9 -3 1 -8 -6 -4 -10 -15 -8 -24
1 -10 -2 -20 -7 -24 -5 -3 -9 0 -9 6 0 6 -4 9 -9 5 -5 -3 -13 0 -17 6 -4 7 -3
9 3 6 6 -4 14 0 17 9 4 11 2 15 -7 11 -10 -4 -13 1 -9 18 2 12 -2 26 -9 30 -8
5 -10 4 -5 -3 10 -16 -13 -94 -25 -87 -5 4 -12 -1 -15 -9 -3 -9 -11 -13 -17
-9 -6 4 -8 0 -4 -11 4 -11 3 -15 -4 -10 -6 3 -9 17 -6 30 2 13 1 21 -3 19 -8
-5 -24 -65 -21 -79 1 -5 -6 -5 -16 -1 -35 16 -89 11 -133 -12 -61 -31 -80 -47
-80 -67 0 -9 -13 -25 -30 -34 -30 -17 -39 -32 -20 -32 6 0 10 -4 10 -10 0 -6
-28 -10 -63 -10 -58 0 -63 2 -64 23 0 12 1 17 4 10 2 -7 11 -9 19 -6 11 4 13
14 9 35 -6 26 -1 35 38 72 24 24 57 46 73 49 37 7 90 47 75 56 -6 4 16 27 49
51 33 25 60 48 60 53 0 4 5 7 11 7 6 0 8 -7 5 -16 -4 -10 -1 -14 6 -11 7 2 13
10 14 18 2 26 16 49 30 49 8 0 14 4 14 10 0 15 62 44 69 32 8 -13 85 52 80 67
-6 15 -69 -28 -69 -47 0 -12 -2 -14 -8 -5 -6 10 -21 4 -58 -21 -126 -86 -273
-177 -315 -194 -29 -13 -63 -40 -90 -71 l-44 -52 -50 6 c-72 8 -107 -4 -127
-46 -16 -32 -24 -36 -109 -58 -80 -21 -93 -22 -100 -9 -22 40 -58 64 -239 156
-158 80 -442 236 -597 328 -26 15 -27 15 -8 -1 26 -21 144 -97 275 -175 162
-98 343 -220 359 -243 13 -19 17 -100 5 -118 -2 -4 -24 -1 -48 6 -26 8 -94 13
-170 13 -121 0 -128 1 -160 26 -19 14 -39 26 -45 26 -5 0 -13 9 -16 20 -4 11
-10 18 -15 15 -5 -3 -12 4 -15 16 -4 11 -9 18 -13 15 -3 -3 -12 3 -20 15 -8
11 -20 18 -28 15 -8 -3 -13 -2 -13 2 3 19 -2 32 -12 32 -6 0 -8 -7 -5 -17 4
-10 4 -14 0 -10 -4 4 -14 1 -22 -6 -12 -9 -12 -7 1 14 16 24 16 26 -7 46 -24
21 -25 21 -41 3 -10 -11 -14 -24 -10 -32 6 -10 5 -10 -5 -1 -11 10 -10 16 4
32 17 19 14 47 -4 36 -5 -3 -11 4 -15 15 -9 28 -61 64 -71 49 -5 -8 -3 -9 6
-4 9 6 11 4 5 -5 -6 -10 -11 -10 -20 3 -7 9 -16 13 -21 9 -4 -4 -2 2 6 12 10
13 10 17 3 12 -8 -4 -13 -1 -13 9 0 11 -7 14 -26 11 -21 -4 -23 -2 -14 9 9 11
7 12 -8 8 -10 -2 -27 3 -36 12 -22 22 -63 12 -93 -21 -22 -25 -22 -25 -33 -4
-7 12 -16 18 -23 13 -7 -4 -20 -6 -29 -5 -9 2 -19 -6 -23 -18 -3 -11 -10 -20
-15 -20 -5 0 -7 -7 -3 -16 5 -14 8 -13 20 7 l14 24 -6 -28 c-5 -26 -4 -27 21
-21 19 5 25 4 20 -5 -4 -6 -12 -9 -17 -6 -15 10 -10 -4 9 -22 54 -54 123 -104
133 -97 8 5 9 3 4 -5 -5 -8 6 -24 31 -44 21 -18 39 -30 41 -27 1 3 9 -4 17
-15 10 -14 11 -25 4 -38 -7 -13 -6 -23 1 -30 6 -6 11 -21 11 -32 0 -18 -12
-25 -67 -43 -38 -12 -99 -24 -138 -27 -38 -4 -71 -8 -73 -10 -6 -5 -65 17 -78
29 -7 6 -29 25 -49 41 -21 17 -46 38 -57 47 -12 10 -25 15 -31 11 -5 -3 -7 -1
-4 4 8 13 -18 37 -32 29 -5 -4 -7 3 -3 16 3 14 1 19 -6 14 -6 -3 -15 2 -21 11
-5 10 -11 16 -14 13 -2 -3 -11 2 -20 11 -9 9 -13 20 -9 24 4 5 -1 5 -10 2 -12
-4 -15 -2 -11 9 3 9 -1 14 -12 14 -10 0 -13 5 -9 12 5 8 2 9 -9 5 -12 -4 -17
-1 -17 9 0 11 -5 14 -17 10 -10 -4 -14 -4 -11 0 12 12 -12 46 -29 40 -9 -4
-13 -1 -11 6 5 13 -32 48 -50 48 -5 0 -12 -7 -16 -15 -6 -17 -36 -21 -36 -5 0
16 -28 12 -48 -7 -22 -21 -42 -27 -42 -13 0 14 -54 12 -68 -2 -14 -14 -16 -42
-2 -33 6 3 10 1 10 -5 0 -6 25 -36 55 -66 30 -31 55 -61 55 -67 0 -6 3 -7 6
-4 4 3 16 -5 27 -19 11 -14 26 -23 34 -20 8 3 11 1 8 -4 -3 -5 4 -20 17 -33
52 -54 91 -106 68 -92 -9 6 -10 2 -5 -16 4 -13 12 -29 16 -35 12 -14 -25 -25
-96 -30 -27 -1 -84 -6 -126 -10 -102 -9 -125 3 -251 132 -86 87 -104 101 -117
91 -14 -10 -14 -10 -3 5 12 15 5 25 -52 82 -80 79 -99 91 -116 71 -20 -24 -33
-6 -16 20 18 27 12 55 -11 55 -11 0 -14 -8 -11 -30 4 -27 0 -32 -39 -51 -24
-12 -46 -20 -48 -18 -7 7 40 54 54 54 8 0 15 14 17 37 3 36 -2 42 -219 262
-618 626 -746 759 -882 922 -238 284 -370 490 -460 714 -40 100 -85 274 -85
330 0 10 -4 21 -10 25 -11 7 -5 -155 11 -305 17 -165 73 -329 171 -498 26 -46
48 -88 48 -93 0 -5 4 -9 8 -9 5 0 14 -11 20 -24 17 -37 158 -232 266 -367 111
-138 199 -236 440 -494 438 -469 458 -487 487 -462 7 7 6 3 -4 -9 -20 -24 -12
-40 10 -18 18 17 33 10 33 -16 0 -26 15 -33 41 -20 11 7 33 13 47 15 15 2 21
2 14 -1 -6 -3 -10 -10 -6 -15 3 -5 -8 -12 -24 -15 -65 -13 -43 -57 114 -221
23 -24 39 -43 36 -43 -3 0 3 -9 13 -20 10 -11 22 -17 26 -14 5 3 6 -1 3 -9 -3
-8 -1 -18 4 -21 6 -3 8 -15 5 -26 -3 -11 2 -27 12 -36 24 -24 3 -34 -66 -32
-30 1 -89 -2 -131 -7 -74 -8 -79 -7 -119 19 -23 15 -55 44 -73 64 -17 20 -41
47 -53 59 -12 13 -20 23 -18 23 2 0 -6 11 -18 23 -12 13 -33 39 -47 57 -14 19
-31 39 -38 47 -7 7 -11 13 -7 13 3 0 0 6 -7 14 -7 7 -19 11 -25 9 -8 -3 -13 2
-13 12 0 14 -6 16 -31 11 -18 -3 -38 -14 -45 -24 -8 -10 -13 -12 -14 -4 0 14
-46 16 -55 2 -3 -5 -12 -10 -18 -9 -9 0 -9 2 1 6 6 2 12 12 12 20 0 12 8 14
32 11 28 -5 53 4 87 29 3 2 -4 10 -15 18 -10 8 -16 15 -12 15 4 0 -3 10 -15
23 -12 12 -42 46 -67 76 -44 53 -81 94 -197 221 -100 108 -273 312 -323 379
-14 19 -30 39 -36 45 -21 22 -130 173 -184 256 -158 241 -246 432 -295 640
-35 148 -34 142 -43 137 -11 -8 5 -261 23 -350 35 -174 126 -399 217 -535 18
-28 44 -70 58 -93 47 -80 193 -284 279 -389 176 -216 353 -425 372 -438 10 -7
19 -20 19 -28 0 -13 8 -14 40 -9 42 7 57 -8 20 -20 -26 -8 -25 -14 6 -50 14
-16 40 -50 57 -75 17 -25 33 -47 37 -50 3 -3 17 -21 30 -40 13 -19 27 -37 30
-40 18 -15 50 -80 40 -80 -9 0 -7 -8 3 -24 20 -30 17 -31 -102 -52 -135 -23
-143 -19 -270 151 -137 184 -128 176 -181 164 -25 -6 -57 -13 -72 -16 -41 -8
-41 -27 1 -90 105 -160 131 -204 126 -213 -3 -5 1 -20 10 -34 19 -29 20 -28
-76 -55 -79 -22 -113 -19 -143 12 -26 27 -93 131 -140 218 -38 70 -45 73 -115
53 -41 -11 -61 -22 -61 -32 0 -8 28 -64 61 -124 54 -95 75 -146 82 -197 1 -8
-21 -22 -58 -36 -52 -20 -63 -21 -85 -10 -28 14 -103 135 -145 232 -15 34 -33
64 -41 67 -17 7 -84 -32 -84 -48 0 -18 33 -111 65 -181 15 -33 29 -71 32 -84
2 -14 8 -31 12 -39 13 -23 -75 -67 -106 -53 -34 15 -83 124 -108 239 -8 40
-32 40 -54 1 -13 -23 -13 -36 2 -110 9 -46 26 -112 37 -147 16 -47 18 -67 10
-82 -14 -27 -58 -37 -77 -17 -26 26 -53 128 -68 255 -18 147 -24 174 -38 165
-7 -4 -8 -65 -3 -187 4 -100 9 -212 10 -249 3 -110 24 -112 184 -20 124 71
241 127 334 161 l57 21 12 -37 c41 -129 128 -250 287 -404 250 -241 366 -319
782 -526 587 -294 1069 -468 1775 -642 511 -126 828 -180 1045 -180 125 0 217
18 302 59 56 26 94 33 348 65 464 59 788 114 1045 177 94 23 413 127 435 141
12 7 11 8 -5 3 -11 -3 -51 -15 -90 -26 -38 -10 -117 -33 -175 -50 -58 -17
-128 -34 -157 -39 -29 -4 -67 -13 -85 -18 -18 -6 -66 -16 -107 -22 -41 -6 -77
-13 -81 -15 -3 -2 -29 -7 -56 -10 -27 -3 -71 -12 -99 -20 -27 -7 -81 -17 -120
-20 -38 -4 -79 -10 -90 -12 -11 -3 -42 -6 -70 -7 -27 -2 -70 -9 -95 -15 -25
-7 -81 -15 -125 -16 l-80 -4 39 20 c22 10 44 18 50 18 6 -1 22 0 36 1 21 2 19
4 -10 9 l-35 7 60 22 c50 20 61 21 70 9 12 -16 82 -30 90 -17 3 4 -1 10 -7 13
-16 6 53 37 81 37 11 0 21 -5 23 -12 3 -8 9 -8 24 0 10 6 13 12 7 12 -25 0
-13 18 25 36 26 12 66 18 134 20 54 1 114 8 135 15 27 9 38 9 41 0 2 -6 9 -11
15 -11 5 0 7 3 4 7 -10 9 33 53 53 53 9 0 20 4 26 9 5 5 59 12 119 15 116 5
135 9 175 37 14 9 42 20 63 24 20 4 37 11 37 15 0 4 14 6 30 5 17 -1 30 1 30
5 0 4 16 7 36 8 47 2 91 18 189 69 44 23 94 50 112 58 22 12 30 22 27 33 -5
14 -3 13 10 -2 11 -14 19 -16 28 -8 7 5 24 10 38 10 14 0 40 3 58 7 17 3 32 2
32 -3 0 -5 17 -8 38 -6 53 3 52 3 52 18 0 8 8 17 18 20 10 4 19 13 19 22 0 9
-6 13 -16 9 -9 -3 -1 8 17 24 17 16 32 34 32 40 0 6 5 11 11 11 6 0 9 7 6 14
-4 9 2 17 14 21 10 4 17 10 15 14 -7 10 47 7 65 -5 8 -4 22 -7 33 -5 10 1 15
-2 12 -7 -16 -26 42 -18 64 9 12 14 52 20 65 9 11 -9 16 -7 24 7 14 27 1 42
-32 36 -20 -4 -25 -8 -16 -14 10 -6 8 -8 -7 -7 -28 3 -25 42 4 46 15 2 20 10
19 26 -4 48 111 153 151 139 6 -3 12 1 12 8 0 7 3 9 6 6 4 -4 20 3 36 14 16
12 36 18 45 15 8 -4 23 -1 32 6 13 10 14 10 4 -2 -15 -16 -17 -34 -4 -26 14 9
70 -5 68 -17 -1 -6 3 -12 8 -12 6 -1 18 -5 28 -9 9 -5 25 -5 35 -2 27 10 -25
-29 -108 -81 -121 -74 -218 -123 -233 -117 -8 3 -18 1 -22 -5 -4 -7 1 -9 12
-5 10 3 5 -2 -12 -12 -16 -9 -77 -44 -135 -78 -98 -57 -256 -138 -393 -201
-101 -47 -55 -37 69 14 277 114 513 230 839 413 549 309 960 605 1066 769 18
27 33 49 33 49 23 0 174 -52 246 -85 53 -25 112 -45 130 -45 29 0 32 2 25 23
-14 46 -24 103 -24 137 0 30 2 32 10 15 17 -36 2 49 -32 181 -34 131 -46 158
-28 58 11 -59 7 -243 -6 -276 -4 -10 -15 -18 -24 -18 -26 0 -71 24 -71 37 0 7
11 52 25 99 29 100 32 165 9 188 -13 14 -13 16 -1 16 18 0 27 21 27 61 0 18 4
28 10 24 6 -3 10 -1 10 4 0 6 -4 11 -10 11 -5 0 -9 8 -7 18 1 9 -4 52 -12 94
-14 78 -31 96 -31 32 0 -19 -7 -70 -16 -112 -9 -42 -17 -81 -18 -87 -9 -46
-83 -244 -100 -267 -18 -24 -109 -27 -140 -5 -17 12 -16 17 10 82 15 39 32 77
39 85 22 27 55 109 55 135 0 16 -6 25 -16 25 -8 0 -12 5 -9 10 3 6 14 10 23
10 51 0 134 265 133 423 -1 77 -38 280 -40 217 -2 -60 -29 -192 -56 -275 -21
-65 -116 -272 -153 -335 -5 -8 -22 -42 -37 -75 -33 -70 -124 -214 -148 -234
-13 -10 -34 -11 -89 -6 -112 11 -114 13 -75 87 18 34 40 71 50 82 9 11 17 25
17 32 0 6 7 18 17 25 20 17 56 96 58 127 0 17 -5 22 -22 22 -13 0 -23 5 -23
11 0 7 12 9 34 5 32 -6 37 -3 80 46 60 69 216 381 251 503 15 50 32 131 40
180 12 84 11 100 -9 215 l-22 125 -8 -65 c-17 -146 -84 -355 -158 -490 -78
-144 -146 -255 -218 -360 -43 -63 -75 -117 -69 -118 16 -6 10 -22 -9 -22 -11
0 -36 -25 -62 -62 -75 -109 -178 -242 -200 -260 -11 -10 -31 -18 -45 -18 -38
0 -171 21 -184 29 -14 9 48 136 79 163 11 9 20 19 20 23 0 4 18 27 40 52 22
25 40 50 40 55 0 5 7 16 15 24 17 17 20 34 5 34 -5 0 -7 7 -4 15 4 8 17 15 29
15 25 0 46 19 23 21 -8 0 -6 3 4 7 16 7 77 73 143 156 17 21 36 44 43 51 6 8
12 18 12 24 0 6 5 11 10 11 6 0 10 7 10 15 0 8 4 15 8 15 5 0 32 35 60 78 28
42 64 95 81 117 83 113 211 388 245 525 39 156 43 227 22 361 l-20 124 -7 -61
c-28 -236 -136 -488 -335 -781 -83 -121 -112 -161 -177 -243 -15 -19 -31 -39
-35 -45 -19 -25 -171 -206 -219 -262 -30 -34 -52 -67 -48 -73 3 -5 0 -10 -8
-10 -8 0 -21 -8 -28 -19 -37 -50 -219 -262 -262 -304 l-49 -48 -101 7 c-56 3
-115 13 -130 21 -25 13 -27 16 -15 31 8 9 20 31 28 47 18 38 53 89 63 93 4 2
7 8 7 13 0 5 20 29 45 55 25 25 43 50 40 55 -4 5 0 9 8 9 7 0 20 12 28 28 19
38 22 49 9 32 -9 -12 -10 -10 -8 10 2 20 10 26 39 30 43 8 88 39 89 63 0 9 4
17 9 17 5 0 40 31 78 69 64 65 88 91 173 191 19 23 46 54 60 69 105 117 148
168 165 195 10 17 23 33 27 36 4 3 39 48 77 100 39 52 85 114 102 138 88 118
192 310 244 448 39 103 50 150 70 279 12 83 11 101 -8 220 l-21 130 -8 -76
c-25 -269 -145 -527 -406 -872 -64 -86 -215 -273 -231 -287 -5 -4 -92 -100
-196 -216 -33 -36 -368 -385 -407 -424 -27 -26 -48 -49 -48 -51 0 -7 -136
-153 -251 -270 -62 -64 -117 -111 -133 -115 -27 -6 -117 -1 -226 14 -64 9 -63
6 -14 106 18 38 31 73 27 79 -4 6 -1 7 6 2 8 -4 25 6 46 26 18 19 53 53 78 77
25 23 43 42 40 42 -3 0 14 16 37 35 46 38 39 52 -21 43 -27 -4 -28 -3 -15 11
10 9 30 14 56 13 41 -3 94 23 113 56 5 7 71 76 148 152 76 75 139 143 139 149
0 6 5 11 11 11 15 0 453 448 566 579 21 24 61 70 88 101 28 31 66 76 85 100
19 24 49 59 66 79 16 20 58 74 93 121 34 47 69 93 77 103 8 9 14 20 14 24 0 3
6 14 14 22 25 29 112 205 139 281 67 193 78 270 57 417 -15 105 -17 114 -24
78 -29 -158 -54 -239 -109 -355 -129 -270 -379 -570 -958 -1149 -531 -530
-739 -731 -758 -731 -10 0 -22 -7 -25 -16 -8 -22 -8 -26 4 -19 6 3 10 1 10 -4
0 -6 -6 -11 -13 -11 -8 0 -86 -71 -174 -158 -220 -218 -215 -214 -300 -207
-79 8 -223 32 -230 39 -2 2 1 15 8 28 7 12 12 26 11 31 -1 4 2 7 7 7 5 0 8 11
7 25 -2 13 1 22 5 19 5 -3 9 4 9 16 0 13 4 19 12 14 7 -5 9 0 6 14 -4 13 -2
19 6 16 7 -3 18 7 24 20 6 14 17 23 24 21 7 -3 20 4 28 16 8 12 24 32 35 43
11 12 19 25 17 29 -1 5 2 6 6 3 14 -9 74 54 68 70 -3 8 1 14 10 14 8 0 12 5 8
11 -3 6 -20 9 -36 7 -37 -6 -43 4 -18 27 11 10 20 13 20 8 0 -14 43 -25 64
-17 8 3 18 14 21 24 4 12 12 16 26 13 15 -4 35 8 75 48 30 29 54 49 55 44 0
-6 4 0 9 13 5 12 16 22 24 22 8 0 18 9 21 20 4 11 10 18 14 15 5 -2 47 33 94
78 103 99 124 117 137 117 6 0 10 5 10 11 0 6 16 26 35 45 20 19 32 34 28 34
-5 0 7 8 24 16 18 9 30 20 28 25 -3 4 10 19 30 32 19 13 32 27 28 30 -3 4 4 7
16 7 12 0 19 4 16 10 -3 6 0 10 7 10 7 0 19 14 27 31 9 20 18 28 28 25 11 -4
13 -2 9 9 -3 8 0 15 5 15 6 0 33 23 59 50 26 28 52 50 57 50 14 0 73 67 66 74
-4 3 1 6 10 6 10 0 17 7 17 15 0 8 3 14 8 13 18 -4 42 16 42 36 0 16 2 18 9 7
7 -11 16 -4 38 32 15 25 34 47 41 47 17 0 43 26 35 34 -4 3 1 6 11 6 9 0 15 3
13 8 -5 7 20 35 25 30 6 -6 47 29 50 42 3 14 14 25 96 101 17 16 32 34 32 39
0 6 6 10 13 10 6 0 31 22 55 50 23 27 52 52 63 55 10 4 17 11 13 16 -3 6 7 22
23 36 106 96 235 230 288 301 6 7 28 33 50 57 72 78 84 94 140 179 47 72 91
157 125 241 56 136 71 369 28 423 -10 12 -10 14 0 8 17 -10 15 9 -3 24 -12 10
-15 10 -16 -1z m-5239 -2689 c0 -5 -5 -10 -11 -10 -5 0 -7 5 -4 10 3 6 8 10
11 10 2 0 4 -4 4 -10z m12 -32 c-6 -6 -7 0 -4 19 5 21 7 23 10 9 2 -10 0 -22
-6 -28z m3538 -38 c0 -5 -13 -10 -30 -10 -16 0 -30 5 -30 10 0 6 14 10 30 10
17 0 30 -4 30 -10z m106 -11 c3 -5 -10 -9 -30 -9 -19 0 -43 -3 -53 -7 -14 -5
-14 -2 4 14 23 20 67 21 79 2z m-5166 -14 c0 -8 -7 -15 -15 -15 -26 0 -18 20
13 29 1 1 2 -6 2 -14z m3488 -20 c-6 -14 -13 -23 -15 -21 -5 5 15 46 22 46 3
0 -1 -11 -7 -25z m-1948 -29 c0 -2 -8 -10 -17 -17 -16 -13 -17 -12 -4 4 13 16
21 21 21 13z m224 -17 c-3 -5 -10 -7 -15 -3 -5 3 -7 10 -3 15 3 5 10 7 15 3 5
-3 7 -10 3 -15z m1786 17 c0 -3 -4 -8 -10 -11 -5 -3 -10 -1 -10 4 0 6 5 11 10
11 6 0 10 -2 10 -4z m-1862 -20 c-7 -8 -15 -12 -17 -11 -5 6 10 25 20 25 5 0
4 -6 -3 -14z m4017 4 c-3 -5 -20 -10 -36 -10 -18 0 -28 4 -24 10 3 6 20 10 36
10 18 0 28 -4 24 -10z m68 -7 c-7 -2 -21 -2 -30 0 -10 3 -4 5 12 5 17 0 24 -2
18 -5z m-6293 -7 c0 -3 -4 -8 -10 -11 -5 -3 -10 -1 -10 4 0 6 5 11 10 11 6 0
10 -2 10 -4z m2134 -54 c3 -5 -1 -9 -9 -9 -8 0 -12 4 -9 9 3 4 7 8 9 8 2 0 6
-4 9 -8z m4630 -11 c3 -5 -10 -11 -29 -13 -34 -4 -43 1 -28 15 9 10 51 8 57
-2z m66 -11 c11 -7 6 -10 -20 -10 -26 0 -31 3 -20 10 8 5 17 10 20 10 3 0 12
-5 20 -10z m-5287 -25 c-3 -9 -8 -14 -10 -11 -3 3 -2 9 2 15 9 16 15 13 8 -4z
m1913 -40 c-1 -21 -6 -25 -31 -25 l-30 1 28 15 c15 8 25 19 22 24 -4 6 -2 10
3 10 6 0 9 -11 8 -25z m404 15 c0 -5 -9 -10 -19 -10 -11 0 -23 5 -26 10 -4 6
5 10 19 10 14 0 26 -4 26 -10z m-872 -25 c-3 -3 -9 2 -12 12 -6 14 -5 15 5 6
7 -7 10 -15 7 -18z m4227 -5 c4 -6 -5 -10 -20 -10 -15 0 -24 4 -20 10 3 6 12
10 20 10 8 0 17 -4 20 -10z m-3945 -30 c0 -11 5 -20 10 -20 18 0 10 -25 -12
-40 -23 -14 -41 -20 -65 -22 -7 -1 -13 -5 -13 -10 0 -5 -4 -6 -10 -3 -5 3 -10
3 -10 -2 0 -4 -28 -17 -62 -28 -35 -11 -68 -26 -75 -35 -7 -10 -30 -15 -65
-16 -30 -1 -69 -9 -87 -19 -18 -9 -47 -18 -63 -20 -16 -2 -41 -12 -56 -23 -23
-15 -106 -38 -210 -58 -22 -4 -100 -50 -112 -65 -3 -4 -21 -13 -40 -21 -19 -9
-53 -32 -74 -51 -42 -39 -55 -42 -37 -9 17 32 13 39 -19 40 -17 0 -43 10 -59
21 -15 11 -31 18 -35 14 -3 -3 -6 1 -6 10 0 9 -3 17 -7 16 -5 -1 -18 2 -30 6
-18 6 -21 11 -12 26 5 11 20 19 34 19 14 0 25 4 25 10 0 15 219 11 228 -5 9
-16 53 -26 66 -16 6 5 39 23 73 40 43 22 60 36 56 46 -3 8 2 18 11 21 12 5 13
10 5 26 -14 25 -15 24 119 90 82 40 110 49 135 44 18 -3 35 -5 38 -3 3 1 14
-6 24 -17 12 -12 21 -14 23 -7 2 6 10 11 18 11 8 0 11 6 8 15 -4 8 -1 15 6 15
6 0 9 -4 5 -9 -3 -5 -1 -12 5 -16 5 -3 10 -1 10 5 0 6 8 10 17 8 12 -2 18 4
18 16 0 24 23 33 31 12 8 -21 48 -20 104 4 61 26 90 26 90 0z m56 3 c-2 -10
-9 -18 -17 -18 -7 0 -15 8 -17 18 -2 11 3 17 16 17 14 0 19 -6 18 -17z m50 2
c-11 -8 -25 -15 -30 -15 -6 1 0 7 14 15 32 19 40 18 16 0z m4181 -91 c-3 -3
-12 -4 -19 -1 -8 3 -5 6 6 6 11 1 17 -2 13 -5z m-3998 -13 c11 -1 11 -4 1 -16
-9 -11 -9 -15 -1 -15 7 0 10 -4 7 -9 -3 -4 -17 -6 -31 -3 -17 3 -25 0 -25 -10
0 -16 -45 -59 -54 -51 -3 3 -11 2 -18 -3 -7 -5 -25 -9 -40 -8 -16 0 -28 -2
-28 -5 0 -4 -16 -6 -35 -6 -19 1 -32 -1 -30 -5 2 -4 -22 -7 -53 -7 -48 0 -53
2 -29 9 15 6 25 14 22 19 -4 5 2 6 12 3 15 -5 16 -4 3 5 -8 6 -26 11 -40 11
-49 1 -68 29 -21 33 11 1 21 7 21 14 0 20 20 26 112 30 49 2 105 7 126 12 20
5 48 8 62 6 14 -2 31 -4 39 -4z m-424 -60 c3 -6 -10 -13 -30 -17 -19 -3 -35
-10 -35 -16 0 -5 5 -6 10 -3 6 3 10 2 10 -2 0 -5 12 -15 26 -24 21 -13 23 -17
10 -22 -9 -4 -16 -2 -16 4 0 6 -7 6 -17 1 -38 -19 -80 19 -46 41 7 4 9 15 6
24 -4 11 -3 14 5 9 7 -4 12 -2 12 3 0 14 57 15 65 2z m40 -39 c-3 -3 -11 0
-18 7 -9 10 -8 11 6 5 10 -3 15 -9 12 -12z m-189 -7 c-19 -15 -46 -20 -46 -10
0 6 40 24 55 24 6 0 1 -6 -9 -14z m819 -182 c-9 -38 -72 -95 -96 -88 -10 4
-19 2 -19 -3 0 -6 -24 -13 -52 -17 -85 -10 -120 -24 -113 -44 4 -9 9 -22 12
-28 3 -7 -1 -13 -8 -13 -6 0 17 -30 52 -67 53 -57 71 -69 104 -73 31 -4 41
-10 46 -30 7 -25 7 -25 8 -2 1 30 25 54 45 46 9 -3 16 -2 16 4 0 6 22 9 51 8
35 -2 52 1 56 11 3 7 12 13 20 13 12 0 13 -3 3 -15 -17 -21 -4 -54 20 -48 11
3 20 9 20 14 0 4 4 19 9 33 13 31 41 25 64 -14 17 -27 16 -29 -3 -35 -11 -3
-21 -11 -21 -16 -1 -5 -2 -13 -3 -19 -5 -38 -64 -42 -97 -8 -25 27 -27 27 -43
9 -9 -10 -14 -25 -10 -35 4 -9 1 -16 -6 -16 -8 0 -11 12 -7 38 3 20 3 29 1 20
-3 -10 -13 -18 -23 -18 -9 0 -26 -7 -37 -15 -25 -19 -44 -19 -44 0 0 17 -18
19 -39 6 -11 -7 -16 -38 -21 -114 0 -5 -5 -5 -10 -2 -6 4 -7 12 -4 18 4 7 4 9
-1 5 -4 -4 -14 -3 -22 3 -10 9 -13 7 -14 -7 0 -11 -3 -14 -6 -6 -2 6 -9 12
-14 12 -4 0 -6 -7 -2 -16 4 -11 -1 -22 -12 -30 -27 -20 -35 -17 -35 12 0 35
17 64 39 64 22 0 21 31 -2 55 -9 9 -21 24 -26 34 -14 25 -109 69 -167 76 -56
7 -84 -8 -84 -46 0 -19 26 -79 39 -89 4 -3 24 -29 45 -58 l38 -52 -1 -98 c-1
-71 -5 -101 -16 -111 -9 -9 -15 -11 -15 -4 0 6 5 13 10 15 6 2 1 9 -10 16 -17
10 -20 10 -20 -4 0 -8 -4 -12 -10 -9 -5 3 -10 0 -10 -8 0 -10 -8 -13 -26 -9
-19 3 -25 1 -20 -7 4 -6 15 -10 23 -9 9 2 18 -3 20 -9 8 -22 -55 -16 -67 6
-13 25 -13 34 0 26 6 -3 10 -1 10 4 0 6 -7 11 -15 11 -8 0 -15 7 -15 16 0 14
8 16 41 11 32 -4 45 -1 60 14 26 26 24 35 -12 48 -17 6 -33 20 -36 31 -3 11
-8 20 -12 20 -10 0 -41 -56 -41 -73 0 -30 -21 -28 -31 2 -6 17 -20 36 -30 42
-17 9 -19 6 -20 -23 -2 -35 0 -103 3 -128 10 -101 -83 -160 -149 -94 -26 26
-27 26 -59 9 -23 -12 -37 -31 -52 -69 -23 -62 -49 -70 -104 -32 -20 13 -40 21
-44 18 -4 -4 -5 0 -2 9 4 9 -2 20 -13 27 -10 7 -28 30 -39 52 -16 30 -26 40
-45 40 -14 0 -25 -4 -25 -8 0 -20 -53 -30 -141 -27 -116 3 -118 3 -97 15 13 8
15 16 7 43 -5 17 -9 33 -9 34 0 2 9 3 20 3 11 0 23 7 26 15 4 8 13 15 21 15
18 0 70 28 101 54 17 15 19 22 10 29 -9 6 -7 7 6 3 27 -9 52 26 59 84 3 28 20
79 37 114 16 35 30 74 29 87 0 13 -3 18 -6 12 -5 -14 -33 -18 -33 -5 1 4 7 18
15 32 8 14 14 34 14 45 0 11 -3 14 -6 7 -2 -6 -9 -10 -14 -6 -5 3 -9 0 -9 -5
0 -6 -3 -10 -7 -10 -30 5 -98 -45 -86 -63 3 -7 1 -8 -5 -4 -6 4 -20 -2 -30
-12 -12 -12 -25 -17 -33 -11 -16 9 -71 0 -81 -14 -5 -9 -34 -15 -83 -18 -25
-2 -116 10 -126 17 -7 4 -10 3 -7 -2 4 -5 -24 -9 -63 -9 l-69 -1 0 32 c0 24
-5 33 -22 38 -15 3 -27 0 -34 -9 -6 -8 -16 -15 -23 -15 -12 0 -15 -16 -3 -23
4 -2 2 -2 -5 -1 -7 2 -15 -1 -18 -7 -4 -5 -22 -16 -41 -24 -19 -8 -38 -25 -43
-38 -5 -13 -22 -37 -36 -53 l-27 -29 7 42 c6 41 6 42 -36 64 -24 12 -49 28
-57 35 -18 19 -22 18 -16 -3 5 -17 5 -17 -6 0 -6 9 -15 15 -19 13 -4 -3 -17 4
-29 14 -12 11 -26 20 -32 20 -5 0 -10 5 -10 11 0 5 -4 7 -10 4 -5 -3 -10 1
-10 10 0 11 -5 15 -15 11 -8 -3 -15 0 -15 6 0 6 -3 9 -6 6 -3 -4 -43 15 -89
42 -46 26 -94 51 -107 55 -28 9 -238 125 -255 141 -7 7 -13 19 -12 26 0 10 2
10 6 1 6 -17 63 -17 63 0 0 7 9 13 20 14 11 1 18 -2 15 -8 -9 -13 19 -11 33 3
9 9 12 8 13 -7 0 -12 3 -15 6 -7 4 9 8 10 18 2 10 -8 15 -8 20 0 5 7 11 8 19
1 7 -6 35 -11 64 -13 29 -2 52 -6 52 -10 0 -4 7 -5 15 -2 8 4 15 2 15 -4 0 -9
38 -20 80 -24 8 0 17 -4 20 -7 3 -4 21 -12 40 -18 148 -49 298 -107 370 -144
8 -4 13 -13 12 -21 -2 -7 -1 -11 1 -8 3 3 6 10 7 15 2 17 32 45 47 45 8 0 11
5 8 10 -3 6 1 10 9 10 8 0 31 16 51 35 29 30 35 33 35 16 0 -11 6 -21 12 -23
9 -3 4 -16 -15 -41 -22 -29 -25 -37 -12 -37 9 0 21 13 26 29 6 16 19 31 30 34
25 7 24 -1 -3 -31 l-23 -24 24 7 c28 9 61 36 61 51 0 19 47 36 104 38 41 1 56
5 56 15 0 11 4 9 15 -5 11 -13 14 -14 13 -4 -2 10 6 15 22 16 14 1 30 3 35 4
30 7 65 -1 65 -16 0 -10 6 -14 15 -11 8 4 17 2 19 -2 8 -12 179 -2 256 14 14
3 36 8 50 11 14 3 40 7 59 10 19 2 37 6 40 9 4 2 13 0 20 -4 7 -5 49 1 94 11
45 11 125 21 177 23 105 3 177 21 415 100 6 2 23 4 39 4 26 1 28 -1 21 -26z
m-3221 -158 c27 -3 56 -10 65 -15 21 -11 68 -31 155 -65 38 -15 77 -31 85 -36
14 -8 65 -31 216 -99 22 -10 79 -36 127 -59 48 -22 89 -41 91 -41 3 0 31 -12
63 -27 33 -15 61 -28 64 -29 9 -2 104 -43 263 -113 23 -10 50 -21 60 -24 11
-4 17 -17 17 -39 0 -38 13 -28 30 24 18 59 34 59 28 2 -6 -63 -41 -139 -74
-161 -14 -9 -30 -27 -35 -39 l-8 -23 -48 24 c-74 37 -135 63 -165 70 -16 4
-28 11 -28 16 0 5 -3 8 -7 7 -5 -1 -21 4 -36 10 -16 7 -33 12 -38 12 -5 0 -9
5 -9 10 0 6 -4 10 -9 10 -5 0 -22 5 -38 12 -15 6 -31 11 -35 10 -5 -1 -8 3 -8
8 0 6 -4 10 -10 10 -5 0 -40 14 -77 32 -38 18 -71 31 -75 30 -5 -1 -8 2 -8 8
0 5 -6 10 -13 10 -7 0 -24 8 -37 17 -14 10 -31 18 -38 20 -8 1 -21 5 -30 9 -9
4 -19 8 -22 9 -16 4 -166 80 -170 87 -3 4 -25 14 -48 22 -24 9 -50 22 -58 31
-9 8 -22 15 -30 15 -8 0 -14 7 -14 15 0 8 -3 14 -7 13 -15 -3 -68 23 -90 44
-12 11 -31 26 -42 32 -94 53 -201 139 -190 151 4 3 40 8 80 11 40 2 75 7 78 9
2 3 9 1 15 -4 6 -5 33 -12 60 -16z m4043 -122 c-5 -8 -44 -28 -102 -53 -16 -7
-40 -12 -52 -11 -11 1 -24 -3 -28 -8 -9 -16 -64 -13 -81 4 -9 8 -11 15 -4 15
6 0 16 11 22 25 8 18 19 25 40 25 15 0 28 -4 28 -8 0 -10 36 -9 46 1 4 4 23 7
43 8 20 1 47 4 61 8 27 8 35 7 27 -6z m-552 -12 c3 -5 1 -12 -4 -15 -5 -3 -11
1 -15 9 -6 16 9 21 19 6z m-4115 -53 c0 -4 13 -8 29 -8 31 0 153 -50 213 -87
21 -13 42 -23 48 -23 5 0 10 -5 10 -11 0 -5 4 -8 9 -4 5 3 12 1 16 -4 3 -6 47
-31 98 -56 51 -26 135 -68 187 -95 111 -56 172 -84 183 -82 4 1 7 -3 7 -9 0
-6 7 -9 15 -5 8 3 15 1 15 -4 0 -6 7 -10 15 -10 8 0 15 -4 15 -10 0 -5 5 -10
11 -10 6 0 71 -29 144 -65 72 -36 136 -65 141 -65 5 0 26 -11 45 -25 20 -13
39 -21 43 -18 3 4 6 1 6 -5 0 -7 6 -12 13 -12 6 -1 30 -9 52 -20 22 -11 43
-19 47 -20 4 0 19 -5 35 -12 15 -6 30 -12 33 -13 3 -1 18 -7 33 -13 15 -7 39
-15 53 -18 13 -3 27 -10 30 -15 3 -5 10 -7 15 -4 5 4 9 1 9 -4 0 -6 5 -11 11
-11 5 0 30 -9 54 -20 80 -36 96 -31 111 35 3 17 8 25 11 18 9 -24 34 0 44 43
7 27 20 49 37 60 l25 16 -6 -50 c-10 -81 -3 -92 53 -90 36 2 54 -3 69 -16 12
-11 21 -16 21 -12 0 4 6 4 12 0 7 -5 22 -9 33 -11 79 -9 202 -14 408 -17 215
-2 239 -4 255 -21 9 -10 11 -15 5 -11 -9 5 -13 0 -13 -13 0 -12 -4 -21 -10
-21 -5 0 -10 -11 -10 -23 0 -15 -9 -29 -22 -36 l-23 -12 23 5 c14 3 22 -1 22
-10 0 -8 -6 -11 -15 -8 -8 4 -15 2 -15 -3 0 -5 -6 -10 -12 -11 -7 0 -56 -4
-108 -7 -52 -4 -101 -12 -109 -18 -11 -9 -13 -9 -8 0 5 7 -1 17 -14 23 -15 8
-19 8 -15 1 5 -7 1 -9 -8 -5 -9 3 -13 10 -10 15 3 5 -2 6 -10 3 -9 -3 -37 -7
-63 -9 -52 -4 -108 -12 -108 -15 0 -3 -43 -9 -90 -13 -16 -1 -42 1 -57 5 -17
4 -28 3 -28 -4 0 -6 -9 -8 -21 -5 -16 4 -18 3 -9 -8 9 -11 3 -11 -40 0 -51 13
-75 25 -52 25 24 0 11 16 -14 18 -14 1 -34 7 -45 12 -12 7 -26 7 -36 2 -28
-14 -81 -25 -63 -12 13 8 13 10 -1 10 -20 0 -39 -20 -39 -42 0 -19 -15 -24
-25 -9 -3 5 -19 12 -35 16 -17 4 -30 10 -30 14 0 4 -19 13 -42 20 -22 7 -48
19 -55 27 -8 8 -25 14 -39 14 -13 0 -24 5 -24 10 0 6 -3 9 -7 8 -20 -5 -94 15
-83 22 6 4 -5 7 -27 7 -26 1 -71 18 -147 57 -95 49 -125 62 -158 65 -4 1 -14
8 -22 17 -12 12 -16 12 -16 2 0 -8 -3 -9 -8 -3 -9 13 -193 105 -209 105 -7 0
-13 5 -13 10 0 6 -5 10 -12 10 -12 0 -299 139 -308 150 -3 3 -16 11 -30 18
-66 34 -80 44 -81 60 0 10 -3 12 -5 5 -7 -16 -51 4 -57 26 -2 9 -14 17 -27 18
-12 1 -29 11 -37 23 -8 11 -19 18 -24 15 -5 -4 -9 -1 -9 5 0 7 -7 10 -15 6 -8
-3 -15 -1 -15 5 0 9 -43 31 -64 33 -5 1 -12 10 -17 21 -4 11 -8 17 -8 13 -1
-4 -9 -1 -18 7 -10 8 -49 40 -88 71 -38 31 -72 60 -73 66 -6 14 18 37 33 32 8
-3 21 -2 30 3 20 12 75 12 75 1z m5510 -49 c0 -18 -90 -92 -127 -103 -13 -4
-23 -11 -23 -16 0 -5 -17 -14 -37 -20 -21 -7 -45 -18 -53 -25 -8 -7 -25 -16
-37 -19 -13 -4 -23 -12 -23 -17 0 -5 -7 -9 -16 -9 -9 0 -43 -16 -75 -35 -32
-20 -81 -43 -109 -51 -37 -11 -50 -19 -46 -30 3 -8 1 -14 -4 -14 -6 0 -10 5
-10 11 0 8 -4 8 -12 2 -23 -18 -82 -35 -148 -43 -36 -4 -83 -11 -105 -14 -26
-3 -33 -2 -20 3 20 9 20 9 1 17 -13 5 -21 3 -24 -5 -4 -11 -6 -11 -14 0 -7 10
-8 6 -5 -13 4 -28 -7 -39 -16 -15 -4 8 -8 8 -14 2 -4 -5 -17 -10 -28 -11 -11
0 -35 -3 -52 -7 -26 -5 -33 -3 -33 9 0 8 -5 12 -10 9 -6 -4 -8 -11 -5 -16 4
-5 -5 -5 -20 1 -15 6 -38 8 -53 5 l-27 -5 25 9 c14 5 46 15 73 22 l48 14 -23
17 -23 18 28 -10 c16 -6 26 -6 22 -1 -3 5 4 12 15 16 11 3 20 14 21 23 0 13 2
14 6 3 3 -8 -2 -20 -13 -28 -17 -12 -17 -13 2 -13 12 0 27 11 34 25 14 27 30
33 30 13 0 -9 2 -10 8 -2 9 15 96 59 88 45 -4 -7 -1 -8 8 -5 9 3 16 10 16 15
0 5 9 9 21 9 13 0 18 4 13 12 -5 8 -2 9 9 5 9 -3 22 -1 29 6 7 7 33 21 58 30
25 10 62 27 82 38 21 11 52 21 69 23 17 2 35 9 39 15 7 12 56 41 69 41 3 0 -1
-5 -9 -11 -11 -8 -8 -9 15 -4 17 4 37 13 46 21 9 8 18 11 22 8 3 -4 21 0 39 9
18 8 45 19 60 22 16 4 25 11 22 16 -3 5 2 6 10 3 9 -3 16 -10 16 -15 0 -5 7
-9 15 -9 8 0 15 6 15 14 0 8 5 16 12 18 18 6 128 4 128 -3z m-5965 -90 c22
-12 69 -36 105 -54 36 -18 79 -44 95 -57 17 -14 57 -40 89 -57 33 -17 83 -49
110 -70 28 -21 78 -52 111 -69 172 -86 301 -154 315 -166 19 -16 105 -56 122
-56 7 -1 36 -14 63 -30 99 -58 285 -144 410 -189 28 -10 86 -35 130 -56 44
-20 104 -48 134 -62 97 -45 146 -65 171 -70 14 -2 44 -13 67 -23 22 -10 65
-25 95 -34 78 -24 163 -69 163 -86 1 -8 7 -14 14 -12 7 1 10 -2 6 -7 -8 -13
23 -29 73 -37 37 -6 41 -4 44 17 5 34 23 33 33 -2 9 -28 17 -34 60 -45 28 -6
92 -17 144 -23 55 -7 99 -18 108 -26 8 -9 18 -13 23 -10 5 3 11 1 14 -4 4 -5
24 -12 46 -16 55 -9 59 -23 5 -17 -60 6 -57 -4 6 -17 28 -6 65 -21 82 -33 18
-13 32 -18 34 -11 5 13 83 -4 83 -18 0 -8 82 -55 88 -49 5 5 72 -11 76 -19 8
-12 -88 -9 -96 3 -5 7 -8 6 -8 -2 0 -8 -5 -10 -12 -6 -7 5 -29 9 -48 10 -19 1
-36 3 -37 4 -2 2 -15 3 -30 4 -16 1 -34 5 -41 10 -7 4 -41 10 -75 12 -33 2
-88 12 -121 22 -82 26 -212 65 -321 97 -222 66 -265 79 -344 106 -45 16 -90
29 -100 29 -9 0 -29 7 -46 16 -16 9 -41 18 -55 20 -14 3 -59 17 -100 33 -41
16 -93 35 -115 42 -22 6 -49 18 -60 24 -11 7 -38 18 -60 25 -22 7 -57 24 -79
37 -21 14 -55 31 -76 38 -21 7 -55 24 -76 37 -22 13 -55 30 -74 38 -19 8 -37
17 -40 20 -3 3 -23 14 -45 24 -81 36 -130 61 -133 69 -2 4 -8 7 -14 7 -13 0
-337 161 -352 175 -6 6 -42 29 -81 50 -38 22 -81 46 -95 55 -14 8 -40 24 -58
35 -19 11 -64 40 -102 65 -170 112 -228 155 -224 162 3 4 -1 8 -9 8 -23 0
-107 100 -103 123 6 39 55 46 111 16z m7413 -59 c-12 -19 -38 -35 -38 -23 0 9
33 42 43 42 4 1 2 -8 -5 -19z m-926 -19 c7 11 9 9 5 -6 -3 -11 -8 -28 -12 -37
-5 -14 -2 -18 12 -18 10 0 24 5 31 12 9 9 12 9 12 0 0 -6 -10 -17 -22 -23 -12
-6 -33 -22 -47 -35 -14 -13 -31 -24 -38 -24 -7 0 -13 -4 -13 -10 0 -5 -5 -10
-10 -10 -6 0 -20 -9 -32 -19 -11 -11 -26 -17 -34 -14 -8 3 -14 -1 -14 -11 0
-9 -5 -16 -10 -16 -6 0 -27 -17 -48 -37 -50 -51 -126 -103 -159 -109 -14 -3
-47 -15 -72 -26 -25 -12 -55 -22 -65 -23 -11 -1 -22 -7 -24 -14 -2 -6 -8 -9
-13 -5 -5 3 -9 0 -9 -5 0 -6 -6 -11 -13 -11 -22 0 -147 -56 -140 -63 3 -4 0
-8 -8 -8 -8 -1 -32 -3 -54 -4 -54 -4 -116 -15 -140 -25 -11 -4 -35 -13 -52
-20 -18 -7 -33 -17 -33 -22 0 -5 -5 -8 -12 -6 -7 3 -25 -8 -40 -24 -15 -16
-28 -26 -28 -22 0 4 -8 0 -17 -8 -23 -21 -107 -17 -133 5 -12 10 -22 12 -26 6
-13 -22 -34 13 -30 50 3 20 5 39 5 43 1 4 19 11 41 14 22 4 43 11 46 15 3 5
12 9 20 9 9 0 40 11 70 25 30 14 60 25 67 25 7 0 24 6 38 14 15 7 51 22 80 31
30 10 91 35 137 56 45 22 86 39 90 39 5 0 28 13 53 29 24 16 56 33 72 36 15 4
27 11 27 16 0 5 4 9 10 9 17 0 135 57 191 92 30 19 86 49 124 67 39 18 78 37
89 43 12 6 21 6 25 0 6 -10 31 -15 64 -13 11 1 17 10 18 29 1 19 3 21 6 8 4
-15 7 -16 15 -5z m-38 -6 c-4 -8 -10 -12 -15 -9 -14 8 -10 24 6 24 9 0 12 -6
9 -15z m876 -37 c0 -14 -68 -64 -76 -56 -4 5 61 68 71 68 3 0 5 -6 5 -12z
m-4778 -83 c3 -27 1 -34 -9 -30 -8 2 -13 -1 -12 -8 3 -27 -2 -36 -18 -30 -11
4 -14 3 -9 -5 5 -8 1 -10 -10 -5 -16 6 -15 8 4 16 24 11 32 67 10 67 -9 1 24
26 38 30 1 0 4 -16 6 -35z m228 24 c0 -4 -18 -7 -39 -7 -22 0 -49 -6 -60 -12
-17 -8 -21 -8 -21 4 0 8 6 16 13 19 18 7 107 3 107 -4z m-213 -21 c-3 -8 -6
-5 -6 6 -1 11 2 17 5 13 3 -3 4 -12 1 -19z m4653 -6 c0 -8 -53 -42 -66 -42 -4
0 5 13 21 30 25 26 45 31 45 12z m-4733 -44 c-3 -7 -5 -2 -5 12 0 14 2 19 5
13 2 -7 2 -19 0 -25z m20 10 c-3 -8 -6 -5 -6 6 -1 11 2 17 5 13 3 -3 4 -12 1
-19z m4533 -19 c0 -6 -4 -7 -10 -4 -5 3 -10 11 -10 16 0 6 5 7 10 4 6 -3 10
-11 10 -16z m70 -9 c0 -12 -53 -40 -77 -40 -12 0 -8 5 12 16 17 8 34 19 40 25
12 12 25 12 25 -1z m-2260 -10 c0 -5 -2 -10 -4 -10 -3 0 -8 5 -11 10 -3 6 -1
10 4 10 6 0 11 -4 11 -10z m53 3 c-7 -2 -19 -2 -25 0 -7 3 -2 5 12 5 14 0 19
-2 13 -5z m-165 -21 c2 -7 12 -12 22 -12 10 0 22 -4 25 -10 3 -5 1 -10 -4 -10
-6 0 -11 -4 -11 -10 0 -5 7 -7 15 -4 11 5 13 2 9 -10 -6 -15 -16 -20 -40 -17
-6 1 -17 -6 -24 -14 -7 -8 -23 -15 -35 -15 -12 0 -38 -7 -58 -15 -19 -8 -38
-11 -41 -7 -4 3 -10 2 -14 -4 -10 -16 -49 -26 -56 -15 -4 5 3 12 14 16 11 3
20 11 20 17 0 5 7 8 15 4 10 -4 15 1 15 15 0 12 12 27 30 37 16 9 32 27 35 40
4 16 11 22 20 18 8 -3 15 -2 15 3 0 12 43 6 48 -7z m2252 -12 c0 -11 6 -20 14
-20 8 0 16 -7 19 -14 4 -10 1 -13 -8 -10 -8 4 -35 -5 -60 -19 -51 -29 -59 -19
-17 19 15 15 28 31 28 38 3 24 4 26 14 26 6 0 10 -9 10 -20z m-2100 -24 c0 -3
-4 -8 -10 -11 -5 -3 -10 -1 -10 4 0 6 5 11 10 11 6 0 10 -2 10 -4z m107 -2
c-3 -3 -12 -4 -19 -1 -8 3 -5 6 6 6 11 1 17 -2 13 -5z m-50 -10 c-3 -3 -12 -4
-19 -1 -8 3 -5 6 6 6 11 1 17 -2 13 -5z m-567 -54 c-13 -9 -13 -10 0 -11 8 -1
18 -1 23 0 4 0 7 -4 7 -10 0 -7 -7 -8 -17 -4 -10 4 -24 8 -30 8 -27 1 -7 24
22 26 6 0 3 -4 -5 -9z m-46 -31 c-3 -6 1 -10 12 -9 33 4 54 0 54 -9 0 -5 -8
-7 -19 -4 -10 3 -22 0 -25 -6 -4 -6 5 -14 21 -18 25 -6 23 -8 -27 -18 -44 -9
-54 -14 -52 -29 3 -14 0 -16 -14 -8 -19 11 -44 -6 -44 -30 0 -10 -3 -9 -10 2
-8 13 -10 13 -10 -2 0 -9 -13 -21 -31 -27 -43 -15 -52 -14 -45 4 3 8 2 14 -2
14 -19 -3 -23 2 -12 16 10 12 10 15 -4 15 -9 0 -16 8 -17 18 0 9 -2 25 -4 34
-2 12 6 19 28 24 18 3 36 9 42 12 5 3 21 7 35 9 15 1 38 7 51 12 34 14 82 14
73 0z m-253 -23 c-14 -15 -20 -30 -16 -37 6 -8 4 -10 -5 -4 -10 6 -12 1 -7
-24 4 -20 3 -30 -3 -26 -6 3 -10 -4 -10 -17 0 -19 -2 -20 -10 -8 -8 12 -11 11
-16 -9 l-7 -23 -14 23 c-13 23 -14 23 -8 2 4 -14 2 -23 -4 -23 -6 0 -11 6 -11
13 0 7 -7 4 -15 -7 -8 -11 -18 -17 -21 -13 -4 4 -13 2 -19 -3 -9 -8 -14 -6
-19 6 -4 11 -10 13 -19 7 -24 -20 -74 -26 -182 -24 -117 3 -187 15 -220 38
l-20 15 20 -6 c11 -3 48 -8 83 -11 57 -5 62 -3 62 15 0 20 14 29 105 63 56 21
173 23 181 2 3 -8 17 -15 30 -15 27 0 74 20 74 31 0 4 10 11 22 15 12 3 31 15
42 25 29 27 34 23 7 -5z m22 -90 c4 -22 3 -35 -2 -30 -5 5 -11 29 -15 54 -3
27 -3 39 3 30 4 -8 11 -33 14 -54z m-1883 14 c0 -5 -4 -10 -10 -10 -5 0 -10 5
-10 10 0 6 5 10 10 10 6 0 10 -4 10 -10z m1857 -12 c-3 -8 -6 -5 -6 6 -1 11 2
17 5 13 3 -3 4 -12 1 -19z m1086 -140 c-2 -4 -13 0 -23 10 -24 20 -25 23 -5
16 9 -4 15 0 16 7 0 8 4 5 8 -6 5 -11 7 -23 4 -27z m-62 13 c7 11 9 9 9 -6 0
-33 -12 -65 -21 -59 -5 3 -9 0 -9 -6 0 -14 -25 -40 -38 -40 -5 0 -15 -7 -22
-15 -6 -8 -15 -14 -18 -13 -4 1 -15 -2 -25 -7 -9 -4 -26 -5 -37 -2 -11 3 -20
2 -20 -3 0 -8 -60 2 -79 15 -7 3 -9 15 -6 25 7 21 -23 36 -39 20 -7 -7 -6 -10
3 -10 7 0 11 -6 8 -12 -2 -7 -15 -13 -28 -13 -14 0 -23 -5 -22 -12 2 -7 -9
-16 -25 -19 -54 -13 -121 -46 -116 -58 5 -12 -63 -42 -73 -33 -3 3 -15 2 -27
-2 -14 -6 -25 -4 -34 5 -7 8 -18 11 -24 8 -7 -5 -9 -2 -5 8 3 9 0 21 -6 27
-14 14 2 31 32 34 11 1 21 4 21 8 0 6 62 40 80 44 3 1 18 7 33 13 16 7 31 12
33 12 3 0 25 9 50 21 25 11 53 19 62 18 9 -1 24 1 32 4 8 3 38 10 65 16 28 5
77 17 110 26 32 9 72 14 87 11 18 -4 28 -1 29 7 1 6 4 3 6 -7 4 -15 7 -16 14
-5z m-704 -223 c-3 -8 -6 -5 -6 6 -1 11 2 17 5 13 3 -3 4 -12 1 -19z m47 -3
c-7 -16 -24 -21 -24 -6 0 8 7 13 27 20 1 1 0 -6 -3 -14z m-1018 -204 c6 0 11
-8 11 -16 0 -9 -6 -14 -13 -11 -14 5 -11 -33 4 -43 13 -9 9 -57 -5 -59 -7 -1
-20 -3 -28 -4 -8 -1 -15 -8 -16 -17 0 -10 -2 -12 -6 -4 -3 9 -10 10 -22 4 -10
-6 -23 -6 -31 -1 -8 5 -18 6 -22 4 -4 -3 -8 0 -8 7 0 6 -8 9 -20 6 -11 -3 -18
-2 -15 3 5 8 -24 25 -37 22 -5 -1 -8 4 -8 12 0 7 15 21 33 29 17 9 31 20 31
24 -1 4 2 7 6 6 4 -1 11 5 14 13 5 12 1 14 -17 9 -17 -5 -19 -4 -7 4 8 6 23 8
34 5 10 -4 16 -2 13 2 -4 7 67 11 109 5z"/>
<path d="M6385 4000 c-3 -5 1 -10 10 -10 9 0 13 5 10 10 -3 6 -8 10 -10 10 -2
0 -7 -4 -10 -10z"/>
<path d="M6035 3930 c3 -5 15 -10 26 -10 11 0 17 5 14 10 -3 6 -15 10 -26 10
-11 0 -17 -4 -14 -10z"/>
<path d="M6236 3778 c3 -5 10 -6 15 -3 13 9 11 12 -6 12 -8 0 -12 -4 -9 -9z"/>
<path d="M6286 2912 c-3 -6 -3 -18 1 -28 5 -14 2 -16 -15 -12 -15 4 -22 2 -22
-8 0 -15 43 -29 59 -19 6 3 8 18 5 33 -8 33 -20 47 -28 34z"/>
<path d="M7760 2904 c0 -8 5 -12 10 -9 6 4 8 11 5 16 -9 14 -15 11 -15 -7z"/>
<path d="M7717 2903 c-4 -3 -7 -11 -7 -17 0 -6 5 -5 12 2 6 6 9 14 7 17 -3 3
-9 2 -12 -2z"/>
<path d="M7654 2868 c-5 -7 0 -9 14 -6 12 3 20 2 19 -2 -1 -4 1 -8 6 -9 4 -1
7 1 7 4 0 3 0 10 0 15 0 14 -37 13 -46 -2z"/>
<path d="M4880 1967 c8 -9 40 -19 70 -22 l55 -6 -33 15 c-18 8 -49 18 -70 22
-33 6 -36 5 -22 -9z"/>
<path d="M7280 2770 c0 -5 7 -10 15 -10 8 0 15 5 15 10 0 6 -7 10 -15 10 -8 0
-15 -4 -15 -10z"/>
<path d="M6696 2624 c-4 -9 -4 -19 -1 -22 2 -3 7 3 11 12 4 9 4 19 1 22 -2 3
-7 -3 -11 -12z"/>
<path d="M7558 2423 c7 -3 16 -2 19 1 4 3 -2 6 -13 5 -11 0 -14 -3 -6 -6z"/>
<path d="M7150 2250 c0 -6 7 -10 15 -10 8 0 15 2 15 4 0 2 -7 6 -15 10 -8 3
-15 1 -15 -4z"/>
<path d="M2187 6835 c7 -202 31 -292 123 -474 79 -156 250 -386 479 -641 83
-93 436 -447 712 -714 96 -93 276 -270 401 -394 153 -151 232 -223 242 -219
10 4 13 1 9 -9 -4 -12 1 -14 22 -10 23 4 25 3 14 -10 -10 -12 -8 -19 9 -36 12
-12 25 -19 29 -14 4 4 1 11 -6 15 -11 7 -9 11 7 20 20 11 21 9 18 -34 -2 -34
1 -45 11 -45 8 0 17 9 20 20 5 20 62 38 82 26 17 -11 64 13 57 30 -3 8 -1 24
4 34 9 17 8 19 -7 13 -10 -4 -21 -11 -25 -17 -5 -7 -8 -6 -8 3 0 8 -11 0 -25
-19 -14 -19 -25 -28 -25 -21 0 7 -5 9 -12 5 -7 -4 -8 -3 -4 4 4 7 13 12 19 12
7 0 24 15 39 34 l28 34 -30 32 c-16 17 -34 29 -40 25 -6 -4 -9 -2 -8 4 2 5
-52 63 -118 128 -170 165 -424 407 -435 414 -5 3 -77 71 -161 151 -160 154
-185 177 -368 348 -206 192 -445 436 -591 604 -19 22 -45 51 -59 66 -29 30
-150 186 -165 211 -5 10 -23 39 -38 66 -16 26 -30 59 -32 73 -2 14 -4 27 -4
30 -1 3 -5 -1 -10 -9 -7 -11 -11 -10 -20 7 -6 12 -23 33 -36 48 -14 15 -25 37
-25 50 0 12 -4 26 -10 29 -15 9 -12 25 5 25 10 0 15 10 15 28 0 19 -3 23 -9
13 -10 -15 -41 -8 -41 9 0 5 8 10 18 10 14 0 15 2 2 10 -10 6 -12 12 -4 20 18
18 4 70 -22 80 -14 6 -24 20 -27 37 -3 15 -3 -30 0 -102z m2127 -2454 c3 -5
-1 -11 -9 -15 -15 -6 -29 7 -18 18 9 9 21 8 27 -3z"/>
<path d="M5165 6710 c-329 -15 -450 -21 -475 -25 -14 -3 -59 -7 -100 -10 -72
-5 -290 -24 -530 -46 -170 -16 -618 -72 -665 -83 -11 -3 -83 -17 -160 -32
-151 -28 -347 -78 -460 -117 -92 -31 -93 -48 -7 -116 72 -58 85 -60 187 -31
179 51 339 82 670 130 911 130 2055 178 3080 130 407 -19 440 -20 485 -25 25
-2 95 -7 155 -10 525 -27 1325 -132 1665 -220 217 -56 339 -89 402 -111 40
-14 87 -25 104 -26 32 0 87 24 112 49 8 8 25 21 38 30 13 8 24 21 24 28 0 24
-322 131 -555 184 -27 6 -98 23 -157 37 -250 58 -569 108 -939 148 -285 31
-287 31 -699 56 -96 6 -220 15 -275 20 -108 10 -407 26 -705 38 -248 10 -984
11 -1195 2z"/>
<path d="M2112 6630 c0 -14 2 -19 5 -12 2 6 2 18 0 25 -3 6 -5 1 -5 -13z"/>
<path d="M5310 6369 c-135 -4 -301 -12 -370 -18 -69 -6 -192 -15 -275 -21
-280 -20 -816 -77 -1040 -110 -257 -39 -584 -109 -608 -130 -5 -4 -1 -15 9
-24 34 -34 164 -116 184 -116 11 0 75 11 143 24 450 90 1178 168 1767 191 80
3 168 8 197 11 28 3 271 5 540 5 515 0 935 -16 1323 -51 118 -10 269 -22 335
-25 360 -18 837 -82 1210 -161 231 -49 284 -61 340 -78 28 -9 63 -16 79 -16
52 0 186 84 186 116 0 20 -175 69 -510 143 -232 51 -570 106 -810 132 -47 5
-148 16 -225 25 -77 8 -223 19 -325 24 -102 5 -201 12 -220 15 -19 3 -93 10
-165 15 -724 57 -1140 69 -1765 49z"/>
<path d="M2051 6054 c0 -11 3 -14 6 -6 3 7 2 16 -1 19 -3 4 -6 -2 -5 -13z"/>
<path d="M5424 6030 c-3 -2 -44 -5 -92 -7 -48 -1 -125 -5 -172 -8 -47 -2 -125
-7 -175 -9 -166 -8 -814 -71 -985 -95 -36 -5 -101 -13 -145 -16 -44 -4 -96
-11 -116 -16 -20 -5 -89 -18 -155 -29 -202 -35 -218 -46 -139 -102 25 -18 45
-35 45 -39 0 -3 19 -19 42 -34 l42 -28 81 16 c97 20 447 70 640 91 211 24 586
50 1050 75 220 12 925 12 1080 1 66 -5 197 -14 290 -20 94 -6 283 -20 420 -30
138 -11 349 -26 470 -35 232 -17 434 -37 550 -56 173 -28 490 -91 572 -115 61
-17 79 -11 152 50 24 20 47 36 53 36 5 0 8 12 6 27 -3 26 -8 28 -88 45 -277
58 -449 91 -587 113 -141 23 -567 73 -673 80 -52 3 -102 8 -110 10 -13 4 -201
19 -375 31 -90 5 -352 24 -415 29 -30 2 -109 7 -175 10 -66 4 -123 8 -126 11
-4 2 -56 4 -115 5 -60 1 -113 4 -118 7 -11 6 -726 9 -732 2z"/>
<path d="M5768 5755 c-5 -5 -173 -14 -408 -22 -85 -3 -184 -7 -220 -10 -93 -7
-186 -13 -255 -17 -33 -2 -78 -8 -100 -14 -22 -6 -53 -11 -70 -11 -16 0 -64
-5 -105 -12 -41 -6 -96 -12 -122 -14 -27 -1 -60 -7 -75 -13 -16 -5 -59 -15
-98 -21 -38 -6 -134 -22 -211 -35 -78 -13 -153 -22 -166 -19 -16 3 -49 -7 -89
-27 l-63 -32 24 -19 c14 -11 31 -24 37 -29 7 -6 16 -10 20 -10 5 0 16 -7 26
-15 9 -8 17 -12 17 -10 0 6 50 -25 65 -40 6 -5 10 -16 10 -24 0 -8 7 -16 15
-18 13 -4 13 -3 0 6 -8 6 -11 11 -7 11 12 0 81 -30 87 -38 3 -4 18 -13 33 -20
16 -7 31 -21 34 -32 3 -11 9 -18 13 -15 10 6 59 -14 78 -32 7 -6 28 -17 47
-24 22 -8 34 -19 32 -29 -1 -10 4 -14 17 -12 11 2 15 -1 11 -7 -3 -6 1 -14 9
-17 9 -3 13 -11 9 -17 -3 -6 -1 -7 6 -3 9 6 9 11 0 22 -10 12 -8 13 7 7 22 -9
150 -83 207 -120 41 -26 59 -27 30 -1 -10 9 -188 122 -397 251 -308 192 -374
237 -355 241 102 23 666 90 969 115 470 40 617 44 1290 38 913 -9 1273 -34
1805 -123 228 -38 566 -112 581 -127 3 -3 -1141 -771 -1198 -803 -13 -8 -16
-14 -8 -19 10 -6 81 34 186 106 22 15 47 29 55 31 8 2 17 8 21 13 4 6 18 10
30 10 14 0 27 9 33 23 5 12 16 22 24 22 7 0 20 8 27 18 9 11 13 13 14 4 0 -15
40 4 100 49 19 14 80 53 135 87 55 35 141 90 190 122 50 33 97 64 105 68 8 4
42 25 75 46 136 89 195 126 200 126 8 0 153 109 160 120 13 21 -121 63 -330
104 -192 37 -616 101 -805 122 -44 4 -536 41 -570 42 -118 4 -198 10 -207 15
-9 6 -265 18 -453 21 -41 1 -79 4 -85 6 -5 2 -29 0 -53 -4 -30 -5 -47 -4 -58
5 -11 9 -26 10 -67 1 -31 -7 -64 -9 -82 -4 -16 5 -45 5 -63 1 -18 -4 -48 -3
-65 2 -37 10 -42 11 -49 4z"/>
<path d="M1979 5473 c-7 -275 44 -505 172 -768 70 -145 133 -259 194 -350 88
-133 245 -340 262 -343 7 -2 20 2 28 8 8 6 19 9 24 5 6 -3 21 1 34 10 13 8 31
13 40 10 20 -8 32 12 17 31 -10 11 -16 12 -29 2 -13 -10 -14 -10 -4 1 14 17 3
36 -79 138 -32 40 -58 75 -58 78 0 5 -24 36 -47 59 -55 59 -234 334 -316 486
-98 182 -200 469 -214 603 -7 66 -23 86 -24 30z"/>
<path d="M3943 5382 c0 -10 7 -24 13 -30 10 -9 12 -7 11 6 0 10 -7 24 -13 30
-10 9 -12 7 -11 -6z"/>
<path d="M3924 5334 c-10 -8 -13 -13 -6 -9 8 4 12 -1 12 -15 0 -12 5 -18 10
-15 6 3 10 0 10 -7 0 -10 2 -10 9 1 5 8 7 21 4 28 -5 12 -7 12 -15 1 -7 -9 -8
-7 -5 10 6 26 6 26 -19 6z"/>
<path d="M4005 5320 c-21 -34 -8 -109 16 -94 5 3 9 0 9 -5 0 -10 46 -56 169
-169 25 -23 64 -59 85 -80 22 -20 37 -32 34 -27 -3 6 39 -34 94 -88 81 -80
103 -96 114 -86 11 9 13 9 9 -2 -2 -8 11 -32 30 -54 19 -22 35 -37 35 -33 0 5
57 -46 152 -138 57 -54 106 -85 114 -72 5 8 10 5 15 -8 6 -15 8 -16 8 -3 1 18
27 33 42 23 6 -3 5 -12 -3 -22 -12 -15 -11 -16 5 -3 9 7 17 10 17 5 0 -5 7 -1
14 9 12 16 14 16 20 2 3 -9 10 -14 15 -10 6 3 8 12 5 19 -6 16 43 28 50 12 2
-6 5 -2 5 9 1 17 3 17 11 5 7 -12 10 -12 10 -1 0 8 6 11 18 7 15 -5 14 -4 -2
9 -10 8 -23 12 -27 9 -5 -3 -9 2 -9 11 0 13 -4 14 -22 4 -19 -9 -21 -9 -10 2
14 15 16 33 3 25 -5 -3 -11 4 -14 15 -3 12 -10 18 -15 15 -5 -3 -12 3 -15 14
-3 12 -14 20 -26 20 -12 0 -20 6 -18 13 1 6 -4 11 -10 10 -7 -2 -13 3 -13 11
0 16 -57 49 -70 41 -5 -3 -6 5 -2 17 3 12 1 19 -5 15 -5 -3 -17 5 -27 18 -10
14 -22 22 -27 19 -5 -3 -9 4 -9 16 0 12 -4 18 -10 15 -5 -3 -10 -1 -10 6 0 7
-8 9 -21 6 -15 -4 -19 -2 -15 8 2 7 -1 19 -9 25 -10 8 -14 8 -18 -2 -3 -7 -6
-2 -6 12 -1 20 -3 22 -11 10 -7 -11 -10 -11 -10 -2 0 7 -4 10 -10 7 -5 -3 -10
1 -10 9 0 18 -11 21 -26 6 -7 -7 -9 -1 -6 20 3 22 0 30 -11 30 -8 0 -18 -6
-20 -12 -3 -7 -6 -3 -6 10 -1 13 -5 20 -11 17 -5 -3 -10 1 -10 9 0 10 -6 13
-15 10 -10 -4 -15 0 -15 12 0 14 -3 15 -12 6 -7 -7 -19 -12 -27 -12 -14 0 -14
1 -1 10 13 8 13 10 -2 10 -9 0 -19 -8 -22 -17 -3 -10 -4 -6 -2 8 3 24 0 26
-31 24 -31 -2 -35 1 -40 29 -5 26 -7 27 -14 11 -6 -17 -8 -15 -9 10 -1 26 -3
27 -10 10 -8 -18 -9 -18 -9 -2 -1 25 -21 11 -22 -16 0 -12 -3 -16 -6 -9 -2 6
-9 10 -14 6 -5 -3 -9 2 -9 10 0 9 -6 16 -12 16 -8 0 -5 7 6 15 12 9 15 15 7
15 -8 0 -11 8 -8 20 3 11 1 20 -5 20 -6 0 -8 -11 -6 -25 4 -18 0 -26 -14 -31
-11 -3 -22 -3 -25 0 -4 3 2 6 12 6 14 0 15 3 5 15 -7 8 -19 15 -26 15 -8 0
-11 6 -7 17 4 11 3 14 -5 9 -8 -5 -12 1 -13 16 l0 23 -9 -22 c-10 -24 -22 -32
-16 -10 3 6 7 24 10 39 5 23 3 26 -11 21 -10 -4 -21 -11 -25 -17 -5 -7 -8 -3
-8 9 0 17 -2 17 -10 5 -9 -13 -10 -13 -10 0 0 13 -1 13 -10 0 -8 -12 -10 -10
-11 10 l-1 25 -8 -25 -8 -25 -2 25 c-1 23 -2 24 -11 5 -8 -17 -9 -16 -6 8 3
15 0 27 -4 27 -5 0 -9 -6 -9 -14 0 -20 -17 -29 -26 -15 -4 8 -3 9 4 5 8 -5 12
1 12 16 0 19 -2 20 -11 8 -9 -12 -10 -11 -6 8 5 23 -8 31 -16 10 -4 -8 -6 -7
-6 4 -1 9 5 19 12 21 9 4 9 6 0 6 -6 1 -15 -4 -18 -9z m523 -357 c-2 -10 -11
-18 -21 -19 -12 -1 -13 -1 -2 3 8 2 15 9 15 14 0 6 -4 7 -10 4 -5 -3 -10 -1
-10 4 0 6 7 11 16 11 9 0 14 -7 12 -17z m19 -15 c-3 -8 -6 -5 -6 6 -1 11 2 17
5 13 3 -3 4 -12 1 -19z m88 -68 c-3 -5 -12 -10 -18 -10 -7 0 -6 4 3 10 19 12
23 12 15 0z m106 -83 c-10 -9 -11 -8 -5 6 3 10 9 15 12 12 3 -3 0 -11 -7 -18z
m164 -117 c-3 -5 -12 -10 -18 -10 -7 0 -6 4 3 10 19 12 23 12 15 0z"/>
<path d="M3970 5274 c0 -8 5 -12 10 -9 6 3 10 10 10 16 0 5 -4 9 -10 9 -5 0
-10 -7 -10 -16z"/>
<path d="M4126 5263 c-6 -14 -5 -15 5 -6 7 7 10 15 7 18 -3 3 -9 -2 -12 -12z"/>
<path d="M8429 5253 c-13 -16 -12 -17 4 -4 9 7 17 15 17 17 0 8 -8 3 -21 -13z"/>
<path d="M8390 5219 c0 -5 5 -7 10 -4 6 3 10 8 10 11 0 2 -4 4 -10 4 -5 0 -10
-5 -10 -11z"/>
<path d="M8360 5210 c-13 -8 -12 -10 3 -10 9 0 17 5 17 10 0 12 -1 12 -20 0z"/>
<path d="M4240 5179 c0 -5 5 -7 10 -4 6 3 10 8 10 11 0 2 -4 4 -10 4 -5 0 -10
-5 -10 -11z"/>
<path d="M8305 5173 c-16 -8 -41 -27 -54 -41 -13 -15 -20 -21 -16 -13 5 9 -8
5 -33 -9 -23 -13 -42 -31 -42 -39 0 -12 -2 -13 -8 -4 -6 9 -12 7 -22 -7 -8
-11 -20 -20 -27 -20 -7 0 -13 -8 -13 -17 0 -15 -2 -16 -10 -3 -8 12 -10 12
-11 -5 0 -11 -3 -15 -5 -8 -6 13 -124 -61 -124 -77 0 -6 -3 -9 -7 -8 -5 0 -16
-2 -26 -7 -13 -6 -15 -10 -6 -21 6 -7 9 -19 6 -26 -4 -9 -6 -7 -6 3 -1 17 -25
32 -34 22 -9 -8 4 -33 14 -27 5 3 9 0 9 -5 0 -6 -7 -11 -15 -11 -8 0 -15 -5
-15 -11 0 -5 -4 -7 -10 -4 -5 3 -10 -1 -10 -9 0 -9 -5 -16 -11 -16 -6 0 -9 -7
-6 -14 4 -10 1 -13 -9 -9 -13 5 -13 8 1 23 14 16 14 18 0 23 -10 4 -15 0 -16
-11 0 -14 -2 -14 -8 3 -6 16 -9 14 -14 -15 -6 -27 -10 -31 -20 -21 -9 9 -9 14
3 22 13 9 13 10 0 6 -8 -2 -15 -12 -15 -23 0 -10 -4 -25 -8 -31 -5 -7 -5 -18
-1 -25 4 -6 3 -8 -4 -4 -6 3 -13 -2 -15 -11 -2 -10 -3 -4 -1 12 l3 30 -14 -30
c-11 -25 -13 -27 -18 -10 -4 18 -5 18 -6 2 0 -10 -6 -15 -11 -12 -7 4 -9 -3
-5 -22 4 -23 4 -24 -4 -8 -5 11 -10 16 -10 11 -1 -5 -9 -2 -19 7 -16 14 -19
14 -42 -5 -14 -11 -20 -17 -13 -14 6 3 14 0 16 -6 3 -8 6 -6 6 5 1 10 5 16 11
12 15 -9 0 -35 -21 -35 -13 0 -21 -9 -25 -28 -5 -26 -44 -64 -44 -43 0 5 7 11
15 15 8 3 15 12 15 21 0 12 -5 11 -24 -7 -16 -16 -21 -29 -16 -42 7 -21 30
-34 30 -18 0 6 9 8 20 5 11 -3 20 -10 20 -15 0 -5 -5 -6 -10 -3 -6 3 -13 0
-16 -9 -4 -10 -16 -13 -42 -10 l-37 4 30 -14 c45 -22 61 -19 75 15 7 17 16 26
19 21 7 -11 65 -26 58 -15 -3 4 1 14 9 21 8 7 14 9 14 5 0 -4 11 5 25 21 14
16 25 25 25 21 0 -5 7 0 15 11 8 10 15 15 15 10 0 -5 9 1 20 14 13 15 20 18
20 9 0 -9 5 -7 12 6 16 27 34 45 47 45 11 0 15 15 12 34 -1 5 5 4 13 -3 13
-11 15 -10 11 8 -2 13 1 18 9 15 7 -3 19 2 26 10 7 9 17 13 24 9 6 -4 4 2 -4
12 -8 10 -10 16 -4 12 5 -3 23 5 39 19 15 13 32 24 37 24 4 0 8 7 8 15 0 8 9
15 19 15 12 0 18 7 17 18 -1 12 7 18 27 20 15 2 27 9 27 18 0 8 7 14 15 14 8
0 19 15 24 33 5 17 10 26 10 20 1 -7 6 -13 12 -13 6 0 8 10 5 23 -3 12 -3 16
0 10 8 -19 27 -16 20 3 -4 12 -1 14 14 9 15 -5 18 -2 15 15 -2 11 0 18 6 15 5
-4 9 -1 9 5 0 6 5 8 10 5 6 -4 10 7 10 25 0 21 4 29 12 24 8 -5 9 0 5 17 -6
22 -5 23 8 6 9 -12 15 -15 20 -7 4 6 4 14 1 17 -3 3 2 12 12 19 26 19 11 24
-23 7z m-122 -113 c3 -11 1 -18 -4 -14 -5 3 -9 12 -9 20 0 20 7 17 13 -6z
m-36 -72 c-3 -8 -6 -5 -6 6 -1 11 2 17 5 13 3 -3 4 -12 1 -19z m-84 -9 c4 -3
-6 -6 -22 -6 -27 0 -28 2 -13 13 9 7 19 9 22 6 3 -4 9 -9 13 -13z"/>
<path d="M4317 5103 c-4 -3 -7 -11 -7 -17 0 -6 5 -5 12 2 6 6 9 14 7 17 -3 3
-9 2 -12 -2z"/>
<path d="M4420 5056 c0 -7 7 -13 15 -13 8 0 15 4 15 8 0 4 -7 9 -15 13 -9 3
-15 0 -15 -8z"/>
<path d="M1908 5028 c-3 -7 -4 -68 -2 -136 5 -202 48 -409 123 -594 38 -94
128 -271 162 -320 11 -14 19 -30 19 -35 1 -18 40 -58 47 -48 5 6 28 17 53 25
25 7 48 15 53 17 4 2 -5 20 -19 39 -15 19 -24 34 -21 34 4 0 -20 42 -52 93
-182 289 -316 635 -345 885 -5 48 -11 60 -18 40z"/>
<path d="M7825 4859 c-4 -6 -5 -12 -2 -15 2 -3 7 2 10 11 7 17 1 20 -8 4z"/>
<path d="M7686 4769 c-14 -11 -26 -26 -26 -32 0 -7 5 -4 11 6 6 9 15 14 21 11
7 -4 8 -2 4 4 -4 7 -1 12 8 12 9 0 16 5 16 10 0 14 -4 13 -34 -11z"/>
<path d="M7503 4634 l-28 -25 33 22 c17 13 32 24 32 26 0 8 -11 1 -37 -23z"/>
<path d="M7456 4602 c-3 -5 1 -9 9 -9 8 0 12 4 9 9 -3 4 -7 8 -9 8 -2 0 -6 -4
-9 -8z"/>
<path d="M1834 4434 c2 -149 6 -185 35 -309 44 -195 94 -345 113 -345 13 0 50
20 70 37 15 13 12 23 -33 126 -28 61 -61 145 -75 186 -33 100 -94 363 -94 409
0 20 -4 43 -9 51 -5 8 -8 -56 -7 -155z"/>
<path d="M5091 4486 c-14 -17 -5 -24 26 -21 14 1 19 -3 16 -12 -6 -16 23 -18
33 -1 4 6 3 8 -3 5 -6 -4 -14 0 -17 8 -3 8 -9 15 -13 14 -20 -3 -34 2 -28 11
9 15 -1 12 -14 -4z"/>
<path d="M7376 4454 c-22 -21 -20 -27 4 -12 11 7 20 16 20 20 0 12 -7 10 -24
-8z"/>
<path d="M4972 4448 c-11 -11 -4 -48 9 -48 4 0 11 5 14 10 3 6 15 10 26 10 24
0 25 15 2 25 -29 13 -41 13 -51 3z"/>
<path d="M7326 4445 c-3 -9 0 -15 9 -15 8 0 15 7 15 15 0 8 -4 15 -9 15 -5 0
-11 -7 -15 -15z"/>
<path d="M5070 4439 c0 -5 5 -7 10 -4 6 3 10 8 10 11 0 2 -4 4 -10 4 -5 0 -10
-5 -10 -11z"/>
<path d="M7264 4423 c10 -19 12 -20 18 -5 10 26 9 28 -10 28 -15 0 -16 -4 -8
-23z"/>
<path d="M4945 4370 c4 -6 11 -8 16 -5 14 9 11 15 -7 15 -8 0 -12 -5 -9 -10z"/>
<path d="M4453 4363 c-7 -3 -13 -8 -13 -12 0 -9 37 -8 45 1 8 8 -17 16 -32 11z"/>
<path d="M6966 4345 c-3 -8 -3 -15 0 -15 3 0 12 7 20 15 13 13 13 15 1 15 -8
0 -17 -7 -21 -15z"/>
<path d="M7190 4351 c0 -6 4 -13 10 -16 6 -3 7 1 4 9 -7 18 -14 21 -14 7z"/>
<path d="M7124 4335 c-4 -8 -10 -12 -15 -9 -5 3 -9 0 -9 -5 0 -18 19 -12 30 9
6 11 8 20 5 20 -3 0 -8 -7 -11 -15z"/>
<path d="M7031 4247 c0 -13 3 -16 6 -8 4 10 7 10 13 1 5 -9 9 -8 13 3 3 9 -2
17 -14 20 -15 4 -19 0 -18 -16z"/>
<path d="M1767 4100 c-14 -52 -6 -183 18 -302 34 -161 31 -155 55 -133 26 23
25 55 -4 173 -24 97 -53 229 -59 267 -2 17 -4 17 -10 -5z"/>
<path d="M1731 3994 c0 -11 3 -14 6 -6 3 7 2 16 -1 19 -3 4 -6 -2 -5 -13z"/>
<path d="M1711 3874 c0 -11 3 -14 6 -6 3 7 2 16 -1 19 -3 4 -6 -2 -5 -13z"/>
<path d="M1701 3774 c0 -11 3 -14 6 -6 3 7 2 16 -1 19 -3 4 -6 -2 -5 -13z"/>
<path d="M11092 3470 c0 -14 2 -19 5 -12 2 6 2 18 0 25 -3 6 -5 1 -5 -13z"/>
<path d="M9350 2739 c-20 -7 -18 -8 12 -3 30 4 37 2 32 -10 -3 -7 -1 -17 4
-20 5 -3 9 4 8 17 -1 24 -19 30 -56 16z"/>
<path d="M9426 2697 c-17 -14 -26 -29 -22 -35 11 -17 43 -15 43 3 0 10 -6 14
-16 10 -10 -4 -7 2 7 15 19 18 27 30 20 30 -2 0 -16 -11 -32 -23z"/>
<path d="M9469 2663 c-13 -15 -12 -15 9 -4 23 12 28 21 13 21 -5 0 -15 -7 -22
-17z"/>
<path d="M9300 2590 c0 -5 5 -10 10 -10 6 0 10 5 10 10 0 6 -4 10 -10 10 -5 0
-10 -4 -10 -10z"/>
<path d="M9035 2450 c-3 -5 -2 -10 4 -10 5 0 13 5 16 10 3 6 2 10 -4 10 -5 0
-13 -4 -16 -10z"/>
<path d="M8880 2390 c-9 -6 -10 -10 -3 -10 6 0 15 5 18 10 8 12 4 12 -15 0z"/>
<path d="M8910 2379 c0 -5 5 -7 10 -4 6 3 10 8 10 11 0 2 -4 4 -10 4 -5 0 -10
-5 -10 -11z"/>
<path d="M8525 2155 c-25 -12 -26 -14 -5 -9 28 7 60 23 45 23 -5 0 -23 -6 -40
-14z"/>
<path d="M8320 2149 c0 -5 5 -7 10 -4 6 3 10 8 10 11 0 2 -4 4 -10 4 -5 0 -10
-5 -10 -11z"/>
<path d="M8355 2095 c-40 -18 -16 -19 26 0 19 8 27 14 19 14 -8 0 -28 -6 -45
-14z"/>
<path d="M7818 2023 c7 -3 16 -2 19 1 4 3 -2 6 -13 5 -11 0 -14 -3 -6 -6z"/>
</g>
</svg>
