<?xml version="1.0" standalone="no"?>
<!DOCTYPE svg PUBLIC "-//W3C//DTD SVG 20010904//EN"
 "http://www.w3.org/TR/2001/REC-SVG-20010904/DTD/svg10.dtd">
<svg version="1.0" xmlns="http://www.w3.org/2000/svg"
 width="300.000000pt" height="264.000000pt" viewBox="0 0 300.000000 264.000000"
 preserveAspectRatio="xMidYMid meet">

<g transform="translate(0.000000,264.000000) scale(0.100000,-0.100000)"
fill="#000000" stroke="none">
<path d="M623 2280 c-13 -5 -23 -15 -23 -21 0 -8 5 -8 16 2 8 7 45 16 82 19
l67 7 -60 1 c-33 0 -70 -3 -82 -8z"/>
<path d="M955 2280 c28 -4 140 -18 251 -31 194 -22 209 -23 495 -11 259 10
577 38 565 49 -2 2 -106 -3 -232 -12 -283 -19 -617 -19 -879 0 -210 15 -284
17 -200 5z"/>
<path d="M2275 2260 c33 -4 68 -11 78 -15 13 -6 16 -3 11 9 -5 13 -20 16 -78
15 l-71 -2 60 -7z"/>
<path d="M628 2250 c-54 -34 -1 -118 227 -361 59 -63 125 -154 248 -346 92
-143 167 -265 167 -269 0 -5 -34 -31 -76 -57 -71 -45 -77 -47 -90 -30 -7 10
-87 142 -177 293 -295 492 -367 635 -367 727 0 28 -3 34 -10 23 -17 -26 -11
-98 15 -165 37 -98 252 -485 463 -834 l51 -85 -72 -48 c-40 -26 -77 -48 -83
-48 -13 0 -144 237 -281 508 -134 265 -181 414 -154 486 7 16 10 31 7 33 -2 2
-13 -22 -23 -53 l-19 -58 23 -90 c38 -144 101 -283 302 -661 56 -104 101 -192
101 -195 0 -3 -34 -29 -75 -58 l-74 -52 -67 138 c-207 428 -272 609 -262 735
l6 62 -15 -35 c-44 -102 18 -315 209 -723 44 -95 85 -177 90 -184 6 -8 -14
-27 -67 -63 -42 -28 -78 -50 -80 -48 -21 21 -177 430 -206 540 -23 84 -30 215
-17 273 5 21 1 17 -14 -15 -50 -107 1 -338 157 -708 26 -62 46 -114 44 -116
-13 -12 -133 -86 -140 -86 -8 0 -79 211 -114 344 -29 107 -34 276 -11 366 20
76 12 75 -12 -2 -44 -135 -37 -282 24 -483 45 -148 73 -248 74 -256 0 -8 -129
-93 -134 -88 -9 10 -58 282 -63 348 -5 59 -8 70 -15 51 -15 -40 -11 -98 16
-253 14 -82 26 -155 26 -162 0 -17 -86 -69 -100 -60 -16 10 -12 -11 5 -25 18
-15 -12 -34 408 253 168 114 311 207 319 207 7 -1 74 -27 148 -59 124 -53 135
-60 140 -87 4 -26 15 -33 90 -64 75 -31 95 -35 170 -34 73 1 114 9 290 61 222
65 296 93 408 154 62 34 75 38 95 28 54 -28 629 -346 688 -380 36 -22 75 -39
86 -39 24 0 47 24 40 42 -4 9 -6 9 -6 -2 -1 -9 -12 -16 -26 -16 -14 -1 -22 2
-19 7 3 5 -4 9 -15 9 -11 0 -26 7 -35 15 -8 8 -22 15 -30 15 -9 0 -16 2 -16 4
0 11 51 240 55 246 11 18 24 189 16 220 -8 34 -8 34 -15 -25 -8 -60 -46 -243
-72 -344 -13 -50 -34 -90 -34 -65 0 6 -21 18 -47 27 -94 35 -93 21 -24 234 33
103 68 219 76 257 20 85 34 196 25 196 -4 0 -7 6 -7 14 0 19 -45 128 -50 122
-3 -2 0 -14 6 -25 26 -48 32 -123 16 -211 -16 -84 -149 -505 -163 -514 -4 -2
-36 13 -72 35 -36 21 -69 40 -73 42 -4 1 26 85 68 187 155 377 203 554 167
616 -10 16 -11 12 -12 -26 0 -63 -40 -204 -99 -352 -60 -152 -161 -391 -166
-396 -5 -6 -155 81 -155 89 0 4 43 96 96 205 222 461 278 621 244 699 -7 17
-9 15 -9 -11 -1 -48 -45 -190 -90 -290 -21 -49 -93 -201 -160 -337 -137 -281
-110 -259 -222 -188 l-58 37 130 239 c285 522 362 710 320 782 -9 15 -10 12
-11 -20 0 -55 -42 -172 -109 -306 -49 -98 -356 -659 -365 -669 -5 -4 -135 68
-142 79 -3 5 -10 7 -15 4 -5 -4 -9 -3 -9 0 0 3 100 174 222 378 230 385 312
536 347 639 18 54 19 63 6 87 l-14 26 -1 -27 c0 -30 -60 -173 -112 -270 -19
-35 -106 -180 -193 -323 -87 -143 -176 -291 -199 -330 -68 -114 -99 -156 -105
-147 -3 5 -25 19 -49 31 -24 12 -52 31 -63 42 -11 11 -24 17 -29 14 -18 -11
-10 3 73 134 255 405 289 453 409 576 126 129 218 240 218 261 0 23 -40 26
-223 13 -313 -22 -775 -17 -1092 11 -189 17 -388 22 -407 10z m1035 -112 c9 0
17 -3 17 -8 0 -5 42 -11 93 -13 50 -1 -29 -4 -177 -5 -148 -1 -267 0 -265 2 3
3 52 6 109 7 61 2 115 8 129 15 14 8 36 10 51 7 14 -4 33 -6 43 -5z m-395 -15
c-10 -2 -26 -2 -35 0 -10 3 -2 5 17 5 19 0 27 -2 18 -5z m361 -54 c163 -1 280
-5 261 -9 -19 -4 -27 -8 -17 -9 9 0 17 -6 17 -12 0 -5 3 -8 8 -6 4 3 12 -1 19
-8 9 -10 7 -17 -8 -34 -11 -11 -25 -22 -32 -22 -7 -1 2 -5 18 -9 19 -5 -17 -8
-97 -9 -125 -1 -128 -1 -128 21 0 21 0 21 -16 2 -8 -10 -13 -14 -10 -7 4 7
-11 12 -47 15 -58 5 -97 -2 -96 -17 0 -5 -4 -11 -10 -13 -6 -2 -8 3 -5 11 7
19 -12 25 -101 29 -38 2 -73 7 -76 12 -11 15 -30 -5 -24 -25 6 -17 1 -19 -57
-18 -35 1 -94 5 -133 9 l-70 8 74 -1 c50 -1 76 2 78 10 3 7 -7 15 -21 19 -14
3 -24 10 -21 14 3 5 15 6 27 2 18 -4 20 -2 15 17 -4 18 -3 20 8 11 11 -9 19
-8 36 3 21 16 21 16 -7 20 -16 3 4 3 45 1 41 -2 207 -5 370 -5z m-224 -99 c3
-5 2 -10 -4 -10 -5 0 -13 5 -16 10 -3 6 -2 10 4 10 5 0 13 -4 16 -10z m65 -2
c0 -4 -4 -8 -9 -8 -6 0 -12 4 -15 8 -3 5 1 9 9 9 8 0 15 -4 15 -9z m597 -4
c-3 -3 -12 -4 -19 -1 -8 3 -5 6 6 6 11 1 17 -2 13 -5z m-694 -11 c-7 -2 -19
-2 -25 0 -7 3 -2 5 12 5 14 0 19 -2 13 -5z m-295 -30 c-10 -2 -26 -2 -35 0
-10 3 -2 5 17 5 19 0 27 -2 18 -5z m201 -55 c0 -29 -3 -46 -6 -38 -3 8 -11 19
-17 23 -8 6 -7 10 2 14 14 6 16 43 2 43 -5 0 -10 -6 -10 -12 0 -10 -2 -10 -8
-1 -4 6 -30 13 -57 16 -41 3 -37 4 23 5 l72 2 -1 -52z m71 31 c0 -11 -4 -18
-10 -14 -5 3 -7 12 -3 20 7 21 13 19 13 -6z m637 -5 c-22 -12 -26 -18 -17 -28
8 -11 5 -13 -15 -13 -14 0 -28 3 -31 8 -3 5 1 9 9 9 8 0 20 6 26 14 10 12 7
15 -19 14 -17 -1 -33 -6 -37 -11 -4 -6 -1 -7 7 -2 10 6 12 4 7 -9 -4 -10 -7
-25 -8 -34 0 -11 -2 -12 -6 -4 -2 6 -9 10 -13 7 -5 -3 -14 4 -20 15 -8 14 -8
20 0 20 6 0 8 5 5 10 -7 12 -26 14 -24 3 4 -22 -3 -32 -23 -35 -27 -4 -35 -25
-11 -31 10 -3 -8 -5 -39 -6 -32 0 -58 -5 -58 -10 0 -15 239 -14 258 1 15 12
16 11 3 -4 -12 -16 -33 -18 -169 -18 -109 0 -153 3 -146 10 6 6 9 33 6 60 l-5
50 174 0 c162 -1 172 -2 146 -16z m-427 -14 c0 -5 -2 -10 -4 -10 -3 0 -8 5
-11 10 -3 6 -1 10 4 10 6 0 11 -4 11 -10z m45 0 c3 -5 -1 -10 -9 -10 -9 0 -16
5 -16 10 0 6 4 10 9 10 6 0 13 -4 16 -10z m-269 -36 c-30 -21 -42 -17 -15 5
13 11 26 17 29 14 3 -2 -4 -11 -14 -19z m274 0 c0 -2 -12 -4 -26 -4 -14 0 -23
4 -20 9 6 8 46 4 46 -5z m-175 -4 c-8 -14 61 -13 87 1 13 7 18 7 14 1 -4 -7
11 -12 41 -15 27 -2 -9 -4 -79 -5 -87 -1 -129 2 -134 10 -4 6 -3 8 3 5 5 -3
23 -2 39 3 16 4 30 9 32 9 2 1 0 -3 -3 -9z m434 -4 c9 -11 9 -16 -1 -22 -7 -4
-10 -4 -6 1 4 4 0 14 -10 21 -9 7 -12 14 -6 14 6 0 17 -6 23 -14z m-219 -16
c0 -5 -2 -10 -4 -10 -3 0 -8 5 -11 10 -3 6 -1 10 4 10 6 0 11 -4 11 -10z
m-457 -17 c-13 -2 -35 -2 -50 0 -16 2 -5 4 22 4 28 0 40 -2 28 -4z m84 1 c-3
-3 -12 -4 -19 -1 -8 3 -5 6 6 6 11 1 17 -2 13 -5z m256 -11 c-40 -2 -106 -2
-145 0 -40 1 -8 3 72 3 80 0 112 -2 73 -3z m-380 -40 c-7 -2 -19 -2 -25 0 -7
3 -2 5 12 5 14 0 19 -2 13 -5z m50 0 c-7 -2 -19 -2 -25 0 -7 3 -2 5 12 5 14 0
19 -2 13 -5z m392 -14 c-176 -11 -209 -11 -237 0 -15 7 42 9 172 8 l195 -1
-130 -7z m332 5 c-7 -7 -179 -6 -186 2 -2 2 40 4 94 4 54 0 95 -3 92 -6z m-27
-27 c0 -2 -10 -12 -21 -23 -22 -19 -22 -19 -10 4 10 18 31 31 31 19z m-224
-14 c-3 -3 -25 -7 -49 -8 -23 0 -47 -3 -52 -7 -22 -13 -75 -19 -75 -9 0 6 -7
11 -15 11 -8 0 -15 -4 -15 -10 0 -5 -9 -10 -21 -10 -11 0 -17 4 -14 11 5 6 -5
9 -27 8 -18 -2 -53 -1 -78 1 l-45 3 45 6 c63 8 354 12 346 4z m159 -70 c-65
-108 -213 -318 -224 -315 -7 1 -10 -2 -6 -8 13 -21 -6 -27 -42 -14 -31 10 -40
10 -48 0 -12 -16 -61 -41 -95 -50 -14 -3 -5 3 20 15 45 21 45 21 20 32 -14 6
-29 17 -33 24 -11 17 -42 16 -78 -3 -29 -14 -32 -14 -45 3 -15 19 -207 304
-212 314 -1 3 163 3 364 1 329 -4 368 -3 376 12 5 9 11 16 14 16 3 0 -2 -12
-11 -27z"/>
<path d="M1890 2010 c-13 -8 -12 -10 3 -10 9 0 17 5 17 10 0 12 -1 12 -20 0z"/>
<path d="M266 1485 c-9 -26 -7 -32 5 -12 6 10 9 21 6 23 -2 3 -7 -2 -11 -11z"/>
</g>
</svg>
