<?xml version="1.0" standalone="no"?>
<!DOCTYPE svg PUBLIC "-//W3C//DTD SVG 20010904//EN"
 "http://www.w3.org/TR/2001/REC-SVG-20010904/DTD/svg10.dtd">
<svg version="1.0" xmlns="http://www.w3.org/2000/svg"
 width="1099.000000pt" height="910.000000pt" viewBox="0 0 1099.000000 910.000000"
 preserveAspectRatio="xMidYMid meet">

<g transform="translate(0.000000,910.000000) scale(0.100000,-0.100000)"
fill="#000000" stroke="none">
<path d="M5245 7339 c-238 -9 -597 -31 -875 -54 -606 -52 -1475 -164 -1705
-221 -152 -37 -371 -111 -455 -152 -65 -32 -78 -43 -97 -82 -38 -79 -51 -164
-128 -846 -41 -368 -104 -932 -140 -1254 l-67 -585 6 -240 c3 -144 11 -272 20
-320 33 -181 314 -973 451 -1270 20 -44 59 -136 87 -205 27 -69 59 -135 70
-147 32 -34 74 -37 241 -18 99 11 269 18 492 21 341 5 417 11 513 39 57 17 78
45 102 135 6 25 40 99 75 165 35 66 95 183 135 260 74 144 147 257 181 278 11
7 106 153 212 326 164 269 192 310 198 289 15 -58 20 -268 9 -462 -6 -115 -9
-211 -6 -213 2 -3 40 -14 83 -25 76 -19 90 -20 483 -9 555 15 832 39 1275 111
167 27 206 38 535 149 195 66 358 117 363 114 4 -3 102 -145 217 -316 115
-172 239 -355 275 -407 37 -52 82 -126 102 -165 41 -83 73 -119 128 -147 39
-20 45 -21 271 -9 127 7 394 14 593 16 360 2 362 2 386 25 18 17 70 161 219
609 222 670 219 659 246 818 52 298 30 549 -75 868 -23 72 -61 220 -84 330
-108 512 -242 1102 -281 1235 -10 36 -26 125 -34 198 -9 73 -34 242 -57 375
-22 133 -43 285 -47 337 l-7 95 -80 42 c-82 44 -226 93 -325 112 -30 6 -170
24 -310 40 -1190 139 -2275 193 -3195 160z m337 -30 c15 -8 27 -8 45 0 15 7
22 7 18 1 -4 -6 5 -10 19 -10 14 0 27 4 30 8 3 5 22 9 43 10 31 0 34 -1 18 -9
-14 -7 -12 -7 10 -2 80 21 1113 3 1320 -22 37 -4 76 -7 325 -21 52 -2 140 -9
195 -15 55 -5 138 -12 185 -15 47 -3 99 -7 115 -10 17 -3 48 -7 70 -9 152 -16
181 -18 189 -16 12 3 207 -26 346 -51 63 -11 138 -24 165 -28 28 -5 68 -13 90
-19 22 -5 56 -13 75 -16 59 -9 172 -47 220 -72 49 -26 80 -71 80 -115 0 -56
-79 -207 -141 -269 -11 -11 -19 -25 -19 -32 0 -7 -10 -17 -22 -22 -12 -6 -29
-25 -37 -42 -9 -18 -22 -31 -28 -28 -7 2 -13 -3 -14 -13 0 -10 -3 -12 -6 -4
-8 19 -23 14 -23 -8 0 -11 -6 -20 -13 -20 -8 0 -20 -12 -27 -26 -16 -30 -50
-52 -50 -32 0 9 -3 9 -12 0 -8 -8 -8 -15 0 -24 7 -9 7 -19 2 -28 -14 -22 -12
-43 3 -37 16 6 15 -30 -2 -62 -7 -13 -11 -36 -9 -52 4 -24 1 -28 -21 -31 -15
-2 -25 -9 -23 -16 1 -7 -5 -15 -13 -18 -17 -7 -20 -52 -4 -74 9 -13 10 -13 6
0 -2 8 2 22 10 32 8 9 16 25 17 35 3 22 47 46 60 33 5 -5 2 -15 -7 -25 -9 -8
-14 -22 -11 -30 4 -8 1 -15 -5 -15 -18 0 -35 -40 -22 -53 16 -16 14 -24 -9
-30 -25 -6 -27 -37 -2 -38 16 0 16 -1 -1 -7 -16 -7 -16 -8 2 -24 10 -8 20 -21
22 -27 4 -11 31 -19 80 -24 9 -1 14 -7 12 -14 -6 -16 25 -6 45 14 8 7 18 11
23 8 12 -8 12 -45 0 -45 -5 0 -13 -9 -16 -20 -5 -16 -10 -18 -26 -10 -24 14
-61 -4 -53 -25 5 -13 8 -13 20 0 8 8 22 11 30 8 12 -4 13 -8 3 -13 -7 -5 -9
-18 -5 -34 4 -15 2 -26 -4 -26 -5 0 -10 -11 -10 -25 0 -14 4 -25 10 -25 5 0 1
-16 -10 -35 -10 -19 -16 -36 -12 -38 10 -7 52 11 52 22 0 5 7 12 16 15 8 3 13
2 10 -3 -3 -5 1 -11 9 -15 18 -6 20 -27 3 -23 -6 1 -12 -9 -12 -23 0 -17 6
-26 24 -31 14 -4 19 -7 12 -8 -7 -1 -26 -14 -42 -31 -16 -16 -36 -30 -45 -30
-10 0 -13 -4 -8 -12 4 -7 6 -24 4 -37 -4 -33 15 -17 22 19 5 21 11 28 22 24 8
-3 15 -1 15 5 0 6 10 12 23 12 16 1 18 2 5 6 -26 7 -22 23 6 23 24 0 41 -30
26 -47 -15 -16 -22 -53 -10 -53 6 0 17 -6 25 -13 11 -12 9 -19 -12 -43 -37
-43 -46 -72 -31 -105 7 -15 20 -30 28 -32 12 -3 15 -13 12 -42 -4 -32 -2 -37
12 -32 9 4 16 2 16 -3 0 -19 16 -10 34 20 9 17 22 28 27 25 5 -4 9 -1 9 4 0 6
5 11 10 11 16 0 12 -22 -11 -70 -12 -24 -18 -46 -13 -47 30 -11 36 -21 24 -42
-6 -12 -12 -36 -12 -52 -1 -16 -5 -32 -10 -35 -18 -11 -7 -25 19 -22 15 2 28
-2 30 -9 3 -7 -1 -13 -7 -13 -8 0 -9 -10 -5 -31 6 -25 4 -31 -14 -36 -11 -3
-23 -14 -27 -25 -7 -25 4 -37 16 -18 8 13 10 12 10 -2 0 -10 5 -18 11 -18 7 0
9 9 5 24 -4 17 -1 26 10 30 22 8 34 -1 34 -27 0 -16 3 -18 9 -9 6 11 10 10 15
-3 3 -10 1 -24 -5 -31 -9 -11 -8 -14 2 -15 10 0 11 -2 2 -6 -7 -2 -13 -11 -13
-19 0 -8 -7 -17 -15 -20 -18 -7 -20 -30 -2 -37 7 -3 4 -6 -6 -6 -10 -1 -16 -5
-12 -10 3 -5 -4 -12 -15 -16 -28 -9 -25 -25 4 -25 l25 0 -20 -47 c-32 -75 -43
-97 -54 -105 -6 -5 -5 -12 3 -20 9 -9 12 -9 12 1 0 8 11 24 25 37 14 13 25 30
25 39 0 17 16 20 25 5 3 -6 16 -10 28 -11 21 -1 21 -1 -2 -8 -23 -6 -50 -51
-31 -51 6 0 10 -18 10 -40 0 -42 9 -50 30 -25 16 20 22 13 25 -26 2 -17 9 -35
16 -40 11 -7 10 -9 -3 -9 -11 0 -15 -5 -12 -14 3 -8 -2 -16 -13 -19 -14 -4
-14 -5 5 -6 24 -1 27 -8 12 -31 -6 -10 -10 -11 -10 -2 0 6 -4 12 -10 12 -5 0
-10 -11 -10 -24 0 -18 -7 -26 -22 -29 -20 -4 -19 -4 5 -6 28 -1 37 -18 13 -27
-7 -3 -16 -23 -20 -45 -3 -21 -11 -39 -16 -39 -5 0 -16 -15 -24 -34 -8 -18
-19 -37 -25 -40 -19 -12 -12 -28 12 -25 26 3 87 -26 87 -42 0 -6 -9 -13 -20
-16 -22 -6 -26 -19 -8 -25 9 -3 8 -9 -5 -22 -21 -22 -22 -35 -2 -43 18 -6 39
16 61 65 17 39 30 41 37 5 3 -17 -1 -33 -14 -46 -21 -23 -22 -24 -24 -85 -1
-24 -8 -47 -14 -52 -10 -5 -10 -9 -2 -14 6 -4 8 -13 4 -19 -15 -25 -11 -56 8
-62 10 -4 19 -10 19 -15 0 -5 7 -7 15 -4 8 4 15 1 15 -5 0 -6 -7 -11 -15 -11
-8 0 -15 -4 -15 -10 0 -5 7 -7 15 -4 17 7 21 -11 4 -21 -6 -4 -8 -13 -5 -21 3
-7 -1 -17 -8 -21 -7 -5 -15 -18 -18 -31 -4 -12 -2 -20 2 -17 5 3 11 -1 14 -7
3 -7 4 -4 3 7 -1 14 5 21 22 23 17 3 22 0 18 -11 -4 -10 1 -13 16 -10 20 4 22
0 21 -34 -4 -89 -3 -86 -19 -73 -12 10 -16 9 -22 -6 -11 -30 -46 -54 -68 -47
-17 5 -18 4 -7 -10 8 -9 11 -21 7 -27 -9 -15 1 -12 19 6 15 14 16 12 11 -30
-4 -34 -2 -46 7 -46 8 0 9 -3 3 -8 -14 -9 -37 -63 -31 -70 3 -2 -3 -16 -14
-30 -11 -13 -17 -29 -14 -34 4 -6 1 -14 -6 -18 -6 -4 -10 -16 -7 -26 4 -17 6
-17 12 4 8 24 20 28 30 12 4 -7 14 -3 24 9 24 28 34 15 13 -17 -9 -14 -18 -34
-19 -45 -2 -12 -6 -23 -10 -26 -3 -3 -4 4 -1 16 4 16 2 20 -9 16 -10 -4 -13
-14 -8 -30 5 -21 3 -24 -13 -19 -16 5 -19 2 -15 -18 4 -18 -1 -27 -17 -36 -15
-8 -20 -18 -17 -31 4 -16 -1 -19 -26 -20 -18 -1 -24 -3 -14 -6 15 -4 17 -11
11 -36 -3 -18 -10 -33 -15 -35 -5 -2 -9 -10 -9 -18 0 -8 6 -11 15 -8 11 5 15
-1 15 -25 0 -19 -6 -34 -15 -37 -8 -4 -15 -13 -15 -21 0 -11 7 -13 25 -9 30 8
32 -3 5 -27 -11 -9 -20 -25 -20 -35 0 -10 -4 -22 -8 -27 -5 -6 -15 -26 -22
-45 -7 -19 -21 -44 -31 -55 -11 -13 -16 -29 -12 -47 5 -25 6 -25 23 -8 16 16
36 74 32 92 -1 4 7 10 18 13 11 3 17 12 14 20 -4 10 0 12 16 8 15 -4 18 -8 9
-13 -6 -5 -10 -17 -7 -27 4 -14 -3 -25 -21 -38 -20 -13 -27 -27 -28 -51 -1
-40 23 -47 36 -11 5 13 16 29 25 36 14 12 16 11 16 -8 0 -26 8 -27 26 -3 13
16 15 16 29 -2 8 -11 15 -27 15 -36 0 -18 25 -20 49 -5 11 6 13 3 7 -16 -4
-13 -10 -39 -12 -58 -2 -19 -8 -39 -13 -44 -5 -5 -7 -16 -4 -23 3 -8 1 -14 -5
-14 -6 0 -8 -9 -5 -20 8 -30 -37 -43 -147 -40 -52 1 -111 2 -130 1 -19 0 -177
-2 -352 -3 l-316 -3 -20 23 c-20 23 -52 30 -52 11 0 -5 -4 -8 -10 -4 -5 3 -18
0 -29 -7 -15 -9 -25 -9 -46 0 -14 7 -24 8 -20 3 3 -6 -10 -13 -29 -16 -31 -6
-38 -3 -68 31 -50 56 -57 68 -58 86 0 9 -6 18 -12 20 -8 3 -12 21 -10 49 1 30
-1 38 -6 25 -8 -18 -9 -18 -15 -3 -3 9 -13 17 -22 17 -9 0 -15 9 -15 25 0 14
-4 25 -10 25 -32 0 -135 147 -125 179 4 14 -2 22 -24 31 -17 7 -30 15 -30 19
2 14 -14 51 -22 51 -5 0 -9 5 -9 10 0 6 -14 24 -30 40 -17 16 -31 41 -32 55
-1 14 -6 25 -10 25 -4 0 -8 8 -8 18 0 10 -15 32 -32 49 -51 48 -94 103 -145
184 -25 41 -58 92 -72 113 -53 80 -60 91 -60 109 -1 9 -12 23 -26 29 -22 10
-30 26 -26 51 0 4 -5 7 -12 7 -6 0 -23 25 -37 55 -14 30 -29 55 -33 55 -4 0
-13 14 -19 30 -5 17 -18 35 -28 40 -10 5 -21 25 -24 45 -4 21 -13 35 -21 35
-8 0 -15 5 -15 10 0 6 -26 48 -57 93 -103 150 -113 165 -113 171 0 7 -10 20
-37 50 -7 8 -15 25 -19 40 -3 14 -12 26 -20 26 -7 0 -20 15 -29 34 -9 18 -24
42 -33 52 -10 11 -37 46 -60 79 -22 33 -50 71 -61 85 -11 14 -21 30 -21 36 0
7 -7 14 -15 18 -8 3 -14 9 -13 13 1 4 -17 28 -40 52 -23 24 -42 48 -42 54 0 6
-26 43 -59 82 -32 39 -64 83 -71 96 -8 13 -25 35 -39 50 -14 14 -37 39 -51 55
-71 86 -141 155 -197 194 -52 37 -60 46 -52 61 13 24 86 71 239 151 122 64
199 109 371 214 46 28 109 65 139 81 277 149 352 190 400 218 30 18 91 52 135
75 44 24 91 51 105 60 14 10 54 32 90 50 75 37 332 181 500 280 63 37 151 87
195 110 44 24 108 61 143 82 34 21 74 43 88 48 14 6 45 24 69 40 24 17 47 30
50 30 4 0 32 19 63 43 32 24 84 63 117 88 139 104 225 202 225 260 0 28 -53
76 -93 84 -43 9 -189 56 -202 65 -5 4 -34 10 -64 13 -30 4 -59 11 -65 17 -5 5
-30 10 -55 10 -26 0 -66 6 -91 14 -57 18 -161 36 -275 47 -49 4 -110 11 -135
13 -83 10 -155 17 -205 20 -27 2 -88 6 -135 10 -336 27 -461 36 -577 40 -72 2
-135 6 -140 9 -24 15 -682 30 -1253 30 -488 -1 -875 -19 -1165 -54 -49 -6
-124 -12 -165 -13 -41 -2 -115 -8 -165 -15 -184 -22 -263 -31 -380 -41 -156
-14 -388 -46 -465 -64 -14 -3 -61 -10 -105 -16 -44 -5 -100 -14 -125 -20 -25
-5 -70 -14 -100 -20 -160 -29 -216 -43 -231 -56 -8 -8 -35 -15 -60 -15 -72 -2
-324 -78 -368 -111 -95 -72 -54 -139 144 -234 17 -8 41 -21 55 -29 122 -67
320 -171 376 -196 38 -17 159 -75 269 -129 371 -183 737 -360 742 -360 3 0 68
-31 146 -69 78 -38 198 -95 267 -126 211 -97 506 -244 593 -297 199 -122 280
-168 303 -174 13 -3 24 -9 24 -13 0 -4 30 -22 68 -40 37 -19 109 -61 160 -94
87 -56 93 -62 88 -88 -3 -16 -29 -48 -63 -80 -164 -150 -288 -289 -425 -480
-10 -13 -37 -51 -61 -84 -23 -33 -66 -99 -95 -146 -28 -47 -78 -122 -110 -165
-49 -66 -211 -310 -247 -372 -21 -36 -150 -240 -187 -295 -21 -32 -38 -60 -38
-63 0 -3 -16 -30 -35 -60 -53 -82 -119 -192 -150 -249 -15 -27 -50 -81 -78
-120 -28 -38 -73 -113 -100 -165 -27 -52 -62 -115 -78 -140 -16 -25 -34 -54
-39 -65 -6 -11 -24 -42 -40 -70 -16 -27 -40 -70 -53 -95 -34 -65 -51 -94 -58
-100 -3 -3 -16 -23 -29 -45 -33 -54 -90 -116 -101 -109 -5 3 -15 2 -21 -3 -7
-4 -19 -8 -27 -10 -19 -2 -124 -5 -131 -3 -28 9 -155 9 -212 0 -40 -6 -210
-13 -377 -16 -333 -4 -351 -2 -351 52 0 13 -7 27 -16 31 -13 5 -13 7 -2 14 8
5 9 9 2 9 -13 0 -38 86 -29 101 4 5 1 26 -5 45 -10 29 -10 38 1 44 9 6 3 19
-25 50 -30 34 -36 47 -31 69 5 22 1 29 -19 39 -34 15 -60 70 -43 90 9 12 9 16
0 19 -7 3 -13 11 -13 19 0 8 -6 14 -13 14 -21 0 -50 37 -44 54 8 20 -13 32
-24 15 -7 -9 -8 -5 -3 12 3 15 1 30 -5 33 -6 4 -11 12 -11 18 0 7 6 6 15 -2
12 -10 15 -10 15 4 0 9 -8 16 -19 16 -10 0 -24 7 -31 15 -11 13 -10 14 4 9 11
-4 16 -1 16 10 0 9 -7 19 -15 22 -19 8 -19 33 -1 53 17 19 21 48 11 79 -5 16
-10 20 -15 12 -5 -9 -10 -6 -15 9 -3 11 -11 21 -16 21 -6 0 -7 5 -4 11 4 5 0
18 -8 27 -23 26 -59 102 -54 115 2 7 -2 29 -9 51 -8 21 -11 42 -8 47 3 5 -2 6
-10 3 -12 -5 -16 0 -16 19 0 14 -7 28 -16 31 -8 3 -13 10 -10 14 3 5 -1 18 -9
28 -8 10 -15 29 -15 41 0 12 -7 29 -16 38 -10 10 -13 22 -8 33 6 15 8 14 11
-5 5 -28 20 -30 28 -3 10 30 18 24 48 -38 30 -62 33 -82 16 -99 -15 -15 -3
-33 22 -33 10 0 19 -7 19 -15 0 -9 9 -15 23 -15 17 0 19 -2 8 -9 -12 -8 -12
-15 -2 -43 21 -53 34 -82 47 -98 7 -8 14 -24 17 -35 3 -14 5 -11 6 11 0 16 -4
35 -11 42 -9 9 -9 12 0 12 6 0 18 -16 26 -35 15 -35 29 -44 41 -25 3 6 -1 13
-9 16 -11 4 -13 11 -6 23 6 12 5 22 -2 29 -9 9 -9 12 -1 12 6 0 13 -6 16 -12
3 -10 7 -10 20 0 14 12 19 10 39 -8 l23 -22 -34 4 c-24 2 -36 -2 -39 -12 -5
-13 -3 -13 11 -1 15 12 17 11 17 -3 0 -9 -5 -16 -11 -16 -8 0 -8 -5 1 -15 11
-13 8 -15 -21 -16 -25 -1 -28 -3 -11 -6 18 -3 23 -10 19 -23 -3 -11 0 -21 7
-24 6 -2 4 -5 -5 -5 -9 -1 -19 6 -23 14 -3 8 -10 15 -16 15 -6 0 -8 -5 -5 -10
3 -6 0 -10 -7 -10 -9 -1 -8 -3 3 -10 8 -5 22 -27 29 -50 7 -22 20 -46 27 -52
12 -10 14 -4 9 38 -2 27 -2 43 1 37 9 -24 33 -14 33 14 0 14 7 35 16 45 12 13
14 21 6 31 -8 10 -6 16 8 25 16 10 19 8 22 -10 2 -12 9 -23 16 -26 15 -5 15 8
2 44 -8 21 -14 24 -22 16 -18 -18 -26 -14 -33 17 -3 16 -13 35 -20 41 -11 9
-12 17 -4 33 9 17 8 23 -7 34 -11 8 -18 21 -16 29 2 8 -4 14 -13 14 -8 0 -15
5 -15 10 0 6 5 10 10 10 6 0 10 7 10 16 0 10 -5 14 -16 10 -20 -8 -45 51 -50
119 -3 27 -10 53 -17 57 -14 9 -12 10 28 13 39 3 47 -2 36 -23 -15 -30 -24
-102 -12 -102 6 0 11 10 11 23 1 21 1 22 15 3 17 -22 17 -22 19 74 1 43 -2 66
-9 59 -14 -14 -25 -11 -25 6 0 9 7 18 15 21 10 4 13 13 9 26 -4 12 0 24 11 32
15 11 15 17 3 66 -9 34 -20 55 -28 55 -8 0 -17 15 -21 33 -4 19 -2 32 3 32 6
0 8 7 4 15 -8 21 3 45 19 39 15 -6 28 23 14 32 -6 3 -7 19 -4 35 4 18 2 29 -4
29 -6 0 -14 -12 -17 -27 -11 -46 -45 -96 -57 -84 -8 8 -4 18 13 36 13 14 21
28 17 31 -3 4 0 19 8 35 21 40 20 99 -2 99 -14 0 -14 3 -5 12 18 18 32 -6 32
-54 0 -21 2 -38 4 -38 2 0 10 -2 18 -5 9 -4 13 6 15 35 0 22 -4 40 -9 40 -6 0
-3 11 6 25 20 31 20 45 0 45 -10 0 -14 6 -11 14 7 18 -20 56 -39 56 -16 0 -19
16 -4 25 6 3 10 1 10 -4 0 -6 7 -11 15 -11 8 0 15 4 15 9 0 13 -27 21 -45 15
-9 -4 -15 0 -15 10 0 11 9 16 30 16 l30 0 -2 66 c-2 53 0 68 14 78 10 7 15 16
11 19 -11 12 -23 8 -23 -8 0 -9 -9 -15 -24 -15 -26 0 -47 -21 -28 -28 13 -4
17 -32 4 -32 -4 0 -12 8 -19 19 -15 24 -5 62 15 59 8 -2 17 3 19 10 3 7 -4 12
-15 12 -16 0 -19 6 -17 33 2 17 3 34 4 36 1 3 13 -7 29 -22 l28 -26 14 22 c19
31 20 60 1 74 -9 7 -12 13 -8 13 5 0 -2 18 -14 40 -12 22 -19 43 -15 47 4 4 9
-3 13 -15 3 -12 8 -22 12 -22 9 0 8 67 -2 76 -11 11 -8 44 4 44 7 0 8 7 4 18
-4 9 -7 25 -7 35 0 9 -3 17 -8 17 -12 0 0 81 16 107 15 25 19 113 5 113 -11 0
-8 70 4 89 5 10 4 16 -3 19 -7 2 -12 8 -12 13 0 4 6 6 14 3 19 -7 28 46 10 63
-20 21 -17 36 6 30 13 -3 20 0 20 9 0 18 -27 18 -45 0 -7 -7 -15 -28 -17 -47
-2 -22 -8 -34 -18 -34 -9 0 -14 7 -12 20 10 59 16 75 28 75 8 0 14 5 14 10 0
6 -7 10 -15 10 -18 0 -20 16 -4 26 6 3 15 0 20 -7 8 -11 16 -7 39 21 37 42 37
54 4 87 -21 21 -24 30 -16 44 8 13 8 20 -3 29 -19 16 11 100 37 100 13 0 18 8
18 30 0 20 5 30 15 30 8 0 15 5 15 10 0 6 10 10 21 10 18 0 19 3 9 14 -6 8
-18 12 -26 9 -8 -3 -14 0 -14 6 0 6 5 11 10 11 18 0 10 36 -15 70 -14 19 -23
40 -21 47 3 6 -4 15 -15 18 -16 5 -18 9 -8 21 6 8 8 18 4 22 -4 4 -10 1 -12
-6 -3 -6 -8 -10 -13 -7 -5 3 2 31 14 63 16 41 27 56 39 54 11 -2 17 4 17 16 0
11 7 23 16 26 14 5 14 9 3 22 -7 8 -21 13 -31 11 -10 -3 -21 -1 -24 4 -3 5 -2
9 3 8 41 -7 62 24 23 34 -11 3 -20 14 -20 25 0 10 -11 36 -25 56 -14 20 -25
48 -25 62 0 14 -4 23 -9 20 -11 -7 -23 22 -15 35 3 5 0 9 -5 9 -6 0 -11 11
-11 25 0 14 -5 25 -11 25 -8 0 -10 13 -6 38 5 30 2 41 -16 59 -26 24 -73 110
-65 119 3 3 -7 39 -23 81 -37 94 -40 151 -10 189 25 32 84 74 104 74 7 0 17 3
21 7 3 4 16 8 28 10 12 2 30 11 40 19 11 11 26 14 43 10 17 -4 31 -1 41 9 21
21 64 30 74 16 7 -13 60 -5 60 9 0 4 12 13 28 18 15 5 35 13 45 17 12 5 17 2
17 -9 0 -9 8 -16 18 -16 19 1 73 29 57 30 -5 0 1 7 15 15 31 18 107 20 113 3
3 -9 12 -6 29 10 25 23 48 29 48 13 0 -6 13 -5 33 1 17 6 43 10 57 10 14 0 33
7 42 15 12 10 42 17 87 18 39 2 87 9 108 16 21 7 82 13 135 13 53 0 95 3 92 7
-2 4 4 10 13 13 32 10 204 26 214 21 5 -4 9 -2 9 3 0 16 118 26 134 13 9 -8
16 -8 20 -2 4 6 35 9 69 9 34 -1 107 4 162 11 55 7 127 15 160 17 33 2 61 8
63 14 2 5 8 10 13 10 6 0 8 -4 5 -9 -4 -5 10 -5 32 0 20 4 47 6 60 2 15 -3 22
-1 22 8 0 10 2 11 8 3 5 -9 26 -9 77 -3 39 5 149 11 245 13 191 5 382 14 418
22 13 2 20 9 17 14 -3 6 3 10 14 10 12 0 21 -5 21 -10 0 -6 24 -11 53 -11 28
0 66 -1 82 -2 51 -2 170 14 173 24 5 12 9 11 34 -2z m3278 -1273 c0 -3 -4 -8
-10 -11 -5 -3 -10 -1 -10 4 0 6 5 11 10 11 6 0 10 -2 10 -4z m-78 -86 c7 0 7
-5 -1 -13 -6 -8 -8 -17 -4 -20 3 -4 1 -7 -5 -7 -7 0 -12 9 -12 19 0 11 -3 21
-7 24 -5 2 -2 2 5 0 8 -1 18 -3 24 -3z m71 -32 c9 0 15 -3 12 -9 -11 -16 -65
-11 -65 7 0 12 5 14 18 9 9 -4 25 -7 35 -7z m67 2 c0 -5 -4 -10 -10 -10 -5 0
-10 5 -10 10 0 6 5 10 10 10 6 0 10 -4 10 -10z m-6560 -170 c0 -5 -4 -10 -9
-10 -6 0 -13 5 -16 10 -3 6 1 10 9 10 9 0 16 -4 16 -10z m6661 -183 c-6 -15
-15 -27 -21 -27 -14 0 -13 7 7 41 20 34 29 25 14 -14z m-73 11 c-2 -6 -10 -14
-16 -16 -7 -2 -10 2 -6 12 7 18 28 22 22 4z m-2630 -196 c117 -11 215 -22 218
-25 2 -2 -114 -71 -258 -153 -273 -155 -333 -198 -343 -249 -5 -24 -4 -27 5
-15 9 12 10 7 5 -20 -7 -36 -49 -89 -61 -77 -4 4 2 21 15 37 28 39 16 38 -71
-6 l-71 -36 -86 86 c-48 47 -91 86 -97 86 -6 0 -23 9 -37 20 -14 12 -54 36
-89 54 -35 18 -121 65 -193 106 -71 40 -177 99 -234 130 l-104 58 64 6 c307
30 1002 29 1337 -2z m2772 -12 c0 -5 -4 -10 -10 -10 -5 0 -10 5 -10 10 0 6 5
10 10 10 6 0 10 -4 10 -10z m-10 -58 c0 -21 -26 -72 -37 -72 -18 0 -16 35 2
50 9 7 14 19 11 26 -3 8 0 11 10 7 7 -3 14 -8 14 -11z m-60 -2 c0 -5 -4 -10
-10 -10 -5 0 -10 5 -10 10 0 6 5 10 10 10 6 0 10 -4 10 -10z m110 -174 c0 -3
-4 -8 -10 -11 -5 -3 -10 -1 -10 4 0 6 5 11 10 11 6 0 10 -2 10 -4z m106 -202
c-3 -9 -9 -27 -12 -40 -7 -26 -24 -33 -24 -10 0 25 19 66 31 66 6 0 8 -7 5
-16z m-6983 -53 c0 -27 -6 -58 -12 -68 -8 -14 -10 -5 -11 44 0 40 4 63 13 66
6 3 12 6 12 6 0 1 -1 -21 -2 -48z m6937 -21 c0 -5 -7 -10 -15 -10 -8 0 -15 5
-15 10 0 6 7 10 15 10 8 0 15 -4 15 -10z m-3485 -46 c33 -30 32 -40 -6 -53
-39 -13 -48 -8 -42 23 3 13 0 33 -6 44 -9 17 -8 19 9 15 11 -3 31 -16 45 -29z
m-3475 -40 c0 -14 -3 -14 -15 -4 -8 7 -15 14 -15 16 0 2 7 4 15 4 8 0 15 -7
15 -16z m27 -50 c-9 -9 -28 6 -21 18 4 6 10 6 17 -1 6 -6 8 -13 4 -17z m-24
-29 c9 -23 -11 -28 -23 -5 -8 16 -8 20 4 20 7 0 16 -7 19 -15z m7010 -95 c-6
-22 -21 -35 -30 -26 -5 5 24 46 33 46 1 0 0 -9 -3 -20z m82 -10 c-3 -5 -11
-10 -16 -10 -6 0 -7 5 -4 10 3 6 11 10 16 10 6 0 7 -4 4 -10z m-7121 -45 c-4
-8 -11 -12 -16 -9 -6 4 -5 10 3 15 19 12 19 11 13 -6z m7051 -6 c-4 -5 0 -9 7
-10 10 0 10 -2 1 -6 -20 -8 -15 -23 7 -23 11 0 20 -5 20 -10 0 -11 -38 -90
-43 -90 -2 0 -4 36 -4 80 0 45 3 77 8 74 5 -3 7 -10 4 -15z m45 11 c0 -5 -4
-10 -10 -10 -5 0 -10 5 -10 10 0 6 5 10 10 10 6 0 10 -4 10 -10z m-7033 -26
c-3 -3 -2 -17 3 -30 11 -27 -1 -32 -20 -9 -10 12 -10 18 0 30 7 8 15 15 18 15
3 0 3 -3 -1 -6z m3 -264 c0 -5 -4 -10 -10 -10 -5 0 -10 5 -10 10 0 6 5 10 10
10 6 0 10 -4 10 -10z m6935 -162 c-1 -13 -5 -22 -8 -20 -4 1 -12 2 -18 2 -6 0
-7 5 -2 13 4 6 8 15 9 20 1 4 2 10 3 13 3 16 17 -8 16 -28z m-6965 -8 c0 -5
-4 -10 -10 -10 -5 0 -10 5 -10 10 0 6 5 10 10 10 6 0 10 -4 10 -10z m6926 -49
c-4 -5 -1 -11 6 -13 7 -3 8 -10 3 -17 -6 -11 -10 -10 -17 3 -8 15 -4 36 8 36
3 0 3 -4 0 -9z m164 -9 c0 -17 -27 -45 -38 -39 -16 11 -2 47 19 47 11 0 19 -4
19 -8z m-63 -28 c-3 -3 -12 -4 -19 -1 -8 3 -5 6 6 6 11 1 17 -2 13 -5z m-7059
-73 c3 -8 -1 -12 -9 -9 -7 2 -15 10 -17 17 -3 8 1 12 9 9 7 -2 15 -10 17 -17z
m6982 -61 c0 -5 -2 -10 -4 -10 -3 0 -8 5 -11 10 -3 6 -1 10 4 10 6 0 11 -4 11
-10z m261 -137 c-10 -17 -10 -16 -11 3 0 23 13 41 18 25 2 -6 -1 -18 -7 -28z
m179 -3 c0 -5 -4 -10 -10 -10 -5 0 -10 5 -10 10 0 6 5 10 10 10 6 0 10 -4 10
-10z m-280 -14 c0 -8 -9 -24 -21 -37 -22 -25 -22 -21 1 24 15 30 20 34 20 13z
m-96 -30 c-3 -8 4 -16 18 -21 22 -8 22 -8 -6 -12 -22 -4 -26 -7 -15 -14 9 -5
10 -9 2 -9 -6 0 -15 5 -18 11 -9 13 3 59 15 59 5 0 7 -6 4 -14z m307 -53 c-12
-20 -14 -14 -5 12 4 9 9 14 11 11 3 -2 0 -13 -6 -23z m-7311 -55 c0 -10 -5
-18 -10 -18 -15 0 -23 27 -16 47 6 15 8 15 16 3 6 -8 10 -23 10 -32z m7148 35
c-32 -66 -40 -74 -52 -54 -7 10 31 61 46 61 5 0 8 -3 6 -7z m216 -20 c-4 -16
-8 -44 -9 -63 -1 -34 -4 -44 -44 -120 -17 -32 -17 -36 -2 -48 12 -10 13 -15 3
-18 -6 -3 -10 -10 -6 -15 3 -5 0 -9 -5 -9 -6 0 -11 -11 -11 -25 0 -17 -4 -23
-14 -19 -11 4 -13 0 -9 -14 2 -11 -2 -31 -10 -43 -8 -13 -20 -41 -27 -61 -6
-21 -16 -38 -22 -38 -6 0 -7 8 -3 18 4 9 8 28 10 42 1 13 8 26 14 28 6 2 11
10 11 18 0 8 4 14 9 14 6 0 6 12 1 29 -8 30 -2 53 33 133 10 21 17 45 17 53 0
9 5 26 12 38 6 12 13 37 14 57 2 19 8 36 14 38 5 2 10 10 10 18 0 8 5 14 11
14 7 0 9 -9 3 -27z m-7648 -94 c-16 -23 -16 -23 -16 16 0 36 1 38 16 23 15
-15 15 -18 0 -39z m7328 -195 c4 -9 1 -23 -5 -30 -6 -7 -8 -18 -4 -24 3 -5 2
-10 -3 -10 -15 0 -22 26 -10 38 8 8 8 16 -2 27 -10 12 -10 15 3 15 8 0 18 -7
21 -16z m39 -130 c7 -40 -13 -74 -45 -74 -16 0 -28 5 -28 10 0 6 11 10 25 10
14 0 25 5 25 10 0 6 -4 10 -10 10 -5 0 -10 4 -10 10 0 5 7 7 15 4 8 -4 15 -1
15 5 0 6 -5 11 -11 11 -8 0 -9 4 0 13 6 8 7 18 3 22 -4 5 -2 5 4 2 7 -4 14
-18 17 -33z m67 -68 c-14 -14 -24 0 -16 21 6 15 8 15 16 3 6 -9 5 -19 0 -24z
m30 24 c0 -5 -4 -10 -10 -10 -5 0 -10 5 -10 10 0 6 5 10 10 10 6 0 10 -4 10
-10z m10 -60 c0 -5 -2 -10 -4 -10 -3 0 -8 5 -11 10 -3 6 -1 10 4 10 6 0 11 -4
11 -10z m-86 -77 c-4 -21 -14 -48 -21 -60 -8 -12 -13 -28 -11 -35 4 -12 -25
-48 -39 -48 -5 0 -9 -18 -10 -40 0 -22 -8 -51 -17 -65 -9 -13 -16 -33 -16 -43
0 -11 -7 -25 -15 -32 -8 -7 -15 -21 -15 -31 0 -11 -5 -19 -10 -19 -6 0 -15
-10 -20 -22 -8 -22 -9 -22 -9 4 -1 15 4 30 9 33 6 3 10 11 10 16 0 6 -4 8 -9
5 -5 -3 -12 5 -15 19 -4 17 3 39 24 74 26 41 60 73 60 55 0 -8 -34 -59 -44
-66 -6 -4 -7 -10 -4 -14 9 -9 31 14 51 55 21 42 22 65 3 58 -14 -6 45 120 62
133 4 3 13 17 19 33 18 38 25 34 17 -10z m81 17 c3 -6 -4 -10 -17 -10 -18 0
-20 2 -8 10 19 12 18 12 25 0z m-55 -75 c-10 -12 -9 -15 6 -15 12 0 15 -3 8
-8 -6 -4 -15 -18 -19 -32 -4 -14 -18 -35 -31 -48 -12 -13 -24 -35 -26 -50 -2
-14 -8 -27 -15 -29 -15 -5 13 73 36 101 9 10 15 26 13 36 -4 27 30 100 35 77
3 -10 -1 -24 -7 -32z m-94 -242 c-10 -10 -19 5 -10 18 6 11 8 11 12 0 2 -7 1
-15 -2 -18z m-129 -99 c-3 -3 -12 -4 -19 -1 -8 3 -5 6 6 6 11 1 17 -2 13 -5z
m65 -46 c-7 -7 -12 -8 -12 -2 0 14 12 26 19 19 2 -3 -1 -11 -7 -17z m-19 -60
c-6 -31 -23 -38 -23 -10 0 16 20 46 26 39 1 -1 0 -14 -3 -29z m-6879 -84 c3
-8 2 -12 -4 -9 -6 3 -10 10 -10 16 0 14 7 11 14 -7z m6936 12 c0 -3 -4 -8 -10
-11 -5 -3 -10 -1 -10 4 0 6 5 11 10 11 6 0 10 -2 10 -4z m-6895 -56 c3 -5 -1
-10 -9 -10 -9 0 -16 5 -16 10 0 6 4 10 9 10 6 0 13 -4 16 -10z"/>
<path d="M4608 7253 c7 -3 16 -2 19 1 4 3 -2 6 -13 5 -11 0 -14 -3 -6 -6z"/>
<path d="M8645 6300 c-10 -11 -13 -20 -7 -20 6 0 14 5 17 11 4 6 13 8 21 5 8
-3 11 0 7 10 -7 19 -17 18 -38 -6z"/>
<path d="M8706 6284 c-8 -21 -1 -28 19 -20 9 3 15 11 13 18 -7 19 -25 20 -32
2z"/>
<path d="M8697 6243 c-4 -3 -7 -11 -7 -17 0 -6 5 -5 12 2 6 6 9 14 7 17 -3 3
-9 2 -12 -2z"/>
<path d="M2358 5925 c-5 -25 -4 -25 10 -11 12 11 13 19 5 27 -7 7 -12 3 -15
-16z"/>
<path d="M8700 5901 c0 -5 -3 -18 -7 -28 -6 -16 -5 -16 10 -5 18 15 37 8 37
-14 0 -8 4 -14 9 -14 11 0 24 31 16 38 -3 3 -5 0 -5 -7 0 -9 -4 -8 -15 3 -8 8
-15 19 -15 25 0 6 -7 11 -15 11 -8 0 -15 -4 -15 -9z"/>
<path d="M2406 5891 c-4 -7 -5 -15 -2 -18 9 -9 19 4 14 18 -4 11 -6 11 -12 0z"/>
<path d="M8790 5855 c0 -8 5 -15 10 -15 6 0 10 7 10 15 0 8 -4 15 -10 15 -5 0
-10 -7 -10 -15z"/>
<path d="M2400 5622 c0 -5 9 -17 20 -27 18 -16 20 -16 20 -2 0 9 -9 21 -20 27
-11 6 -20 7 -20 2z"/>
<path d="M2399 5562 c9 -7 12 -26 10 -61 -4 -56 6 -69 16 -21 4 17 11 28 16
24 6 -3 7 5 3 23 -8 34 -4 29 -34 37 -17 5 -21 4 -11 -2z"/>
<path d="M8805 5550 c3 -5 8 -10 11 -10 2 0 4 5 4 10 0 6 -5 10 -11 10 -5 0
-7 -4 -4 -10z"/>
<path d="M8832 5420 c0 -14 2 -19 5 -12 2 6 2 18 0 25 -3 6 -5 1 -5 -13z"/>
<path d="M8875 5207 c-17 -20 -39 -67 -34 -72 3 -2 17 16 32 40 24 41 26 61 2
32z"/>
<path d="M9020 5016 c0 -18 4 -23 18 -19 10 2 18 13 18 24 0 12 -7 19 -18 19
-12 0 -18 -8 -18 -24z"/>
<path d="M9024 4915 c-7 -18 3 -35 22 -35 17 0 19 16 3 26 -8 4 -7 9 2 15 11
7 10 9 -4 9 -10 0 -20 -7 -23 -15z"/>
<path d="M2306 4848 c-12 -37 -14 -78 -6 -83 6 -4 10 9 10 30 0 22 6 38 15 41
8 4 12 10 9 15 -8 13 -24 11 -28 -3z"/>
<path d="M9120 4798 c0 -49 5 -47 14 5 4 23 3 37 -4 37 -5 0 -10 -19 -10 -42z"/>
<path d="M9140 4383 c0 -13 5 -23 10 -23 13 0 13 11 0 30 -8 12 -10 11 -10 -7z"/>
<path d="M9127 4303 c-6 -33 0 -44 10 -17 4 10 14 24 22 31 14 11 13 12 -5 13
-16 0 -23 -8 -27 -27z"/>
<path d="M9110 4230 c0 -5 5 -10 10 -10 6 0 10 5 10 10 0 6 -4 10 -10 10 -5 0
-10 -4 -10 -10z"/>
<path d="M7230 3834 c0 -8 5 -12 10 -9 6 4 8 11 5 16 -9 14 -15 11 -15 -7z"/>
<path d="M9156 3818 c3 -4 9 -8 15 -8 5 0 9 4 9 8 0 5 -7 9 -15 9 -8 0 -12 -4
-9 -9z"/>
<path d="M2210 3465 c0 -8 4 -15 10 -15 5 0 7 7 4 15 -4 8 -8 15 -10 15 -2 0
-4 -7 -4 -15z"/>
<path d="M7470 3466 c0 -9 5 -16 10 -16 6 0 10 4 10 9 0 6 -4 13 -10 16 -5 3
-10 -1 -10 -9z"/>
<path d="M9260 3439 c0 -5 5 -7 10 -4 6 3 10 8 10 11 0 2 -4 4 -10 4 -5 0 -10
-5 -10 -11z"/>
<path d="M7530 3388 c0 -7 5 -20 10 -28 8 -12 10 -9 10 13 0 15 -4 27 -10 27
-5 0 -10 -6 -10 -12z"/>
<path d="M2265 3340 c-3 -5 -1 -10 4 -10 6 0 11 5 11 10 0 6 -2 10 -4 10 -3 0
-8 -4 -11 -10z"/>
<path d="M7600 3280 c0 -11 5 -20 10 -20 6 0 10 9 10 20 0 11 -4 20 -10 20 -5
0 -10 -9 -10 -20z"/>
<path d="M7660 3195 c0 -15 4 -24 10 -20 6 3 10 12 10 20 0 8 -4 17 -10 20 -6
4 -10 -5 -10 -20z"/>
<path d="M7725 3100 c-7 -12 2 -30 16 -30 5 0 9 9 9 20 0 21 -15 27 -25 10z"/>
<path d="M7787 3005 c-4 -25 4 -40 17 -28 9 9 7 41 -3 47 -5 3 -11 -6 -14 -19z"/>
<path d="M9161 2984 c0 -11 3 -14 6 -6 3 7 2 16 -1 19 -3 4 -6 -2 -5 -13z"/>
<path d="M9091 2934 c-25 -31 -28 -56 -6 -48 8 4 17 -1 21 -10 12 -30 26 -17
20 18 -4 23 -3 35 5 38 13 4 4 28 -11 28 -5 0 -18 -12 -29 -26z"/>
<path d="M7840 2906 c0 -17 5 -26 16 -26 10 0 14 7 12 22 -5 32 -28 35 -28 4z"/>
<path d="M7892 2788 c-6 -28 -10 -54 -7 -56 3 -3 5 1 5 10 0 8 9 23 20 33 23
21 25 38 7 53 -10 8 -15 -1 -25 -40z"/>
<path d="M7956 2724 c-3 -9 -6 -27 -6 -41 0 -25 0 -26 20 -8 23 21 27 65 6 65
-8 0 -17 -7 -20 -16z"/>
<path d="M8010 2641 c0 -10 -3 -33 -6 -50 -4 -20 -3 -31 5 -31 6 0 11 5 11 12
0 6 7 19 16 29 10 11 13 25 9 38 -8 26 -35 28 -35 2z"/>
<path d="M9018 2588 c3 -14 2 -19 -6 -14 -8 4 -12 0 -12 -11 0 -11 -5 -24 -11
-30 -8 -8 -8 -13 0 -18 6 -3 16 4 21 17 11 23 11 23 6 1 -6 -31 12 -29 24 2 5
14 14 25 20 25 5 0 10 9 10 19 0 11 6 22 13 24 8 4 9 6 0 6 -6 1 -19 -6 -27
-15 -15 -14 -16 -14 -16 0 0 9 -6 16 -14 16 -10 0 -12 -7 -8 -22z"/>
<path d="M2390 2579 c7 -11 14 -18 17 -15 8 8 -5 36 -17 36 -7 0 -7 -6 0 -21z"/>
<path d="M8951 2565 c-11 -31 -10 -37 5 -52 16 -16 16 -16 10 5 -4 13 -1 30 9
45 14 21 12 37 -5 37 -3 0 -12 -16 -19 -35z"/>
<path d="M2421 2548 c-9 -14 -9 -24 -2 -31 7 -7 12 -1 17 17 8 34 2 41 -15 14z"/>
<path d="M8077 2537 c-6 -40 0 -48 19 -23 18 25 18 42 0 49 -10 4 -15 -4 -19
-26z"/>
<path d="M8382 2477 c-25 -26 -29 -57 -9 -57 20 0 47 33 47 58 0 28 -11 28
-38 -1z"/>
<path d="M8771 2469 c-11 -18 -17 -38 -14 -46 8 -21 53 24 53 54 0 32 -17 29
-39 -8z"/>
<path d="M8132 2474 c4 -21 22 -23 26 -1 2 10 -3 17 -13 17 -10 0 -15 -6 -13
-16z"/>
<path d="M8211 2471 c-24 -18 -24 -19 -4 -29 23 -13 43 1 43 30 0 23 -9 22
-39 -1z"/>
<path d="M8299 2474 c-18 -22 -20 -44 -4 -44 18 0 47 29 42 43 -6 18 -23 19
-38 1z"/>
<path d="M8463 2471 c-15 -12 -20 -25 -16 -40 7 -27 14 -27 42 2 13 15 19 30
15 40 -8 21 -14 21 -41 -2z"/>
<path d="M8708 2473 c-22 -24 -23 -43 -3 -43 18 0 28 21 23 46 -3 14 -5 14
-20 -3z"/>
<path d="M8847 2472 c-16 -18 -23 -52 -11 -52 20 0 44 24 44 45 0 30 -11 32
-33 7z"/>
<path d="M8988 2465 c-19 -26 -24 -55 -9 -55 16 0 41 31 41 50 0 29 -13 30
-32 5z"/>
<path d="M8542 2462 c-13 -13 -20 -28 -16 -33 9 -15 48 25 42 42 -3 9 -11 6
-26 -9z"/>
<path d="M8620 2459 c-13 -24 -8 -34 15 -26 16 7 21 47 5 47 -5 0 -14 -9 -20
-21z"/>
<path d="M8912 2459 c-10 -15 -10 -25 -3 -32 14 -14 41 9 41 34 0 25 -22 24
-38 -2z"/>
<path d="M9205 2390 c-3 -5 -1 -10 4 -10 6 0 11 5 11 10 0 6 -2 10 -4 10 -3 0
-8 -4 -11 -10z"/>
</g>
</svg>
